<?xml version="1.0" encoding="utf-8"?>
<!-- Generator: Adobe Illustrator 28.3.0, SVG Export Plug-In . SVG Version: 6.00 Build 0)  -->
<svg version="1.1" id="Layer_1" xmlns="http://www.w3.org/2000/svg" xmlns:xlink="http://www.w3.org/1999/xlink" x="0px" y="0px"
	 viewBox="0 0 51.9 35.6" enable-background="new 0 0 51.9 35.6" xml:space="preserve">
<g>
	
		<linearGradient id="SVGID_1_" gradientUnits="userSpaceOnUse" x1="-173.1831" y1="1081.713" x2="-173.0582" y2="1075.7313" gradientTransform="matrix(1 0 0 -1 219 1087.0458)">
		<stop  offset="0" style="stop-color:#B4B4B4"/>
		<stop  offset="0.2058" style="stop-color:#989898"/>
		<stop  offset="0.5521" style="stop-color:#737374"/>
		<stop  offset="0.829" style="stop-color:#5B5B5B"/>
		<stop  offset="1" style="stop-color:#525252"/>
	</linearGradient>
	<path fill="url(#SVGID_1_)" d="M42.8,8.7h2l0.7-1.4c0.2-0.4,0.6-0.6,1-0.5l1.1,0.1c0.3,0,0.5,0.2,0.7,0.4l0.4,0.5
		c0.4,0.5,0.4,1.2,0,1.8l-0.1,0.2c-0.2,0.3-0.5,0.4-0.8,0.4h-5L42.8,8.7L42.8,8.7z"/>
	
		<linearGradient id="SVGID_00000160881709354173996590000003323430465828375699_" gradientUnits="userSpaceOnUse" x1="-213.5261" y1="1081.7828" x2="-212.9758" y2="1075.627" gradientTransform="matrix(1 0 0 -1 219 1087.0458)">
		<stop  offset="0" style="stop-color:#B4B4B4"/>
		<stop  offset="0.2058" style="stop-color:#989898"/>
		<stop  offset="0.5521" style="stop-color:#737374"/>
		<stop  offset="0.829" style="stop-color:#5B5B5B"/>
		<stop  offset="1" style="stop-color:#525252"/>
	</linearGradient>
	<path fill="url(#SVGID_00000160881709354173996590000003323430465828375699_)" d="M8.9,8.7h-2L6.1,7.3c-0.2-0.4-0.6-0.6-1-0.5
		L4.1,6.8C3.8,6.9,3.5,7,3.4,7.2L3,7.8C2.6,8.3,2.6,9,3,9.5l0.1,0.2c0.2,0.3,0.5,0.4,0.8,0.4h5L8.9,8.7L8.9,8.7z"/>
	
		<linearGradient id="SVGID_00000163770542318387578760000001817961145886768824_" gradientUnits="userSpaceOnUse" x1="-193.117" y1="1090.9423" x2="-193.117" y2="1079.2683" gradientTransform="matrix(1 0 0 -1 219 1087.0458)">
		<stop  offset="6.810900e-03" style="stop-color:#5690CC"/>
		<stop  offset="0.1653" style="stop-color:#6FA3D8"/>
		<stop  offset="0.4449" style="stop-color:#9CC3E8"/>
		<stop  offset="0.5848" style="stop-color:#ADCDEC"/>
		<stop  offset="0.8163" style="stop-color:#BDDAF2"/>
		<stop  offset="1" style="stop-color:#C3DFF4"/>
	</linearGradient>
	<path fill="url(#SVGID_00000163770542318387578760000001817961145886768824_)" d="M39.3,1.6c-0.5-0.6-2-1.2-5.9-1.6
		c-4-0.3-7.5-0.3-7.5-0.3S22.3-0.3,18.4,0c-4,0.3-5.4,1-5.9,1.6C12,2.2,39.8,2.2,39.3,1.6z"/>
	
		<linearGradient id="SVGID_00000129890900943478743780000017264818483102183811_" gradientUnits="userSpaceOnUse" x1="-193.1233" y1="1076.6631" x2="-193.1233" y2="1086.4655" gradientTransform="matrix(1 0 0 -1 219 1087.0458)">
		<stop  offset="0" style="stop-color:#FFFFFF"/>
		<stop  offset="0.4204" style="stop-color:#E6E6E5"/>
		<stop  offset="1" style="stop-color:#C8C8C8"/>
	</linearGradient>
	<path fill="url(#SVGID_00000129890900943478743780000017264818483102183811_)" d="M42.1,5.5c-1-1.7-2.8-3.9-2.8-3.9
		s-1.7-0.1-5.6-0.3c-4-0.2-7.8-0.1-7.8-0.1s-3.8,0-7.8,0.1c-4,0.2-5.6,0.3-5.6,0.3s-1.8,2.2-2.8,3.9c-1,1.7-2.8,4.9-2.8,4.9h19h19
		C44.9,10.4,43.1,7.2,42.1,5.5z"/>
	
		<linearGradient id="SVGID_00000092433998599941394160000003692842270355730866_" gradientUnits="userSpaceOnUse" x1="-216.0608" y1="1061.4293" x2="-213.2595" y2="1052.0468" gradientTransform="matrix(1 0 0 -1 219 1087.0458)">
		<stop  offset="0" style="stop-color:#525252"/>
		<stop  offset="0.5632" style="stop-color:#3D3D3D"/>
		<stop  offset="1" style="stop-color:#282828"/>
	</linearGradient>
	<path fill="url(#SVGID_00000092433998599941394160000003692842270355730866_)" d="M2.7,13.8c0,0-1.9,0.7-2.4,1.5S-0.2,20.4,0,25.7
		C0.2,31,0.7,34.4,1.3,35c0.6,0.5,2.2,0.6,3.8,0.6c1.5,0,2.7-0.3,3.1-0.8c0.4-0.4,0.5-5.6,0.5-5.6L2.7,13.8z"/>
	
		<linearGradient id="SVGID_00000128483794919084835730000008746642313469456025_" gradientUnits="userSpaceOnUse" x1="-171.2963" y1="1061.2389" x2="-169.2351" y2="1052.1071" gradientTransform="matrix(1 0 0 -1 219 1087.0458)">
		<stop  offset="0" style="stop-color:#525252"/>
		<stop  offset="0.5632" style="stop-color:#3D3D3D"/>
		<stop  offset="1" style="stop-color:#282828"/>
	</linearGradient>
	<path fill="url(#SVGID_00000128483794919084835730000008746642313469456025_)" d="M49.1,13.8c0,0,1.9,0.7,2.4,1.5
		c0.4,0.8,0.5,5.1,0.3,10.4c-0.2,5.3-0.7,8.8-1.3,9.3c-0.6,0.5-2.2,0.6-3.8,0.6s-2.7-0.3-3.1-0.8c-0.4-0.4-0.5-5.6-0.5-5.6
		L49.1,13.8z"/>
	
		<linearGradient id="SVGID_00000122000147618706690520000011501019117897244079_" gradientUnits="userSpaceOnUse" x1="-193.1287" y1="1045.0822" x2="-193.1287" y2="1094.3818" gradientTransform="matrix(1 0 0 -1 219 1087.0458)">
		<stop  offset="6.810900e-03" style="stop-color:#5690CC"/>
		<stop  offset="0.1653" style="stop-color:#6FA3D8"/>
		<stop  offset="0.4449" style="stop-color:#9CC3E8"/>
		<stop  offset="0.5848" style="stop-color:#ADCDEC"/>
		<stop  offset="0.8163" style="stop-color:#BDDAF2"/>
		<stop  offset="1" style="stop-color:#C3DFF4"/>
	</linearGradient>
	<path fill="url(#SVGID_00000122000147618706690520000011501019117897244079_)" d="M25.9,32.3c10,0,22.8-0.4,23.9-1.4
		c1.2-1,1.1-5.7,1.2-8.2c0.1-2.5-0.3-7.3-1.4-8.9c-1.1-1.6-3.1-3.1-5.4-4.2c-2.3-1.2-18.3-1.1-18.3-1.1S9.9,8.4,7.6,9.6
		c-2.3,1.2-4.3,2.6-5.4,4.2c-1.1,1.6-1.4,6.3-1.4,8.9c0,2.5,0,7.2,1.2,8.2C3.1,31.9,15.8,32.3,25.9,32.3z"/>
	
		<linearGradient id="SVGID_00000131361008858653761380000008714654886959376007_" gradientUnits="userSpaceOnUse" x1="-193.1214" y1="1069.9578" x2="-193.1214" y2="1052.0304" gradientTransform="matrix(1 0 0 -1 219 1087.0458)">
		<stop  offset="0" style="stop-color:#FFFFFF"/>
		<stop  offset="0.4204" style="stop-color:#E6E6E5"/>
		<stop  offset="1" style="stop-color:#C8C8C8"/>
	</linearGradient>
	<path fill="url(#SVGID_00000131361008858653761380000008714654886959376007_)" d="M25.9,29h7.4c1.2,0,2.3-0.8,2.6-2l1.7-6.9
		c0.4-1.7-0.9-3.4-2.6-3.4h-9.1h-9.1c-1.8,0-3.1,1.7-2.6,3.4l1.7,6.9c0.3,1.2,1.4,2,2.6,2H25.9z"/>
	
		<linearGradient id="SVGID_00000112605489422045822450000009471499032601622144_" gradientUnits="userSpaceOnUse" x1="-210.2939" y1="1046.608" x2="-210.6244" y2="1061.37" gradientTransform="matrix(1 0 0 -1 219 1087.0458)">
		<stop  offset="0" style="stop-color:#B4B4B4"/>
		<stop  offset="0.2058" style="stop-color:#989898"/>
		<stop  offset="0.5521" style="stop-color:#737374"/>
		<stop  offset="0.829" style="stop-color:#5B5B5B"/>
		<stop  offset="1" style="stop-color:#525252"/>
	</linearGradient>
	<path fill="url(#SVGID_00000112605489422045822450000009471499032601622144_)" d="M14.1,27.9c-0.6-1-1.6-1.7-2.8-1.8
		c-1-0.1-2.2-0.2-3.3-0.3c-1.4-0.2-3.1-0.3-4.1-0.4c-0.7-0.1-1.3,0.4-1.3,1.1L2.5,27c-0.2,1.4,0.8,2.7,2.2,3
		c0.9,0.2,1.9,0.3,2.9,0.4c2,0.1,3.9,0.2,4.7,0.3c0.3,0,0.5,0,0.8-0.1C14.2,30.2,14.7,28.9,14.1,27.9z"/>
	
		<linearGradient id="SVGID_00000009569530356931042750000011275332532279599242_" gradientUnits="userSpaceOnUse" x1="-211.2524" y1="1072.5518" x2="-210.8329" y2="1063.3555" gradientTransform="matrix(1 0 0 -1 219 1087.0458)">
		<stop  offset="0" style="stop-color:#FFFFFF"/>
		<stop  offset="0.4204" style="stop-color:#E6E6E5"/>
		<stop  offset="1" style="stop-color:#C8C8C8"/>
	</linearGradient>
	<path fill="url(#SVGID_00000009569530356931042750000011275332532279599242_)" d="M13.5,16.6c0,0-2.8-0.6-6-1
		c-1.7-0.2-3-0.4-3.8-0.5C3.1,15,2.6,15.4,2.5,16l-0.2,1.5c-0.1,0.6,0.3,1.2,0.8,1.4L5,19.6c0.5,0.2,1.1,0.2,1.6-0.1l0.8-0.4
		c0.6-0.3,1.3-0.5,2-0.5h2.4L13.5,16.6z"/>
	
		<linearGradient id="SVGID_00000176020305737171108390000004561759478934503559_" gradientUnits="userSpaceOnUse" x1="-175.2761" y1="1050.9005" x2="-175.607" y2="1061.2288" gradientTransform="matrix(1 0 0 -1 219 1087.0458)">
		<stop  offset="0" style="stop-color:#B4B4B4"/>
		<stop  offset="0.2058" style="stop-color:#989898"/>
		<stop  offset="0.5521" style="stop-color:#737374"/>
		<stop  offset="0.829" style="stop-color:#5B5B5B"/>
		<stop  offset="1" style="stop-color:#525252"/>
	</linearGradient>
	<path fill="url(#SVGID_00000176020305737171108390000004561759478934503559_)" d="M37.8,27.9c0.6-1,1.6-1.7,2.8-1.8
		c1-0.1,2.2-0.2,3.3-0.3c1.4-0.2,3.1-0.3,4.1-0.4c0.7-0.1,1.3,0.4,1.3,1.1l0.1,0.4c0.2,1.4-0.8,2.7-2.2,3c-0.9,0.2-1.9,0.3-2.9,0.4
		c-2,0.1-3.9,0.2-4.7,0.3c-0.3,0-0.5,0-0.8-0.1C37.7,30.2,37.2,28.9,37.8,27.9z"/>
	
		<linearGradient id="SVGID_00000033370663629848409340000014147550277812219276_" gradientUnits="userSpaceOnUse" x1="-174.9235" y1="1072.7988" x2="-175.1084" y2="1064.1631" gradientTransform="matrix(1 0 0 -1 219 1087.0458)">
		<stop  offset="0" style="stop-color:#FFFFFF"/>
		<stop  offset="0.9732" style="stop-color:#CACACA"/>
		<stop  offset="1" style="stop-color:#C8C8C8"/>
	</linearGradient>
	<path fill="url(#SVGID_00000033370663629848409340000014147550277812219276_)" d="M38.4,16.6c0,0,2.8-0.6,6-1
		c1.7-0.2,3-0.4,3.8-0.5c0.6-0.1,1.1,0.3,1.2,0.9l0.2,1.5c0.1,0.6-0.3,1.2-0.8,1.4l-1.8,0.7c-0.5,0.2-1.1,0.2-1.6-0.1l-0.8-0.4
		c-0.6-0.3-1.3-0.5-2-0.5h-2.4L38.4,16.6z"/>
	
		<linearGradient id="SVGID_00000066502294634626836620000009492522425958848398_" gradientUnits="userSpaceOnUse" x1="-193.0857" y1="1051.2815" x2="-193.1278" y2="1069.7744" gradientTransform="matrix(1 0 0 -1 219 1087.0458)">
		<stop  offset="0" style="stop-color:#525252"/>
		<stop  offset="0.5632" style="stop-color:#3D3D3D"/>
		<stop  offset="1" style="stop-color:#282828"/>
	</linearGradient>
	<path fill="url(#SVGID_00000066502294634626836620000009492522425958848398_)" d="M18.5,28.1c-0.9,0-1.6-0.6-1.8-1.4l-1.7-6.9
		c-0.1-0.6,0-1.2,0.3-1.6c0.4-0.5,0.9-0.7,1.5-0.7H35c0.6,0,1.1,0.3,1.5,0.7c0.4,0.5,0.5,1.1,0.3,1.6l-1.7,6.9
		c-0.2,0.8-1,1.4-1.8,1.4H18.5z"/>
	
		<linearGradient id="SVGID_00000145758119891485224170000003022980614644422533_" gradientUnits="userSpaceOnUse" x1="-214.5123" y1="1058.3549" x2="-215.1958" y2="1061.5493" gradientTransform="matrix(1 0 0 -1 219 1087.0458)">
		<stop  offset="0" style="stop-color:#FFFFFF"/>
		<stop  offset="0.4204" style="stop-color:#E6E6E5"/>
		<stop  offset="1" style="stop-color:#C8C8C8"/>
	</linearGradient>
	<path fill="url(#SVGID_00000145758119891485224170000003022980614644422533_)" d="M5,27.5c0.1,0.5-0.2,1-0.6,1.1
		c-0.4,0.1-0.9-0.3-0.9-0.8c-0.1-0.5,0.2-1,0.6-1.1C4.6,26.6,5,26.9,5,27.5z"/>
	
		<ellipse transform="matrix(7.861216e-02 -0.9969 0.9969 7.861216e-02 -12.6611 21.0326)" fill="#FFFFFF" cx="5" cy="17.4" rx="1.2" ry="1"/>
	
		<ellipse transform="matrix(0.9969 -7.861204e-02 7.861204e-02 0.9969 -1.2203 3.741)" fill="#FFFFFF" cx="46.9" cy="17.4" rx="1" ry="1.2"/>
	
		<linearGradient id="SVGID_00000029754294603760583420000015616846261529172138_" gradientUnits="userSpaceOnUse" x1="-171.5368" y1="1058.3671" x2="-170.8532" y2="1061.5615" gradientTransform="matrix(1 0 0 -1 219 1087.0458)">
		<stop  offset="0" style="stop-color:#FFFFFF"/>
		<stop  offset="0.4204" style="stop-color:#E6E6E5"/>
		<stop  offset="1" style="stop-color:#C8C8C8"/>
	</linearGradient>
	<path fill="url(#SVGID_00000029754294603760583420000015616846261529172138_)" d="M46.9,27.5c-0.1,0.5,0.2,1,0.7,1.1
		c0.4,0.1,0.9-0.3,0.9-0.8c0.1-0.5-0.2-1-0.7-1.1C47.4,26.6,47,26.9,46.9,27.5z"/>
	
		<linearGradient id="SVGID_00000032608240131237676190000005979573740365062049_" gradientUnits="userSpaceOnUse" x1="-200.008" y1="1084.469" x2="-200.008" y2="1075.6562" gradientTransform="matrix(1 0 0 -1 219 1087.0458)">
		<stop  offset="0" style="stop-color:#525252"/>
		<stop  offset="0.5632" style="stop-color:#3D3D3D"/>
		<stop  offset="1" style="stop-color:#282828"/>
	</linearGradient>
	<path fill="url(#SVGID_00000032608240131237676190000005979573740365062049_)" d="M20.7,11.2h-3.5c-0.9,0-1.5-0.8-1.4-1.7l0.4-2.6
		c0.1-0.7,0.7-1.3,1.4-1.3h2.8c0.7,0,1.3,0.6,1.4,1.3l0.3,2.6C22.3,10.4,21.6,11.2,20.7,11.2z"/>
	
		<linearGradient id="SVGID_00000103980919206937437230000003636956576744128648_" gradientUnits="userSpaceOnUse" x1="-186.0589" y1="1084.469" x2="-186.0589" y2="1075.6562" gradientTransform="matrix(1 0 0 -1 219 1087.0458)">
		<stop  offset="0" style="stop-color:#525252"/>
		<stop  offset="0.5632" style="stop-color:#3D3D3D"/>
		<stop  offset="1" style="stop-color:#282828"/>
	</linearGradient>
	<path fill="url(#SVGID_00000103980919206937437230000003636956576744128648_)" d="M34.7,11.2h-3.5c-0.9,0-1.5-0.8-1.4-1.7l0.4-2.6
		c0.1-0.7,0.7-1.3,1.4-1.3h2.8c0.7,0,1.3,0.6,1.4,1.3l0.3,2.6C36.2,10.4,35.5,11.2,34.7,11.2z"/>
	
		<linearGradient id="SVGID_00000031920571827670800620000003825343960612616577_" gradientUnits="userSpaceOnUse" x1="-184.3755" y1="1086.5835" x2="-184.3755" y2="1076.3159" gradientTransform="matrix(1 0 0 -1 219 1087.0458)">
		<stop  offset="0" style="stop-color:#B4B4B4"/>
		<stop  offset="0.2058" style="stop-color:#989898"/>
		<stop  offset="0.5521" style="stop-color:#737374"/>
		<stop  offset="0.829" style="stop-color:#5B5B5B"/>
		<stop  offset="1" style="stop-color:#525252"/>
	</linearGradient>
	<path fill="url(#SVGID_00000031920571827670800620000003825343960612616577_)" d="M36.7,10.5h-4.1c-1,0-1.8-0.9-1.7-1.9l0.4-3.1
		c0.1-0.8,0.8-1.5,1.7-1.5h3.3c0.8,0,1.6,0.6,1.7,1.5l0.4,3.1C38.5,9.6,37.7,10.5,36.7,10.5z"/>
	
		<linearGradient id="SVGID_00000117635379017417908420000011187107074786511033_" gradientUnits="userSpaceOnUse" x1="-201.8218" y1="1086.5835" x2="-201.8218" y2="1076.3159" gradientTransform="matrix(1 0 0 -1 219 1087.0458)">
		<stop  offset="0" style="stop-color:#B4B4B4"/>
		<stop  offset="0.2058" style="stop-color:#989898"/>
		<stop  offset="0.5521" style="stop-color:#737374"/>
		<stop  offset="0.829" style="stop-color:#5B5B5B"/>
		<stop  offset="1" style="stop-color:#525252"/>
	</linearGradient>
	<path fill="url(#SVGID_00000117635379017417908420000011187107074786511033_)" d="M19.2,10.5h-4.1c-1,0-1.8-0.9-1.7-1.9l0.4-3.1
		c0.1-0.8,0.8-1.5,1.7-1.5h3.3c0.8,0,1.6,0.6,1.7,1.5l0.4,3.1C21,9.6,20.2,10.5,19.2,10.5z"/>
	
		<linearGradient id="SVGID_00000106136071689187357570000015367943240831688108_" gradientUnits="userSpaceOnUse" x1="-193.1166" y1="1069.7146" x2="-193.1166" y2="1083.6123" gradientTransform="matrix(1 0 0 -1 219 1087.0458)">
		<stop  offset="6.810900e-03" style="stop-color:#5690CC"/>
		<stop  offset="0.1653" style="stop-color:#6FA3D8"/>
		<stop  offset="0.4449" style="stop-color:#9CC3E8"/>
		<stop  offset="0.5848" style="stop-color:#ADCDEC"/>
		<stop  offset="0.8163" style="stop-color:#BDDAF2"/>
		<stop  offset="1" style="stop-color:#C3DFF4"/>
	</linearGradient>
	<path fill="url(#SVGID_00000106136071689187357570000015367943240831688108_)" d="M25.9,8.4c0,0-13.4-0.1-17.4,0.8
		c0,0,1.9,1.4,3.4,3.2c0.6,0.7,1.1,1.4,1.5,2.1c0.8,1.2,2.1,2,3.5,2h9.1h9.1c1.5,0,2.8-0.8,3.5-2c0.4-0.7,0.9-1.4,1.5-2.1
		c1.5-1.8,3.4-3.2,3.4-3.2C39.3,8.4,25.9,8.4,25.9,8.4z"/>
</g>
</svg>
