<?xml version="1.0" encoding="utf-8"?>
<!-- Generator: Adobe Illustrator 28.3.0, SVG Export Plug-In . SVG Version: 6.00 Build 0)  -->
<svg version="1.1" id="Layer_1" xmlns="http://www.w3.org/2000/svg" xmlns:xlink="http://www.w3.org/1999/xlink" x="0px" y="0px"
	 viewBox="0 0 52 51" enable-background="new 0 0 52 51" xml:space="preserve">
<g>
	
		<linearGradient id="SVGID_1_" gradientUnits="userSpaceOnUse" x1="-189.3452" y1="1099.8846" x2="-189.1882" y2="1080.0769" gradientTransform="matrix(1 0 0 -1 219 1102.7426)">
		<stop  offset="0" style="stop-color:#D7D7D7"/>
		<stop  offset="0.2922" style="stop-color:#CBCBCB"/>
		<stop  offset="0.3603" style="stop-color:#C8C8C8"/>
		<stop  offset="0.5063" style="stop-color:#B8B7B7"/>
		<stop  offset="0.793" style="stop-color:#8E8D8C"/>
		<stop  offset="1" style="stop-color:#6C6B6A"/>
	</linearGradient>
	<ellipse fill="url(#SVGID_1_)" cx="29.8" cy="22.3" rx="16.9" ry="6.1"/>
	
		<linearGradient id="SVGID_00000132051058033764763620000004643585472529831099_" gradientUnits="userSpaceOnUse" x1="-197.7626" y1="1057.4982" x2="-191.0153" y2="1067.9526" gradientTransform="matrix(1 0 0 -1 219 1102.7426)">
		<stop  offset="0" style="stop-color:#D7D7D7"/>
		<stop  offset="0.5089" style="stop-color:#C8C8C8"/>
		<stop  offset="0.6508" style="stop-color:#B1B2B1"/>
		<stop  offset="0.9483" style="stop-color:#777675"/>
		<stop  offset="1" style="stop-color:#6C6B6A"/>
	</linearGradient>
	<path fill="url(#SVGID_00000132051058033764763620000004643585472529831099_)" d="M35.6,34.1L14.9,46.9L14,45.4l20.7-12.8
		L35.6,34.1z"/>
	
		<linearGradient id="SVGID_00000136409779685744588050000001779133229511038854_" gradientUnits="userSpaceOnUse" x1="-200.3234" y1="1068.6245" x2="-195.5" y2="1061.6533" gradientTransform="matrix(1 0 0 -1 219 1102.7426)">
		<stop  offset="0" style="stop-color:#6C6B6A"/>
		<stop  offset="0.2749" style="stop-color:#979696"/>
		<stop  offset="0.6053" style="stop-color:#C8C8C8"/>
		<stop  offset="0.6799" style="stop-color:#CBCBCB"/>
		<stop  offset="1" style="stop-color:#D7D7D7"/>
	</linearGradient>
	<path fill="url(#SVGID_00000136409779685744588050000001779133229511038854_)" d="M11.8,33.8l20.5,13.1l0.9-1.5L12.7,32.3
		L11.8,33.8z"/>
	
		<linearGradient id="SVGID_00000177446239787953027500000004964602437922752440_" gradientUnits="userSpaceOnUse" x1="-195.3351" y1="1060.035" x2="-195.3199" y2="1053.849" gradientTransform="matrix(1 0 0 -1 219 1102.7426)">
		<stop  offset="5.340540e-02" style="stop-color:#C3DFF4"/>
		<stop  offset="0.2739" style="stop-color:#BDDAF2"/>
		<stop  offset="0.5518" style="stop-color:#ADCDEC"/>
		<stop  offset="0.716" style="stop-color:#9CC4E8"/>
		<stop  offset="0.9932" style="stop-color:#77B0DF"/>
	</linearGradient>
	<path fill="url(#SVGID_00000177446239787953027500000004964602437922752440_)" d="M14.7,45.2h17.9v1.8H14.7V45.2z"/>
	
		<radialGradient id="SVGID_00000057867058522993776370000003526120702111841460_" cx="-534.8651" cy="604.0009" r="1" gradientTransform="matrix(4.9205 0 0 -4.9243 2646.5642 3020.3784)" gradientUnits="userSpaceOnUse">
		<stop  offset="0.2462" style="stop-color:#333333"/>
		<stop  offset="0.5146" style="stop-color:#383938"/>
		<stop  offset="0.8417" style="stop-color:#484848"/>
		<stop  offset="1" style="stop-color:#525252"/>
	</radialGradient>
	<ellipse fill="url(#SVGID_00000057867058522993776370000003526120702111841460_)" cx="14.7" cy="46" rx="4.9" ry="4.9"/>
	
		<linearGradient id="SVGID_00000165221220308482224880000011285723939269997987_" gradientUnits="userSpaceOnUse" x1="-205.3702" y1="1059.0958" x2="-203.2347" y2="1054.3282" gradientTransform="matrix(1 0 0 -1 219 1102.7426)">
		<stop  offset="0" style="stop-color:#6C6B6A"/>
		<stop  offset="5.153340e-02" style="stop-color:#787877"/>
		<stop  offset="0.2163" style="stop-color:#9B9A99"/>
		<stop  offset="0.371" style="stop-color:#B4B4B4"/>
		<stop  offset="0.5104" style="stop-color:#C3C3C3"/>
		<stop  offset="0.621" style="stop-color:#C8C8C8"/>
		<stop  offset="1" style="stop-color:#C8C8C8"/>
	</linearGradient>
	<ellipse fill="url(#SVGID_00000165221220308482224880000011285723939269997987_)" cx="14.7" cy="46" rx="2.6" ry="2.6"/>
	
		<linearGradient id="SVGID_00000172404920839939623990000014124897395185031075_" gradientUnits="userSpaceOnUse" x1="-204.9567" y1="1058.3192" x2="-203.6356" y2="1055.076" gradientTransform="matrix(1 0 0 -1 219 1102.7426)">
		<stop  offset="0" style="stop-color:#6C6B6A"/>
		<stop  offset="9.009920e-02" style="stop-color:#81807F"/>
		<stop  offset="0.3017" style="stop-color:#AEAEAD"/>
		<stop  offset="0.5047" style="stop-color:#D1D2D0"/>
		<stop  offset="0.6941" style="stop-color:#EAEAEA"/>
		<stop  offset="0.8646" style="stop-color:#FAFBFC"/>
		<stop  offset="1" style="stop-color:#FFFFFF"/>
	</linearGradient>
	<path fill="url(#SVGID_00000172404920839939623990000014124897395185031075_)" d="M14.7,47.8c-1,0-1.8-0.8-1.8-1.8
		c0-1,0.8-1.8,1.8-1.8s1.8,0.8,1.8,1.8C16.5,47,15.7,47.8,14.7,47.8z"/>
	
		<linearGradient id="SVGID_00000033326652743093383620000009518499902026363546_" gradientUnits="userSpaceOnUse" x1="-204.8904" y1="1058.0238" x2="-202.5365" y2="1052.769" gradientTransform="matrix(1 0 0 -1 219 1102.7426)">
		<stop  offset="0" style="stop-color:#6C6B6A"/>
		<stop  offset="0.2592" style="stop-color:#989797"/>
		<stop  offset="0.495" style="stop-color:#BCBCBB"/>
		<stop  offset="0.621" style="stop-color:#C8C8C8"/>
		<stop  offset="1" style="stop-color:#C8C8C8"/>
	</linearGradient>
	<ellipse fill="url(#SVGID_00000033326652743093383620000009518499902026363546_)" cx="14.7" cy="46" rx="1.4" ry="1.4"/>
	
		<radialGradient id="SVGID_00000106828387239815710380000009532047830031288241_" cx="-539.6575" cy="596.1839" r="0.9998" gradientTransform="matrix(5.2382 0 0 -5.2423 2859.468 3171.3999)" gradientUnits="userSpaceOnUse">
		<stop  offset="0.2462" style="stop-color:#333333"/>
		<stop  offset="0.5146" style="stop-color:#383938"/>
		<stop  offset="0.8417" style="stop-color:#484848"/>
		<stop  offset="1" style="stop-color:#525252"/>
	</radialGradient>
	<ellipse fill="url(#SVGID_00000106828387239815710380000009532047830031288241_)" cx="32.7" cy="46" rx="4.9" ry="4.9"/>
	
		<linearGradient id="SVGID_00000026128062942333417310000012678724040117265047_" gradientUnits="userSpaceOnUse" x1="-187.4197" y1="1059.1003" x2="-185.2841" y2="1054.3328" gradientTransform="matrix(1 0 0 -1 219 1102.7426)">
		<stop  offset="0" style="stop-color:#6C6B6A"/>
		<stop  offset="5.153340e-02" style="stop-color:#787877"/>
		<stop  offset="0.2163" style="stop-color:#9B9A99"/>
		<stop  offset="0.371" style="stop-color:#B4B4B4"/>
		<stop  offset="0.5104" style="stop-color:#C3C3C3"/>
		<stop  offset="0.621" style="stop-color:#C8C8C8"/>
		<stop  offset="1" style="stop-color:#C8C8C8"/>
	</linearGradient>
	<ellipse fill="url(#SVGID_00000026128062942333417310000012678724040117265047_)" cx="32.7" cy="46" rx="2.6" ry="2.6"/>
	
		<linearGradient id="SVGID_00000074401349882847895600000001143198402282385573_" gradientUnits="userSpaceOnUse" x1="-187.0053" y1="1058.3234" x2="-185.6842" y2="1055.0802" gradientTransform="matrix(1 0 0 -1 219 1102.7426)">
		<stop  offset="0" style="stop-color:#6C6B6A"/>
		<stop  offset="9.009920e-02" style="stop-color:#81807F"/>
		<stop  offset="0.3017" style="stop-color:#AEAEAD"/>
		<stop  offset="0.5047" style="stop-color:#D1D2D0"/>
		<stop  offset="0.6941" style="stop-color:#EAEAEA"/>
		<stop  offset="0.8646" style="stop-color:#FAFBFC"/>
		<stop  offset="1" style="stop-color:#FFFFFF"/>
	</linearGradient>
	<path fill="url(#SVGID_00000074401349882847895600000001143198402282385573_)" d="M32.7,47.8c-1,0-1.8-0.8-1.8-1.8
		c0-1,0.8-1.8,1.8-1.8c1,0,1.8,0.8,1.8,1.8C34.4,47,33.6,47.8,32.7,47.8z"/>
	
		<linearGradient id="SVGID_00000170987313369078450980000006938043522563746436_" gradientUnits="userSpaceOnUse" x1="-186.9392" y1="1058.0283" x2="-184.5853" y2="1052.7736" gradientTransform="matrix(1 0 0 -1 219 1102.7426)">
		<stop  offset="0" style="stop-color:#6C6B6A"/>
		<stop  offset="0.2592" style="stop-color:#989797"/>
		<stop  offset="0.495" style="stop-color:#BCBCBB"/>
		<stop  offset="0.621" style="stop-color:#C8C8C8"/>
		<stop  offset="1" style="stop-color:#C8C8C8"/>
	</linearGradient>
	<ellipse fill="url(#SVGID_00000170987313369078450980000006938043522563746436_)" cx="32.7" cy="46" rx="1.4" ry="1.4"/>
	
		<linearGradient id="SVGID_00000083076736693391185440000000274809701955454649_" gradientUnits="userSpaceOnUse" x1="-193.3771" y1="1083.2427" x2="-191.6887" y2="1064.855" gradientTransform="matrix(1 0 0 -1 219 1102.7426)">
		<stop  offset="0" style="stop-color:#F26722"/>
		<stop  offset="0.3678" style="stop-color:#F26122"/>
		<stop  offset="0.9685" style="stop-color:#DB5026"/>
		<stop  offset="1" style="stop-color:#DB5026"/>
	</linearGradient>
	<path fill="url(#SVGID_00000083076736693391185440000000274809701955454649_)" d="M51.3,17.7l-0.1-0.6l-0.1-0.6
		c-0.2,0-4,0.6-5.1,5.9H22.4c0,0-0.7-4.4-0.7-10.6C21.6,5.6,22.4,0,22.4,0c-1.2,1.3-3,2.3-5.1,2.6c-1.7,0.3-3.2,0.1-4.6-0.3
		c-0.5,2.5-3.1,4.8-6.6,5.4C6,7.7,5.8,7.7,5.6,7.7c0.4,2.4-1,5.3-3.7,7.2c-0.2,0.2-0.5,0.3-0.8,0.5c1.1,2,0.6,4.7-1.1,6.9
		c0,0,0,0,0,0.1l1.7,6.8c1.2,4.6,5.3,7.8,10,7.8h24.2c4.9,0,9.1-3.4,10.1-8.2l1.4-6.4h0C48.3,18.2,51.2,17.7,51.3,17.7z"/>
	<path opacity="0.3" fill="#FFFFFF" enable-background="new    " d="M13.1,3.1c0.6,1.5,1.2,3,1.9,4.5c0.3,0.7,0.6,1.5,1,2.2
		c0.3,0.7,0.7,1.5,1,2.2c0.6,1.5,1.3,2.9,2.1,4.3c0.8,1.4,1.6,2.8,2.5,4.1c-1-1.3-1.8-2.7-2.7-4c-0.8-1.4-1.6-2.8-2.3-4.3
		c-0.4-0.7-0.6-1.5-1-2.2c-0.3-0.8-0.6-1.5-0.9-2.3C14.1,6.1,13.6,4.6,13.1,3.1z"/>
	<path opacity="0.3" fill="#FFFFFF" enable-background="new    " d="M6.4,8.3c1.1,1.2,2.3,2.4,3.4,3.5c0.6,0.6,1.1,1.2,1.7,1.7
		c0.6,0.6,1.2,1.1,1.7,1.7c1.1,1.2,2.4,2.2,3.7,3.2c1.3,1,2.7,1.8,4.2,2.5c-1.5-0.7-2.9-1.5-4.3-2.4c-1.4-0.9-2.7-1.9-3.9-3
		c-0.6-0.5-1.2-1.1-1.7-1.7s-1.1-1.2-1.7-1.8C8.5,10.8,7.4,9.6,6.4,8.3z"/>
	<path opacity="0.3" fill="#FFFFFF" enable-background="new    " d="M2.1,15.8c1.5,0.6,3,1.3,4.5,1.9c0.8,0.3,1.5,0.6,2.3,0.9
		c0.8,0.3,1.5,0.6,2.3,0.9c1.5,0.6,3.1,1.1,4.6,1.5c1.6,0.4,3.2,0.7,4.8,0.8c-1.6-0.1-3.3-0.3-4.9-0.6c-1.6-0.3-3.2-0.8-4.8-1.3
		c-0.8-0.3-1.5-0.6-2.3-0.9c-0.8-0.3-1.5-0.7-2.2-1C5,17.3,3.6,16.6,2.1,15.8z"/>
	
		<linearGradient id="SVGID_00000096050168805329762350000003690149544482555061_" gradientUnits="userSpaceOnUse" x1="-197.4581" y1="1081.8406" x2="-195.3108" y2="1078.1624" gradientTransform="matrix(1 0 0 -1 219 1102.7426)">
		<stop  offset="0" style="stop-color:#D7D7D7"/>
		<stop  offset="0.3201" style="stop-color:#CBCBCB"/>
		<stop  offset="0.3947" style="stop-color:#C8C8C8"/>
		<stop  offset="0.5025" style="stop-color:#C3C3C3"/>
		<stop  offset="0.6384" style="stop-color:#B4B4B4"/>
		<stop  offset="0.7892" style="stop-color:#9B9A99"/>
		<stop  offset="0.9498" style="stop-color:#787877"/>
		<stop  offset="1" style="stop-color:#6C6B6A"/>
	</linearGradient>
	<ellipse fill="url(#SVGID_00000096050168805329762350000003690149544482555061_)" cx="22.4" cy="22.3" rx="1.6" ry="1.6"/>
	
		<linearGradient id="SVGID_00000171709014481958347180000001492558900099999133_" gradientUnits="userSpaceOnUse" x1="-197.1398" y1="1081.3167" x2="-196.2604" y2="1079.7739" gradientTransform="matrix(1 0 0 -1 219 1102.7426)">
		<stop  offset="0" style="stop-color:#6C6B6A"/>
		<stop  offset="0.548" style="stop-color:#5B5A5A"/>
		<stop  offset="1" style="stop-color:#525252"/>
	</linearGradient>
	<ellipse fill="url(#SVGID_00000171709014481958347180000001492558900099999133_)" cx="22.4" cy="22.3" rx="0.8" ry="0.8"/>
	
		<linearGradient id="SVGID_00000099657190569182106470000002240335550155365054_" gradientUnits="userSpaceOnUse" x1="-195.5036" y1="1062.7211" x2="-195.1094" y2="1062.0294" gradientTransform="matrix(1 0 0 -1 219 1102.7426)">
		<stop  offset="0" style="stop-color:#6C6B6A"/>
		<stop  offset="0.548" style="stop-color:#5B5A5A"/>
		<stop  offset="1" style="stop-color:#525252"/>
	</linearGradient>
	<ellipse fill="url(#SVGID_00000099657190569182106470000002240335550155365054_)" cx="23.7" cy="40.4" rx="0.4" ry="0.4"/>
	
		<linearGradient id="SVGID_00000165923882277821901570000004927728915324402362_" gradientUnits="userSpaceOnUse" x1="-169.0563" y1="1086.9546" x2="-167.7138" y2="1084.5992" gradientTransform="matrix(1 0 0 -1 219 1102.7426)">
		<stop  offset="0" style="stop-color:#6C6B6A"/>
		<stop  offset="0.548" style="stop-color:#5B5A5A"/>
		<stop  offset="1" style="stop-color:#525252"/>
	</linearGradient>
	<ellipse fill="url(#SVGID_00000165923882277821901570000004927728915324402362_)" cx="50.7" cy="17.2" rx="1.3" ry="1.3"/>
</g>
</svg>
