<?xml version="1.0" encoding="utf-8"?>
<!-- Generator: Adobe Illustrator 28.3.0, SVG Export Plug-In . SVG Version: 6.00 Build 0)  -->
<svg version="1.1" id="Layer_1" xmlns="http://www.w3.org/2000/svg" xmlns:xlink="http://www.w3.org/1999/xlink" x="0px" y="0px"
	 viewBox="0 0 55 45" enable-background="new 0 0 55 45" xml:space="preserve">
<g>
	
		<linearGradient id="SVGID_1_" gradientUnits="userSpaceOnUse" x1="-203.6812" y1="1082.2488" x2="-192.689" y2="1082.1256" gradientTransform="matrix(1 0 0 -1 219 1096.6686)">
		<stop  offset="0" style="stop-color:#C3DFF4"/>
		<stop  offset="3.345840e-02" style="stop-color:#C1DDF3"/>
		<stop  offset="0.3375" style="stop-color:#ADCDEC"/>
		<stop  offset="0.4962" style="stop-color:#9CC3E8"/>
		<stop  offset="0.8133" style="stop-color:#6FA3D8"/>
		<stop  offset="0.9932" style="stop-color:#5690CC"/>
	</linearGradient>
	<path fill="url(#SVGID_1_)" d="M20,8h1v13h-1V8z"/>
	
		<linearGradient id="SVGID_00000050651690581045126000000007355449706257888137_" gradientUnits="userSpaceOnUse" x1="-198.6096" y1="1085.1073" x2="-198.3164" y2="1080.6346" gradientTransform="matrix(1 0 0 -1 219 1096.6686)">
		<stop  offset="0" style="stop-color:#C3DFF4"/>
		<stop  offset="3.345840e-02" style="stop-color:#C1DDF3"/>
		<stop  offset="0.3375" style="stop-color:#ADCDEC"/>
		<stop  offset="0.4962" style="stop-color:#9CC3E8"/>
		<stop  offset="0.8133" style="stop-color:#6FA3D8"/>
		<stop  offset="0.9932" style="stop-color:#5690CC"/>
	</linearGradient>
	<path fill="url(#SVGID_00000050651690581045126000000007355449706257888137_)" d="M20.9,13.3c-0.1,0.1-0.3,0.2-0.4,0.3
		c-0.1-0.1-0.2-0.2-0.4-0.3c-0.7-0.4-1.4-0.4-2.1-0.2c0.1,0.6,0.5,1.2,1.2,1.6c0.4,0.2,0.8,0.3,1.2,0.3c0,0,0,0,0.1,0s0,0,0.1,0
		c0.4,0,0.8-0.1,1.2-0.3c0.7-0.4,1.1-0.9,1.2-1.6C22.3,12.9,21.5,12.9,20.9,13.3z"/>
	
		<linearGradient id="SVGID_00000105396575384738650930000000885262566341685177_" gradientUnits="userSpaceOnUse" x1="-177.9248" y1="1090.5803" x2="-185.3784" y2="1077.1239" gradientTransform="matrix(1 0 0 -1 219 1096.6686)">
		<stop  offset="0" style="stop-color:#B4B4B4"/>
		<stop  offset="0.2058" style="stop-color:#989898"/>
		<stop  offset="0.5521" style="stop-color:#737374"/>
		<stop  offset="0.829" style="stop-color:#5B5B5B"/>
		<stop  offset="1" style="stop-color:#525252"/>
	</linearGradient>
	<path fill="url(#SVGID_00000105396575384738650930000000885262566341685177_)" d="M39.9,7l-2.2-0.6l-3.5,13.1l2.2,0.6L39.9,7z"/>
	
		<linearGradient id="SVGID_00000100348157612870288840000007676734005398566070_" gradientUnits="userSpaceOnUse" x1="-181.8637" y1="1065.3212" x2="-186.5758" y2="1083.7982" gradientTransform="matrix(1 0 0 -1 219 1096.6686)">
		<stop  offset="6.810900e-03" style="stop-color:#5690CC"/>
		<stop  offset="0.1867" style="stop-color:#6FA3D8"/>
		<stop  offset="0.5038" style="stop-color:#9CC3E8"/>
		<stop  offset="0.6625" style="stop-color:#ADCDEC"/>
		<stop  offset="0.9665" style="stop-color:#C1DDF3"/>
		<stop  offset="1" style="stop-color:#C3DFF4"/>
	</linearGradient>
	<path fill="url(#SVGID_00000100348157612870288840000007676734005398566070_)" d="M38.7,27.4l-5.9,1.7l-4.3-4.4l2.2-8.1l10.1,2.7
		L38.7,27.4z"/>
	
		<linearGradient id="SVGID_00000009568945896084499460000017352792565598849976_" gradientUnits="userSpaceOnUse" x1="-178.6204" y1="1098.1532" x2="-179.6818" y2="1088.1711" gradientTransform="matrix(1 0 0 -1 219 1096.6686)">
		<stop  offset="0" style="stop-color:#B4B4B4"/>
		<stop  offset="0.2058" style="stop-color:#989898"/>
		<stop  offset="0.5521" style="stop-color:#737374"/>
		<stop  offset="0.829" style="stop-color:#5B5B5B"/>
		<stop  offset="1" style="stop-color:#525252"/>
	</linearGradient>
	<path fill-rule="evenodd" clip-rule="evenodd" fill="url(#SVGID_00000009568945896084499460000017352792565598849976_)" d="
		M36.2,3.5l0.9-3.3l6.6,1.8l-0.9,3.3c-0.5,1.8-2.4,2.9-4.2,2.4C36.8,7.2,35.7,5.3,36.2,3.5z M38.9,6.4c1.1,0.3,2.3-0.4,2.6-1.5
		l0.5-2.1L38,1.7l-0.5,2.1C37.1,4.9,37.8,6.1,38.9,6.4z"/>
	
		<linearGradient id="SVGID_00000052786145055575966330000011366557336085800834_" gradientUnits="userSpaceOnUse" x1="-182.2666" y1="1075.2078" x2="-190.2338" y2="1078.5923" gradientTransform="matrix(1 0 0 -1 219 1096.6686)">
		<stop  offset="6.810900e-03" style="stop-color:#5690CC"/>
		<stop  offset="0.1867" style="stop-color:#6FA3D8"/>
		<stop  offset="0.5038" style="stop-color:#9CC3E8"/>
		<stop  offset="0.6625" style="stop-color:#ADCDEC"/>
		<stop  offset="0.9665" style="stop-color:#C1DDF3"/>
		<stop  offset="1" style="stop-color:#C3DFF4"/>
	</linearGradient>
	<path fill="url(#SVGID_00000052786145055575966330000011366557336085800834_)" d="M34.8,17.6l-1.3,4.7c-0.2,0.6,0.2,1.2,0.8,1.4
		c0.6,0.2,1.2-0.2,1.4-0.8l1.3-4.7L34.8,17.6z"/>
	
		<linearGradient id="SVGID_00000013166818084148145900000011825557078590391487_" gradientUnits="userSpaceOnUse" x1="-178.727" y1="1096.9963" x2="-178.7888" y2="1093.6088" gradientTransform="matrix(1 0 0 -1 219 1096.6686)">
		<stop  offset="0" style="stop-color:#B4B4B4"/>
		<stop  offset="0.2058" style="stop-color:#989898"/>
		<stop  offset="0.5521" style="stop-color:#737374"/>
		<stop  offset="0.829" style="stop-color:#5B5B5B"/>
		<stop  offset="1" style="stop-color:#525252"/>
	</linearGradient>
	<path fill="url(#SVGID_00000013166818084148145900000011825557078590391487_)" d="M43.2,3.1l-6.3-1.7c-0.3-0.1-0.5-0.4-0.5-0.8
		l0.1-0.2c0.1-0.3,0.4-0.5,0.8-0.5l6.3,1.7c0.3,0.1,0.5,0.4,0.5,0.8L44,2.7C43.9,3,43.5,3.2,43.2,3.1z"/>
	
		<linearGradient id="SVGID_00000070094783457643048920000014106380622656045454_" gradientUnits="userSpaceOnUse" x1="-197.4283" y1="1082.9501" x2="-197.3484" y2="1070.5713" gradientTransform="matrix(1 0 0 -1 219 1096.6686)">
		<stop  offset="0" style="stop-color:#B4B4B4"/>
		<stop  offset="0.2058" style="stop-color:#989898"/>
		<stop  offset="0.5521" style="stop-color:#737374"/>
		<stop  offset="0.829" style="stop-color:#5B5B5B"/>
		<stop  offset="1" style="stop-color:#525252"/>
	</linearGradient>
	<path fill="url(#SVGID_00000070094783457643048920000014106380622656045454_)" d="M11.2,23.6c0,0-0.2-2.5,1.4-3.4
		c1.7-1,3.4-0.4,3.4-0.4s0.8-2.2,3.9-2.2c3.1-0.1,4.2,2,4.2,2s1.5-1.1,3.9-0.6c2.4,0.5,4.3,2.3,4.1,4.7
		C31.8,25.9,11.2,23.6,11.2,23.6z"/>
	
		<linearGradient id="SVGID_00000123436585799244875060000009574831493868267161_" gradientUnits="userSpaceOnUse" x1="-186.8601" y1="1049.3248" x2="-187.6181" y2="1059.6385" gradientTransform="matrix(1 0 0 -1 219 1096.6686)">
		<stop  offset="0" style="stop-color:#B4B4B4"/>
		<stop  offset="0.2058" style="stop-color:#989898"/>
		<stop  offset="0.5521" style="stop-color:#737374"/>
		<stop  offset="0.829" style="stop-color:#5B5B5B"/>
		<stop  offset="1" style="stop-color:#525252"/>
	</linearGradient>
	<path fill="url(#SVGID_00000123436585799244875060000009574831493868267161_)" d="M33.2,44.9H30c-0.3,0-0.7-0.2-0.8-0.5l-3-7.3
		c-0.2-0.4,0-0.9,0.5-1.1c0.4-0.2,0.9,0,1.1,0.5l2.7,6.7h2l2.2-7.4c0.1-0.5,0.6-0.7,1.1-0.6c0.5,0.1,0.7,0.6,0.6,1.1l-2.4,8
		C33.9,44.6,33.6,44.9,33.2,44.9z"/>
	
		<radialGradient id="SVGID_00000136406541197715043830000017490610762284545936_" cx="-554.1371" cy="567.2927" r="1.0006" gradientTransform="matrix(6.6802 0 0 -6.6654 3710.3164 3819.9329)" gradientUnits="userSpaceOnUse">
		<stop  offset="0.2462" style="stop-color:#333333"/>
		<stop  offset="0.5146" style="stop-color:#383938"/>
		<stop  offset="0.8417" style="stop-color:#484848"/>
		<stop  offset="1" style="stop-color:#525252"/>
	</radialGradient>
	<ellipse fill="url(#SVGID_00000136406541197715043830000017490610762284545936_)" cx="8.6" cy="38.7" rx="6.3" ry="6.3"/>
	
		<linearGradient id="SVGID_00000127028034961092949850000016327451777235035038_" gradientUnits="userSpaceOnUse" x1="-212.0668" y1="1061.6132" x2="-209.0279" y2="1054.8085" gradientTransform="matrix(1 0 0 -1 219 1096.6686)">
		<stop  offset="0" style="stop-color:#6C6B6A"/>
		<stop  offset="5.153340e-02" style="stop-color:#787877"/>
		<stop  offset="0.2163" style="stop-color:#9B9A99"/>
		<stop  offset="0.371" style="stop-color:#B4B4B4"/>
		<stop  offset="0.5104" style="stop-color:#C3C3C3"/>
		<stop  offset="0.621" style="stop-color:#C8C8C8"/>
		<stop  offset="1" style="stop-color:#C8C8C8"/>
	</linearGradient>
	<ellipse fill="url(#SVGID_00000127028034961092949850000016327451777235035038_)" cx="8.6" cy="38.7" rx="3.3" ry="3.3"/>
	
		<linearGradient id="SVGID_00000093857821458905156500000010213332527730658748_" gradientUnits="userSpaceOnUse" x1="-211.2794" y1="1060.0343" x2="-209.6033" y2="1055.9072" gradientTransform="matrix(1 0 0 -1 219 1096.6686)">
		<stop  offset="0" style="stop-color:#6C6B6A"/>
		<stop  offset="1" style="stop-color:#FFFFFF"/>
	</linearGradient>
	<path fill="url(#SVGID_00000093857821458905156500000010213332527730658748_)" d="M8.6,40.9c-1.3,0-2.3-1-2.3-2.2
		c0-1.2,1-2.2,2.3-2.2s2.3,1,2.3,2.2C10.8,39.9,9.8,40.9,8.6,40.9z"/>
	
		<linearGradient id="SVGID_00000059299255258100870250000014871409656872198054_" gradientUnits="userSpaceOnUse" x1="-211.1938" y1="1059.6593" x2="-208.207" y2="1052.9712" gradientTransform="matrix(1 0 0 -1 219 1096.6686)">
		<stop  offset="0" style="stop-color:#6C6B6A"/>
		<stop  offset="0.1493" style="stop-color:#797978"/>
		<stop  offset="0.4298" style="stop-color:#9C9B9B"/>
		<stop  offset="0.7311" style="stop-color:#C8C8C8"/>
		<stop  offset="1" style="stop-color:#C8C8C8"/>
	</linearGradient>
	<ellipse fill="url(#SVGID_00000059299255258100870250000014871409656872198054_)" cx="8.6" cy="38.7" rx="1.8" ry="1.8"/>
	
		<linearGradient id="SVGID_00000032633654071069375010000000267329696946000568_" gradientUnits="userSpaceOnUse" x1="-194.7004" y1="1078.5791" x2="-193.0764" y2="1058.2247" gradientTransform="matrix(1 0 0 -1 219 1096.6686)">
		<stop  offset="0" style="stop-color:#F26722"/>
		<stop  offset="0.2673" style="stop-color:#F26322"/>
		<stop  offset="0.7453" style="stop-color:#E65825"/>
		<stop  offset="1" style="stop-color:#DB5026"/>
	</linearGradient>
	<path fill="url(#SVGID_00000032633654071069375010000000267329696946000568_)" d="M36.7,34.9l-20.3,2.2L9.2,22.6h30.9L36.7,34.9z"
		/>
	
		<linearGradient id="SVGID_00000121261552995977281570000009942481062775026088_" gradientUnits="userSpaceOnUse" x1="-192.274" y1="1079.3617" x2="-190.5211" y2="1039.4629" gradientTransform="matrix(1 0 0 -1 219 1096.6686)">
		<stop  offset="6.810900e-03" style="stop-color:#5690CC"/>
		<stop  offset="0.1867" style="stop-color:#6FA3D8"/>
		<stop  offset="0.5038" style="stop-color:#9CC3E8"/>
		<stop  offset="0.6625" style="stop-color:#ADCDEC"/>
		<stop  offset="0.9665" style="stop-color:#C1DDF3"/>
		<stop  offset="1" style="stop-color:#C3DFF4"/>
	</linearGradient>
	<path fill="url(#SVGID_00000121261552995977281570000009942481062775026088_)" d="M0.8,40.4c-0.4,0-0.8-0.3-0.8-0.8
		c-0.1-0.5,0.3-0.9,0.8-0.9l36.3-4c0.2,0,3.6-0.7,5.2-3.5c0.6-1,1-2,1.4-3c1.5-3.5,3-6.8,9.9-6.8c0.1,0,0.2,0,0.2,0
		c0.5,0,0.8,0.4,0.8,0.9c0,0.5-0.4,0.8-0.9,0.8c0,0,0,0,0,0c-6-0.1-7,2.3-8.5,5.8c-0.4,1-0.9,2-1.5,3.1c-2,3.6-6.3,4.3-6.5,4.3h0
		L0.8,40.4C0.9,40.4,0.9,40.4,0.8,40.4z"/>
	
		<linearGradient id="SVGID_00000047782686623684803290000011334365832107899565_" gradientUnits="userSpaceOnUse" x1="-167.2542" y1="1077.4606" x2="-166.9177" y2="1072.0135" gradientTransform="matrix(1 0 0 -1 219 1096.6686)">
		<stop  offset="0" style="stop-color:#B4B4B4"/>
		<stop  offset="0.2058" style="stop-color:#989898"/>
		<stop  offset="0.5521" style="stop-color:#737374"/>
		<stop  offset="0.829" style="stop-color:#5B5B5B"/>
		<stop  offset="1" style="stop-color:#525252"/>
	</linearGradient>
	<path fill="url(#SVGID_00000047782686623684803290000011334365832107899565_)" d="M55,23.2L49.2,24l-0.3-2.2l5.8-0.8L55,23.2z"/>
	
		<linearGradient id="SVGID_00000001652765665534020060000003434458247454938255_" gradientUnits="userSpaceOnUse" x1="-194.3132" y1="1076.3958" x2="-194.3116" y2="1064.801" gradientTransform="matrix(1 0 0 -1 219 1096.6686)">
		<stop  offset="0" style="stop-color:#F9A86B"/>
		<stop  offset="9.132750e-02" style="stop-color:#F9A262"/>
		<stop  offset="0.2409" style="stop-color:#F7914B"/>
		<stop  offset="0.429" style="stop-color:#F47624"/>
		<stop  offset="0.5512" style="stop-color:#F26322"/>
		<stop  offset="0.844" style="stop-color:#E65825"/>
		<stop  offset="1" style="stop-color:#DB5026"/>
	</linearGradient>
	<path fill="url(#SVGID_00000001652765665534020060000003434458247454938255_)" d="M41.2,23.7l0.3-1.1H7.9l0.6,1.3
		c0.2,0.4,0.6,0.7,1.1,0.7H40C40.6,24.5,41,24.2,41.2,23.7z"/>
	
		<linearGradient id="SVGID_00000013873524818682416320000006659596934292669087_" gradientUnits="userSpaceOnUse" x1="-198.6426" y1="1091.4738" x2="-198.5513" y2="1087.371" gradientTransform="matrix(1 0 0 -1 219 1096.6686)">
		<stop  offset="0" style="stop-color:#F26722"/>
		<stop  offset="0.2673" style="stop-color:#F26322"/>
		<stop  offset="0.7453" style="stop-color:#E65825"/>
		<stop  offset="1" style="stop-color:#DB5026"/>
	</linearGradient>
	<path fill="url(#SVGID_00000013873524818682416320000006659596934292669087_)" d="M21.6,7.7l-1.2-1.6l-1.2,1.6L18,6.1v3.4
		c0,1.3,1.1,2.3,2.4,2.3c1.3,0,2.4-1.1,2.4-2.3V6.1L21.6,7.7z"/>
	
		<linearGradient id="SVGID_00000159443403265562498880000001779621272348565160_" gradientUnits="userSpaceOnUse" x1="-198.1745" y1="1088.0165" x2="-196.1688" y2="1086.609" gradientTransform="matrix(1 0 0 -1 219 1096.6686)">
		<stop  offset="0" style="stop-color:#F26722"/>
		<stop  offset="0.2673" style="stop-color:#F26322"/>
		<stop  offset="0.7453" style="stop-color:#E65825"/>
		<stop  offset="1" style="stop-color:#DB5026"/>
	</linearGradient>
	<path fill="url(#SVGID_00000159443403265562498880000001779621272348565160_)" d="M22.9,9.5c0,1.3-1.1,2.3-2.4,2.3
		c-0.4,0-0.7-0.1-1-0.2c0.2-0.6,0.5-1.2,0.9-1.8c0.7-1.1,1.4-2.1,1.4-2.1l1.2-1.6L22.9,9.5L22.9,9.5z"/>
	
		<linearGradient id="SVGID_00000031903407580181091080000015229306510177817519_" gradientUnits="userSpaceOnUse" x1="-197.9953" y1="1089.9874" x2="-201.7166" y2="1083.6298" gradientTransform="matrix(1 0 0 -1 219 1096.6686)">
		<stop  offset="0" style="stop-color:#F9A86B"/>
		<stop  offset="9.132750e-02" style="stop-color:#F9A262"/>
		<stop  offset="0.2409" style="stop-color:#F7914B"/>
		<stop  offset="0.429" style="stop-color:#F47624"/>
		<stop  offset="0.5512" style="stop-color:#F26322"/>
		<stop  offset="0.844" style="stop-color:#E65825"/>
		<stop  offset="1" style="stop-color:#DB5026"/>
	</linearGradient>
	<path fill="url(#SVGID_00000031903407580181091080000015229306510177817519_)" d="M18,9.5c0,1.3,1.1,2.3,2.4,2.3
		c0.4,0,0.7-0.1,1-0.2c-0.2-0.6-0.5-1.2-0.9-1.8c-0.7-1.1-1.4-2.1-1.4-2.1L18,6.1V9.5z"/>
</g>
</svg>
