<?xml version="1.0" encoding="utf-8"?>
<!-- Generator: Adobe Illustrator 28.3.0, SVG Export Plug-In . SVG Version: 6.00 Build 0)  -->
<svg version="1.1" id="Layer_1" xmlns="http://www.w3.org/2000/svg" xmlns:xlink="http://www.w3.org/1999/xlink" x="0px" y="0px"
	 viewBox="0 0 45 62.2" enable-background="new 0 0 45 62.2" xml:space="preserve">
<g>
	
		<linearGradient id="SVGID_1_" gradientUnits="userSpaceOnUse" x1="-233.5887" y1="1111.1433" x2="-170.12" y2="1062.7759" gradientTransform="matrix(1 0 0 -1 219 1113.9768)">
		<stop  offset="0" style="stop-color:#B4B4B4"/>
		<stop  offset="0.2058" style="stop-color:#989898"/>
		<stop  offset="0.5521" style="stop-color:#737374"/>
		<stop  offset="0.829" style="stop-color:#5B5B5B"/>
		<stop  offset="1" style="stop-color:#525252"/>
	</linearGradient>
	<rect fill="url(#SVGID_1_)" width="45" height="62.2"/>
	
		<linearGradient id="SVGID_00000094588428920116892230000016584424525516096919_" gradientUnits="userSpaceOnUse" x1="-207.9442" y1="1097.0853" x2="-188.3573" y2="1068.5562" gradientTransform="matrix(1 0 0 -1 219 1113.9768)">
		<stop  offset="0" style="stop-color:#FFFFFF"/>
		<stop  offset="0.2913" style="stop-color:#F3F3F3"/>
		<stop  offset="0.81" style="stop-color:#D6D5D5"/>
		<stop  offset="1" style="stop-color:#C8C8C8"/>
	</linearGradient>
	<ellipse fill="url(#SVGID_00000094588428920116892230000016584424525516096919_)" cx="22.5" cy="33.6" rx="15.8" ry="15.8"/>
	
		<linearGradient id="SVGID_00000178170863373934025700000004913090021608395397_" gradientUnits="userSpaceOnUse" x1="-186.6943" y1="1060.6143" x2="-201.4295" y2="1090.3708" gradientTransform="matrix(1 0 0 -1 219 1113.9768)">
		<stop  offset="0" style="stop-color:#525252"/>
		<stop  offset="0.5632" style="stop-color:#3D3D3D"/>
		<stop  offset="1" style="stop-color:#282828"/>
	</linearGradient>
	<ellipse fill="url(#SVGID_00000178170863373934025700000004913090021608395397_)" cx="22.5" cy="33.6" rx="11.8" ry="11.8"/>
	
		<linearGradient id="SVGID_00000023980650727798469420000006030093035702019222_" gradientUnits="userSpaceOnUse" x1="-207.9442" y1="1097.0853" x2="-188.3573" y2="1068.556" gradientTransform="matrix(1 0 0 -1 219 1113.9768)">
		<stop  offset="0" style="stop-color:#FFFFFF"/>
		<stop  offset="0.2913" style="stop-color:#F3F3F3"/>
		<stop  offset="0.81" style="stop-color:#D6D5D5"/>
		<stop  offset="1" style="stop-color:#C8C8C8"/>
	</linearGradient>
	<path fill-rule="evenodd" clip-rule="evenodd" fill="url(#SVGID_00000023980650727798469420000006030093035702019222_)" d="
		M6.7,33.6c0-8.7,7.1-15.8,15.8-15.8s15.8,7.1,15.8,15.8s-7.1,15.8-15.8,15.8S6.7,42.3,6.7,33.6z M10.7,33.6
		c0,6.5,5.3,11.8,11.8,11.8c6.5,0,11.8-5.3,11.8-11.8c0-6.5-5.3-11.8-11.8-11.8C16,21.8,10.7,27,10.7,33.6z"/>
	
		<linearGradient id="SVGID_00000029038589566514413090000004196851121642003109_" gradientUnits="userSpaceOnUse" x1="-180.0531" y1="1078.3109" x2="-185.9086" y2="1081.7902" gradientTransform="matrix(1 0 0 -1 219 1113.9768)">
		<stop  offset="0" style="stop-color:#FFFFFF"/>
		<stop  offset="0.2913" style="stop-color:#F3F3F3"/>
		<stop  offset="0.81" style="stop-color:#D6D5D5"/>
		<stop  offset="1" style="stop-color:#C8C8C8"/>
	</linearGradient>
	<path fill="url(#SVGID_00000029038589566514413090000004196851121642003109_)" d="M33.3,28.8c0.6,1.5,1,3.1,1,4.8
		c0,1.7-0.4,3.3-1,4.8c0.7,0.1,1.3,0.2,2,0.2c0.8,0,1.5-0.1,2.2-0.2c0.5-1.5,0.7-3.1,0.7-4.7c0-1.7-0.3-3.2-0.7-4.7
		c-0.7-0.1-1.5-0.2-2.2-0.2C34.6,28.6,34,28.7,33.3,28.8z"/>
	
		<linearGradient id="SVGID_00000114761205339490548950000014537281507277016487_" gradientUnits="userSpaceOnUse" x1="-192.7487" y1="1087.5048" x2="-199.3953" y2="1075.9829" gradientTransform="matrix(1 0 0 -1 219 1113.9768)">
		<stop  offset="5.328530e-03" style="stop-color:#FFFFFF"/>
		<stop  offset="1" style="stop-color:#FFFFFF;stop-opacity:1.000000e-02"/>
	</linearGradient>
	<path opacity="0.15" fill="url(#SVGID_00000114761205339490548950000014537281507277016487_)" enable-background="new    " d="
		M30.9,27.5c-0.8-1.1-1.8-2-2.9-2.8L13.7,39.1c0.7,1.1,1.7,2.1,2.8,2.9L30.9,27.5z"/>
	
		<linearGradient id="SVGID_00000079453852401102362040000007071564999238564522_" gradientUnits="userSpaceOnUse" x1="-196.7317" y1="1091.8495" x2="-206.7168" y2="1074.5897" gradientTransform="matrix(1 0 0 -1 219 1113.9768)">
		<stop  offset="5.328530e-03" style="stop-color:#FFFFFF"/>
		<stop  offset="1" style="stop-color:#FFFFFF;stop-opacity:1.000000e-02"/>
	</linearGradient>
	<path opacity="0.15" fill="url(#SVGID_00000079453852401102362040000007071564999238564522_)" enable-background="new    " d="
		M22.5,23.2c-5.7,0-10.4,4.7-10.4,10.4c0,1.4,0.3,2.7,0.8,3.9l13.5-13.5C25.2,23.4,23.9,23.2,22.5,23.2z"/>
	
		<linearGradient id="SVGID_00000098923510463563026890000001634734238175062691_" gradientUnits="userSpaceOnUse" x1="-196.5" y1="1069.9279" x2="-196.5" y2="1106.1576" gradientTransform="matrix(1 0 0 -1 219 1113.9768)">
		<stop  offset="0" style="stop-color:#FFFFFF"/>
		<stop  offset="0.2913" style="stop-color:#F3F3F3"/>
		<stop  offset="0.81" style="stop-color:#D6D5D5"/>
		<stop  offset="1" style="stop-color:#C8C8C8"/>
	</linearGradient>
	<rect fill="url(#SVGID_00000098923510463563026890000001634734238175062691_)" width="45" height="11.7"/>
	
		<linearGradient id="SVGID_00000045577261221356278690000000846623553636641184_" gradientUnits="userSpaceOnUse" x1="-196.7588" y1="1124.4905" x2="-196.2161" y2="1092.6194" gradientTransform="matrix(1 0 0 -1 219 1113.9768)">
		<stop  offset="0" style="stop-color:#FFFFFF"/>
		<stop  offset="0.2913" style="stop-color:#F3F3F3"/>
		<stop  offset="0.81" style="stop-color:#D6D5D5"/>
		<stop  offset="1" style="stop-color:#C8C8C8"/>
	</linearGradient>
	<rect fill="url(#SVGID_00000045577261221356278690000000846623553636641184_)" width="45" height="9.4"/>
	
		<linearGradient id="SVGID_00000035494795150263043040000008797838181249855910_" gradientUnits="userSpaceOnUse" x1="-187.7693" y1="1111.9885" x2="-187.6422" y2="1105.5726" gradientTransform="matrix(1 0 0 -1 219 1113.9768)">
		<stop  offset="6.810900e-03" style="stop-color:#5690CC"/>
		<stop  offset="0.1653" style="stop-color:#6FA3D8"/>
		<stop  offset="0.4449" style="stop-color:#9CC3E8"/>
		<stop  offset="0.5848" style="stop-color:#ADCDEC"/>
		<stop  offset="0.8163" style="stop-color:#BDDAF2"/>
		<stop  offset="1" style="stop-color:#C3DFF4"/>
	</linearGradient>
	<rect x="27.4" y="2.6" fill="url(#SVGID_00000035494795150263043040000008797838181249855910_)" width="7.8" height="2.6"/>
	
		<linearGradient id="SVGID_00000048466764945058376610000011391608772037153672_" gradientUnits="userSpaceOnUse" x1="-195.6093" y1="1112.1946" x2="-197.2749" y2="1106.7563" gradientTransform="matrix(1 0 0 -1 219 1113.9768)">
		<stop  offset="0" style="stop-color:#FFFFFF"/>
		<stop  offset="0.2913" style="stop-color:#F3F3F3"/>
		<stop  offset="0.81" style="stop-color:#D6D5D5"/>
		<stop  offset="1" style="stop-color:#C8C8C8"/>
	</linearGradient>
	<ellipse fill="url(#SVGID_00000048466764945058376610000011391608772037153672_)" cx="22.5" cy="4.7" rx="2.3" ry="2.3"/>
	
		<linearGradient id="SVGID_00000160898055975117567540000006098668008490943412_" gradientUnits="userSpaceOnUse" x1="-194.7326" y1="1107.575" x2="-195.833" y2="1108.6123" gradientTransform="matrix(1 0 0 -1 219 1113.9768)">
		<stop  offset="0" style="stop-color:#B4B4B4"/>
		<stop  offset="1" style="stop-color:#8B8A8A"/>
	</linearGradient>
	<path fill="url(#SVGID_00000160898055975117567540000006098668008490943412_)" d="M24.8,4.4c-0.6,0.2-1.2,0.5-1.6,1s-0.8,1-1,1.6
		c0.7,0.1,1.4-0.1,1.9-0.7C24.7,5.8,24.9,5.1,24.8,4.4z"/>
	
		<linearGradient id="SVGID_00000021819115882034103880000013415085030798417291_" gradientUnits="userSpaceOnUse" x1="-199.8427" y1="1112.6411" x2="-197.3515" y2="1110.1493" gradientTransform="matrix(1 0 0 -1 219 1113.9768)">
		<stop  offset="0" style="stop-color:#B4B4B4"/>
		<stop  offset="1" style="stop-color:#8B8A8A"/>
	</linearGradient>
	<path fill="url(#SVGID_00000021819115882034103880000013415085030798417291_)" d="M20.9,3c-0.5,0.5-0.7,1.2-0.7,1.9
		c0.6-0.2,1.1-0.5,1.6-1c0.5-0.5,0.8-1,1-1.6C22.1,2.3,21.4,2.5,20.9,3z"/>
	
		<linearGradient id="SVGID_00000183936084270853099350000008566745529237346448_" gradientUnits="userSpaceOnUse" x1="-195.1181" y1="1110.9308" x2="-196.4411" y2="1108.8948" gradientTransform="matrix(1 0 0 -1 219 1113.9768)">
		<stop  offset="0" style="stop-color:#F26722"/>
		<stop  offset="0.3678" style="stop-color:#F26122"/>
		<stop  offset="0.9685" style="stop-color:#DB5026"/>
		<stop  offset="1" style="stop-color:#DB5026"/>
	</linearGradient>
	<path fill="url(#SVGID_00000183936084270853099350000008566745529237346448_)" d="M22.8,4.4c-0.1-0.1-0.1-0.2,0-0.2l0.9-0.9
		c0.1-0.1,0.2-0.1,0.2,0C24,3.3,24,3.4,24,3.5l-0.9,0.9C23,4.4,22.9,4.4,22.8,4.4z"/>
	
		<linearGradient id="SVGID_00000023992513728847205470000017450157819674862740_" gradientUnits="userSpaceOnUse" x1="-205.0914" y1="1109.8826" x2="-203.0171" y2="1105.0413" gradientTransform="matrix(1 0 0 -1 219 1113.9768)">
		<stop  offset="0" style="stop-color:#F26722"/>
		<stop  offset="0.3678" style="stop-color:#F26122"/>
		<stop  offset="0.9685" style="stop-color:#DB5026"/>
		<stop  offset="1" style="stop-color:#DB5026"/>
	</linearGradient>
	<ellipse fill="url(#SVGID_00000023992513728847205470000017450157819674862740_)" cx="14.2" cy="4.8" rx="0.7" ry="0.7"/>
	
		<linearGradient id="SVGID_00000123425488713871832650000013402055634357688750_" gradientUnits="userSpaceOnUse" x1="-202.3467" y1="1109.8835" x2="-200.2724" y2="1105.0421" gradientTransform="matrix(1 0 0 -1 219 1113.9768)">
		<stop  offset="6.810900e-03" style="stop-color:#5690CC"/>
		<stop  offset="0.1653" style="stop-color:#6FA3D8"/>
		<stop  offset="0.4449" style="stop-color:#9CC3E8"/>
		<stop  offset="0.5848" style="stop-color:#ADCDEC"/>
		<stop  offset="0.8163" style="stop-color:#BDDAF2"/>
		<stop  offset="1" style="stop-color:#C3DFF4"/>
	</linearGradient>
	<ellipse fill="url(#SVGID_00000123425488713871832650000013402055634357688750_)" cx="16.9" cy="4.8" rx="0.7" ry="0.7"/>
	
		<linearGradient id="SVGID_00000016061325708270883150000006700777221911962501_" gradientUnits="userSpaceOnUse" x1="-181.4414" y1="1111.26" x2="-179.3671" y2="1106.4186" gradientTransform="matrix(1 0 0 -1 219 1113.9768)">
		<stop  offset="0" style="stop-color:#FFFFFF"/>
		<stop  offset="0.2913" style="stop-color:#F3F3F3"/>
		<stop  offset="0.81" style="stop-color:#D6D5D5"/>
		<stop  offset="1" style="stop-color:#C8C8C8"/>
	</linearGradient>
	<ellipse fill="url(#SVGID_00000016061325708270883150000006700777221911962501_)" cx="37.8" cy="3.4" rx="0.7" ry="0.7"/>
	
		<linearGradient id="SVGID_00000070800769978980176500000018368730503889817742_" gradientUnits="userSpaceOnUse" x1="-179.4166" y1="1111.2615" x2="-177.3423" y2="1106.42" gradientTransform="matrix(1 0 0 -1 219 1113.9768)">
		<stop  offset="0" style="stop-color:#FFFFFF"/>
		<stop  offset="0.2913" style="stop-color:#F3F3F3"/>
		<stop  offset="0.81" style="stop-color:#D6D5D5"/>
		<stop  offset="1" style="stop-color:#C8C8C8"/>
	</linearGradient>
	<ellipse fill="url(#SVGID_00000070800769978980176500000018368730503889817742_)" cx="39.9" cy="3.4" rx="0.7" ry="0.7"/>
	
		<linearGradient id="SVGID_00000116940433362385322460000007477313071385143685_" gradientUnits="userSpaceOnUse" x1="-177.4039" y1="1111.2637" x2="-175.3296" y2="1106.4222" gradientTransform="matrix(1 0 0 -1 219 1113.9768)">
		<stop  offset="0" style="stop-color:#FFFFFF"/>
		<stop  offset="0.2913" style="stop-color:#F3F3F3"/>
		<stop  offset="0.81" style="stop-color:#D6D5D5"/>
		<stop  offset="1" style="stop-color:#C8C8C8"/>
	</linearGradient>
	<ellipse fill="url(#SVGID_00000116940433362385322460000007477313071385143685_)" cx="41.9" cy="3.4" rx="0.7" ry="0.7"/>
	
		<linearGradient id="SVGID_00000111905525638836461210000007920455128389080197_" gradientUnits="userSpaceOnUse" x1="-181.4446" y1="1109.2206" x2="-179.3703" y2="1104.3792" gradientTransform="matrix(1 0 0 -1 219 1113.9768)">
		<stop  offset="0" style="stop-color:#FFFFFF"/>
		<stop  offset="0.2913" style="stop-color:#F3F3F3"/>
		<stop  offset="0.81" style="stop-color:#D6D5D5"/>
		<stop  offset="1" style="stop-color:#C8C8C8"/>
	</linearGradient>
	<ellipse fill="url(#SVGID_00000111905525638836461210000007920455128389080197_)" cx="37.8" cy="5.4" rx="0.7" ry="0.7"/>
	
		<linearGradient id="SVGID_00000105423745661694583450000011761037377520205480_" gradientUnits="userSpaceOnUse" x1="-179.4199" y1="1109.222" x2="-177.3456" y2="1104.3806" gradientTransform="matrix(1 0 0 -1 219 1113.9768)">
		<stop  offset="0" style="stop-color:#FFFFFF"/>
		<stop  offset="0.2913" style="stop-color:#F3F3F3"/>
		<stop  offset="0.81" style="stop-color:#D6D5D5"/>
		<stop  offset="1" style="stop-color:#C8C8C8"/>
	</linearGradient>
	<ellipse fill="url(#SVGID_00000105423745661694583450000011761037377520205480_)" cx="39.9" cy="5.4" rx="0.7" ry="0.7"/>
	
		<linearGradient id="SVGID_00000128462828433983831180000012819885084135615642_" gradientUnits="userSpaceOnUse" x1="-177.4071" y1="1109.2242" x2="-175.3328" y2="1104.3827" gradientTransform="matrix(1 0 0 -1 219 1113.9768)">
		<stop  offset="0" style="stop-color:#FFFFFF"/>
		<stop  offset="0.2913" style="stop-color:#F3F3F3"/>
		<stop  offset="0.81" style="stop-color:#D6D5D5"/>
		<stop  offset="1" style="stop-color:#C8C8C8"/>
	</linearGradient>
	<ellipse fill="url(#SVGID_00000128462828433983831180000012819885084135615642_)" cx="41.9" cy="5.4" rx="0.7" ry="0.7"/>
	
		<linearGradient id="SVGID_00000115499904989416492650000006225520259137047169_" gradientUnits="userSpaceOnUse" x1="-212.5567" y1="1112.3552" x2="-208.4246" y2="1087.5049" gradientTransform="matrix(1 0 0 -1 219 1113.9768)">
		<stop  offset="0" style="stop-color:#B4B4B4"/>
		<stop  offset="0.2058" style="stop-color:#989898"/>
		<stop  offset="0.5521" style="stop-color:#737374"/>
		<stop  offset="0.829" style="stop-color:#5B5B5B"/>
		<stop  offset="1" style="stop-color:#525252"/>
	</linearGradient>
	<path fill="url(#SVGID_00000115499904989416492650000006225520259137047169_)" d="M10,7.7H4c-0.7,0-1.2-0.5-1.2-1.2V3.7
		C2.9,3,3.4,2.5,4,2.5h6c0.7,0,1.2,0.5,1.2,1.2v2.8C11.2,7.2,10.7,7.7,10,7.7z"/>
	
		<linearGradient id="SVGID_00000149352038417680351900000013272425241825475477_" gradientUnits="userSpaceOnUse" x1="-211.9764" y1="1105.2648" x2="-211.9804" y2="1107.6757" gradientTransform="matrix(1 0 0 -1 219 1113.9768)">
		<stop  offset="0" style="stop-color:#525252"/>
		<stop  offset="0.5632" style="stop-color:#3D3D3D"/>
		<stop  offset="1" style="stop-color:#282828"/>
	</linearGradient>
	<path fill="url(#SVGID_00000149352038417680351900000013272425241825475477_)" d="M2.9,6.5c0,0.7,0.5,1.2,1.2,1.2h6
		c0.7,0,1.2-0.5,1.2-1.2H2.9L2.9,6.5z"/>
	
		<linearGradient id="SVGID_00000000938642512639796060000012971770101578761106_" gradientUnits="userSpaceOnUse" x1="-196.5" y1="1046.9176" x2="-196.5" y2="1056.2004" gradientTransform="matrix(1 0 0 -1 219 1113.9768)">
		<stop  offset="0" style="stop-color:#525252"/>
		<stop  offset="0.5632" style="stop-color:#3D3D3D"/>
		<stop  offset="1" style="stop-color:#282828"/>
	</linearGradient>
	<path fill="url(#SVGID_00000000938642512639796060000012971770101578761106_)" d="M0,57.6h45v4.6H0V57.6z"/>
	
		<linearGradient id="SVGID_00000038390379222753395150000007003731672555597456_" gradientUnits="userSpaceOnUse" x1="-212.312" y1="1052.8348" x2="-212.312" y2="1054.6859" gradientTransform="matrix(1 0 0 -1 219 1113.9768)">
		<stop  offset="0" style="stop-color:#B4B4B4"/>
		<stop  offset="0.2058" style="stop-color:#989898"/>
		<stop  offset="0.5521" style="stop-color:#737374"/>
		<stop  offset="0.829" style="stop-color:#5B5B5B"/>
		<stop  offset="1" style="stop-color:#525252"/>
	</linearGradient>
	<path fill="url(#SVGID_00000038390379222753395150000007003731672555597456_)" d="M4,59.3h5.4v1.1H4V59.3z"/>
</g>
</svg>
