<?xml version="1.0" encoding="utf-8"?>
<!-- Generator: Adobe Illustrator 28.3.0, SVG Export Plug-In . SVG Version: 6.00 Build 0)  -->
<svg version="1.1" id="Vrstva_1" xmlns="http://www.w3.org/2000/svg" xmlns:xlink="http://www.w3.org/1999/xlink" x="0px" y="0px"
	 viewBox="0 0 192 192" style="enable-background:new 0 0 192 192;" xml:space="preserve">
<style type="text/css">
	.st0{enable-background:new    ;}
	.st1{fill:#EC671B;}
</style>
<g class="st0">
	<path class="st1" d="M128.7,134.8h15.8c-4.9,10-12.5,17.9-22.8,23.6c-11.7,6.5-26,9.8-42.9,9.8c-16.3,0-30.4-2.8-42.3-8.3
		c-11.9-5.5-20.7-13.7-26.5-24.4S1.3,113,1.3,100.3c0-13.9,3.3-26.9,9.9-38.9c6.6-12,15.6-21,27-27s24.5-9,39.2-9
		c12.5,0,23.6,2.4,33.2,7.3c9.7,4.8,17.1,11.7,22.2,20.7c5.1,8.9,7.7,18.7,7.7,29.3c0,12.6-3.9,24-11.7,34.2
		c-9.7,12.9-22.2,19.3-37.5,19.3c-4.1,0-7.2-0.7-9.3-2.2c-2.1-1.4-3.5-3.5-4.2-6.3c-5.8,5.6-12.6,8.5-20.2,8.5
		c-8.2,0-15-2.8-20.4-8.5c-5.4-5.7-8.1-13.2-8.1-22.6c0-11.6,3.3-22.2,9.8-31.8C47,61.6,57.1,55.7,69.5,55.7
		c8.8,0,15.3,3.4,19.5,10.1l1.9-8.2h19.6l-11.2,53.2c-0.7,3.4-1,5.5-1,6.5c0,1.2,0.3,2.2,0.9,2.8c0.6,0.6,1.2,0.9,2,0.9
		c2.4,0,5.4-1.4,9.2-4.3c5-3.8,9.1-8.8,12.2-15.1c3.1-6.3,4.7-12.9,4.7-19.7c0-12.2-4.4-22.4-13.2-30.5
		c-8.8-8.2-21.1-12.3-36.9-12.3c-13.4,0-24.8,2.7-34.1,8.2c-9.3,5.5-16.4,13.2-21.1,23.1c-4.7,9.9-7.1,20.2-7.1,31
		c0,10.4,2.6,19.9,7.9,28.5s12.7,14.8,22.2,18.7c9.5,3.9,20.4,5.9,32.7,5.9c11.8,0,22-1.6,30.5-4.9
		C116.6,146.3,123.5,141.4,128.7,134.8z M48.5,104.3c0,6.3,1.3,10.9,3.8,13.9c2.5,3,5.7,4.5,9.5,4.5c2.8,0,5.5-0.7,7.9-2.1
		c1.9-1,3.7-2.5,5.6-4.7c2.6-3,4.9-7.4,6.8-13.2c1.9-5.8,2.9-11.2,2.9-16.2c0-5.6-1.3-9.9-3.9-12.9c-2.6-3-5.9-4.5-9.8-4.5
		c-4.3,0-8.2,1.6-11.8,4.9c-3.6,3.3-6.3,8-8.2,14.1C49.4,94.2,48.5,99.6,48.5,104.3z"/>
	<path class="st1" d="M190.5,168.2h-14.3c-7.6-11.4-13.3-23.3-17.3-35.6c-4-12.3-5.9-24.2-5.9-35.8c0-14.3,2.4-27.8,7.3-40.6
		c4.3-11.1,9.6-21.3,16.2-30.7h14.2c-6.8,15-11.4,27.7-14,38.3c-2.5,10.5-3.8,21.7-3.8,33.4c0,8.1,0.8,16.4,2.3,24.9
		c1.5,8.5,3.6,16.6,6.2,24.3C183.1,151.5,186.2,158.7,190.5,168.2z"/>
</g>
</svg>
