<?xml version="1.0" encoding="utf-8"?>
<!-- Generator: Adobe Illustrator 28.3.0, SVG Export Plug-In . SVG Version: 6.00 Build 0)  -->
<svg version="1.1" id="Layer_1" xmlns="http://www.w3.org/2000/svg" xmlns:xlink="http://www.w3.org/1999/xlink" x="0px" y="0px"
	 viewBox="0 0 55 39" enable-background="new 0 0 55 39" xml:space="preserve">
<g>
	
		<linearGradient id="SVGID_1_" gradientUnits="userSpaceOnUse" x1="-191.5104" y1="1092.6848" x2="-191.4908" y2="1079.6663" gradientTransform="matrix(1 0 0 -1 219 1090.7815)">
		<stop  offset="0" style="stop-color:#C8C8C8"/>
		<stop  offset="0.379" style="stop-color:#C8C8C8"/>
		<stop  offset="0.4896" style="stop-color:#C3C3C3"/>
		<stop  offset="0.629" style="stop-color:#B4B4B4"/>
		<stop  offset="0.7837" style="stop-color:#9B9A99"/>
		<stop  offset="0.9485" style="stop-color:#787877"/>
		<stop  offset="1" style="stop-color:#6C6B6A"/>
	</linearGradient>
	<path fill="url(#SVGID_1_)" d="M39.3,1H27.5H15.7L12,5h15.5H43L39.3,1z"/>
	
		<linearGradient id="SVGID_00000049938420978601423520000015459792383731214727_" gradientUnits="userSpaceOnUse" x1="-192.9167" y1="1086.0369" x2="-191.5145" y2="1068.9585" gradientTransform="matrix(1 0 0 -1 219 1090.7815)">
		<stop  offset="0" style="stop-color:#B4B4B4"/>
		<stop  offset="0.2058" style="stop-color:#989898"/>
		<stop  offset="0.5521" style="stop-color:#737374"/>
		<stop  offset="0.829" style="stop-color:#5B5B5B"/>
		<stop  offset="1" style="stop-color:#525252"/>
	</linearGradient>
	<path fill="url(#SVGID_00000049938420978601423520000015459792383731214727_)" d="M0,32.2V11.8C0,8,3.1,5,6.9,5h41.3
		c3.8,0,6.9,3,6.9,6.8v20.4c0,3.8-3.1,6.8-6.9,6.8H6.9C3.1,39,0,35.9,0,32.2z"/>
	
		<linearGradient id="SVGID_00000127729793536235489000000010597085750287742874_" gradientUnits="userSpaceOnUse" x1="-191.5" y1="1077.4713" x2="-191.5" y2="1059.8635" gradientTransform="matrix(1 0 0 -1 219 1090.7815)">
		<stop  offset="0" style="stop-color:#333333"/>
		<stop  offset="0.2975" style="stop-color:#454545"/>
		<stop  offset="0.5214" style="stop-color:#4C4C4C"/>
		<stop  offset="0.8136" style="stop-color:#3F3F3F"/>
		<stop  offset="1" style="stop-color:#333333"/>
	</linearGradient>
	<path fill="url(#SVGID_00000127729793536235489000000010597085750287742874_)" d="M0,13h55v18H0V13z"/>
	<circle fill="#F26722" cx="6" cy="9" r="1"/>
	<path fill="#FFFFFF" d="M50,8.5C50,7.7,49.3,7,48.3,7h-4.5c0,0-0.1,0-0.1,0c-1,0-1.8,0.7-1.8,1.5s0.8,1.5,1.8,1.5c0,0,0.1,0,0.1,0
		h4.5C49.3,9.9,50,9.3,50,8.5z"/>
	
		<linearGradient id="SVGID_00000152263634010034936230000009032785170642243982_" gradientUnits="userSpaceOnUse" x1="-191.5295" y1="1071.7731" x2="-191.4662" y2="1044.5791" gradientTransform="matrix(1 0 0 -1 219 1090.7815)">
		<stop  offset="0" style="stop-color:#C8C8C8"/>
		<stop  offset="0.379" style="stop-color:#C8C8C8"/>
		<stop  offset="0.4896" style="stop-color:#C3C3C3"/>
		<stop  offset="0.629" style="stop-color:#B4B4B4"/>
		<stop  offset="0.7837" style="stop-color:#9B9A99"/>
		<stop  offset="0.9485" style="stop-color:#787877"/>
		<stop  offset="1" style="stop-color:#6C6B6A"/>
	</linearGradient>
	<path fill="url(#SVGID_00000152263634010034936230000009032785170642243982_)" d="M0,31v1.4C0,36,3.1,39,6.9,39h41.3
		c3.8,0,6.9-3,6.9-6.6V31H0z"/>
	
		<linearGradient id="SVGID_00000182504718224541489590000001558298808230400684_" gradientUnits="userSpaceOnUse" x1="-201.3032" y1="1079.0847" x2="-180.2874" y2="1058.069" gradientTransform="matrix(1 0 0 -1 219 1090.7815)">
		<stop  offset="0" style="stop-color:#B4B4B4"/>
		<stop  offset="0.2058" style="stop-color:#989898"/>
		<stop  offset="0.5521" style="stop-color:#737374"/>
		<stop  offset="0.829" style="stop-color:#5B5B5B"/>
		<stop  offset="1" style="stop-color:#525252"/>
	</linearGradient>
	<circle fill="url(#SVGID_00000182504718224541489590000001558298808230400684_)" cx="28" cy="22" r="15"/>
	
		<radialGradient id="SVGID_00000119801451050909202530000008186413998316986272_" cx="-580.0381" cy="524.3234" r="0.9999" gradientTransform="matrix(12.0008 0 0 -11.5008 6988.9219 6051.6377)" gradientUnits="userSpaceOnUse">
		<stop  offset="0.3112" style="stop-color:#B0B0B0"/>
		<stop  offset="0.4202" style="stop-color:#ACACAC"/>
		<stop  offset="0.5246" style="stop-color:#9F9F9F"/>
		<stop  offset="0.627" style="stop-color:#8C8C8C"/>
		<stop  offset="0.7284" style="stop-color:#727272"/>
		<stop  offset="0.8289" style="stop-color:#4F4F4F"/>
		<stop  offset="0.9275" style="stop-color:#242424"/>
		<stop  offset="1" style="stop-color:#010101"/>
	</radialGradient>
	<ellipse fill="url(#SVGID_00000119801451050909202530000008186413998316986272_)" cx="28" cy="21.5" rx="12" ry="11.5"/>
	
		<linearGradient id="SVGID_00000067934443282153761020000007606750525992408760_" gradientUnits="userSpaceOnUse" x1="-202.6265" y1="1080.4081" x2="-191.8159" y2="1069.5974" gradientTransform="matrix(1 0 0 -1 219 1090.7815)">
		<stop  offset="0" style="stop-color:#FFFFFF"/>
		<stop  offset="1" style="stop-color:#FFFFFF;stop-opacity:1.000000e-02"/>
	</linearGradient>
	
		<path opacity="0.5" fill-rule="evenodd" clip-rule="evenodd" fill="url(#SVGID_00000067934443282153761020000007606750525992408760_)" enable-background="new    " d="
		M13,22c0-8.3,6.7-15,15-15s15,6.7,15,15s-6.7,15-15,15S13,30.3,13,22z M13.6,22c0,8,6.5,14.4,14.4,14.4S42.4,30,42.4,22
		S36,7.6,28,7.6S13.6,14,13.6,22z"/>
	
		<linearGradient id="SVGID_00000168833431336268611880000001420752823535773373_" gradientUnits="userSpaceOnUse" x1="-197.2892" y1="1078.1266" x2="-185.397" y2="1061.4015" gradientTransform="matrix(1 0 0 -1 219 1090.7815)">
		<stop  offset="0" style="stop-color:#1E1E1E"/>
		<stop  offset="1" style="stop-color:#282828"/>
	</linearGradient>
	<ellipse fill="url(#SVGID_00000168833431336268611880000001420752823535773373_)" cx="28" cy="21.5" rx="10" ry="9.5"/>
	
		<linearGradient id="SVGID_00000158742789527559168660000007253587957383016359_" gradientUnits="userSpaceOnUse" x1="-183.3164" y1="1052.942" x2="-197.5944" y2="1080.5775" gradientTransform="matrix(1 0 0 -1 219 1090.7815)">
		<stop  offset="0" style="stop-color:#B0B0B0"/>
		<stop  offset="0.5054" style="stop-color:#525252"/>
		<stop  offset="1" style="stop-color:#353635"/>
	</linearGradient>
	<path fill-rule="evenodd" clip-rule="evenodd" fill="url(#SVGID_00000158742789527559168660000007253587957383016359_)" d="M40,22
		c0,6.6-5.6,12-12.5,12S15,28.6,15,22s5.6-12,12.5-12S40,15.4,40,22z M39.5,22c0-6.4-5.4-11.6-12-11.6s-12,5.2-12,11.6
		c0,6.4,5.4,11.6,12,11.6S39.5,28.4,39.5,22z"/>
	<circle fill="#77B0DF" cx="49" cy="9" r="1"/>
	<circle fill="#DBDADA" cx="11.5" cy="8.5" r="0.5"/>
	<rect x="18" fill="#6C6B6A" width="5" height="1"/>
	<path fill="#77B0DF" d="M25,0h2v1h-2V0z"/>
	<ellipse fill="#DBDADA" cx="49.2" cy="35" rx="0.7" ry="0.9"/>
	<ellipse fill="#DBDADA" cx="46.6" cy="35" rx="0.7" ry="0.9"/>
	<ellipse fill="#DBDADA" cx="43.8" cy="35" rx="0.7" ry="0.9"/>
	
		<linearGradient id="SVGID_00000078015539759839673170000001144004701767428530_" gradientUnits="userSpaceOnUse" x1="-191.6437" y1="1078.6215" x2="-198.0654" y2="1067.2051" gradientTransform="matrix(1 0 0 -1 219 1090.7815)">
		<stop  offset="5.328530e-03" style="stop-color:#FFFFFF"/>
		<stop  offset="1" style="stop-color:#FFFFFF;stop-opacity:1.000000e-02"/>
	</linearGradient>
	<path opacity="0.3" fill="url(#SVGID_00000078015539759839673170000001144004701767428530_)" enable-background="new    " d="
		M27.8,13.1c-4.8,0-8.8,3.9-8.8,8.8c0,1,0.2,2,0.5,3l11.2-11.2C29.8,13.3,28.8,13.1,27.8,13.1z"/>
	
		<linearGradient id="SVGID_00000096054788541460224320000003201129762930417297_" gradientUnits="userSpaceOnUse" x1="-188.3166" y1="1076.7501" x2="-194.7383" y2="1065.3336" gradientTransform="matrix(1 0 0 -1 219 1090.7815)">
		<stop  offset="5.328530e-03" style="stop-color:#FFFFFF"/>
		<stop  offset="1" style="stop-color:#FFFFFF;stop-opacity:1.000000e-02"/>
	</linearGradient>
	<path opacity="0.3" fill="url(#SVGID_00000096054788541460224320000003201129762930417297_)" enable-background="new    " d="
		M20,25.8c0.4,0.8,0.9,1.6,1.6,2.2l12.4-12.4c-0.6-0.6-1.4-1.2-2.2-1.6L20,25.8z"/>
</g>
</svg>
