<?xml version="1.0" encoding="utf-8"?>
<!-- Generator: Adobe Illustrator 28.3.0, SVG Export Plug-In . SVG Version: 6.00 Build 0)  -->
<svg version="1.1" id="Layer_1" xmlns="http://www.w3.org/2000/svg" xmlns:xlink="http://www.w3.org/1999/xlink" x="0px" y="0px"
	 viewBox="0 0 55.4 47.8" enable-background="new 0 0 55.4 47.8" xml:space="preserve">
<g>
	
		<linearGradient id="SVGID_1_" gradientUnits="userSpaceOnUse" x1="-203.7525" y1="1073.1416" x2="-199.6187" y2="1075.0739" gradientTransform="matrix(1 0 0 -1 219 1099.3518)">
		<stop  offset="0" style="stop-color:#B4B4B4"/>
		<stop  offset="0.2058" style="stop-color:#989898"/>
		<stop  offset="0.5521" style="stop-color:#737374"/>
		<stop  offset="0.829" style="stop-color:#5B5B5B"/>
		<stop  offset="1" style="stop-color:#525252"/>
	</linearGradient>
	<path fill="url(#SVGID_1_)" d="M15.5,21.1l5.3,7.3l-0.9,0.7l-5.3-7.3L15.5,21.1z"/>
	
		<linearGradient id="SVGID_00000173864459521305995320000013954277716927204014_" gradientUnits="userSpaceOnUse" x1="-178.6362" y1="1073.1462" x2="-182.7699" y2="1075.0784" gradientTransform="matrix(1 0 0 -1 219 1099.3518)">
		<stop  offset="0" style="stop-color:#B4B4B4"/>
		<stop  offset="0.2058" style="stop-color:#989898"/>
		<stop  offset="0.5521" style="stop-color:#737374"/>
		<stop  offset="0.829" style="stop-color:#5B5B5B"/>
		<stop  offset="1" style="stop-color:#525252"/>
	</linearGradient>
	<path fill="url(#SVGID_00000173864459521305995320000013954277716927204014_)" d="M40.1,21.1l-5.3,7.3l0.9,0.7l5.3-7.3L40.1,21.1z"
		/>
	
		<linearGradient id="SVGID_00000069396075742831730750000005747507983980304829_" gradientUnits="userSpaceOnUse" x1="-204.2937" y1="1088.0588" x2="-200.0388" y2="1078.2385" gradientTransform="matrix(1 0 0 -1 219 1099.3518)">
		<stop  offset="0" style="stop-color:#ADCDEC"/>
		<stop  offset="0.2565" style="stop-color:#A5C9EB"/>
		<stop  offset="0.6752" style="stop-color:#8DBCE5"/>
		<stop  offset="1" style="stop-color:#77B0DF"/>
	</linearGradient>
	<path fill="url(#SVGID_00000069396075742831730750000005747507983980304829_)" d="M13.2,14.5h8.5v6.4h-8.5V14.5z"/>
	
		<linearGradient id="SVGID_00000154409253875518238220000004175300358051852451_" gradientUnits="userSpaceOnUse" x1="-204.3127" y1="1087.2771" x2="-202.3698" y2="1082.3169" gradientTransform="matrix(1 0 0 -1 219 1099.3518)">
		<stop  offset="0" style="stop-color:#FFFFFF"/>
		<stop  offset="0.2913" style="stop-color:#F3F3F3"/>
		<stop  offset="0.81" style="stop-color:#D6D5D5"/>
		<stop  offset="1" style="stop-color:#C8C8C8"/>
	</linearGradient>
	<path fill="url(#SVGID_00000154409253875518238220000004175300358051852451_)" d="M15.6,14h0.2v1.7h-0.2V14z"/>
	
		<linearGradient id="SVGID_00000098184416108651674080000004130254684871367573_" gradientUnits="userSpaceOnUse" x1="-203.8134" y1="1083.438" x2="-201.4075" y2="1082.1" gradientTransform="matrix(1 0 0 -1 219 1099.3518)">
		<stop  offset="0" style="stop-color:#FFFFFF"/>
		<stop  offset="0.2913" style="stop-color:#F3F3F3"/>
		<stop  offset="0.81" style="stop-color:#D6D5D5"/>
		<stop  offset="1" style="stop-color:#C8C8C8"/>
	</linearGradient>
	<path fill="url(#SVGID_00000098184416108651674080000004130254684871367573_)" d="M15.8,17c-0.2,0-0.3-0.2-0.3-0.3v-0.9
		c0-0.2,0.2-0.3,0.3-0.3c0.2,0,0.3,0.2,0.3,0.3v0.9C16.1,16.9,16,17,15.8,17z"/>
	
		<linearGradient id="SVGID_00000180363680301590750850000016191609707367195324_" gradientUnits="userSpaceOnUse" x1="-202.0719" y1="1075.7281" x2="-204.0147" y2="1080.6885" gradientTransform="matrix(1 0 0 -1 219 1099.3518)">
		<stop  offset="0" style="stop-color:#FFFFFF"/>
		<stop  offset="0.2913" style="stop-color:#F3F3F3"/>
		<stop  offset="0.81" style="stop-color:#D6D5D5"/>
		<stop  offset="1" style="stop-color:#C8C8C8"/>
	</linearGradient>
	<path fill="url(#SVGID_00000180363680301590750850000016191609707367195324_)" d="M15.6,19.8h0.2v1.7h-0.2V19.8z"/>
	
		<linearGradient id="SVGID_00000119113766156734655970000018130642514290214583_" gradientUnits="userSpaceOnUse" x1="-202.3894" y1="1079.7046" x2="-204.7953" y2="1081.0426" gradientTransform="matrix(1 0 0 -1 219 1099.3518)">
		<stop  offset="0" style="stop-color:#FFFFFF"/>
		<stop  offset="0.2913" style="stop-color:#F3F3F3"/>
		<stop  offset="0.81" style="stop-color:#D6D5D5"/>
		<stop  offset="1" style="stop-color:#C8C8C8"/>
	</linearGradient>
	<path fill="url(#SVGID_00000119113766156734655970000018130642514290214583_)" d="M15.8,18.4c0.2,0,0.3,0.2,0.3,0.3v0.9
		c0,0.2-0.2,0.3-0.3,0.3c-0.2,0-0.3-0.2-0.3-0.3v-0.9C15.4,18.5,15.6,18.4,15.8,18.4z"/>
	
		<linearGradient id="SVGID_00000050657188792584683420000016349518004268360341_" gradientUnits="userSpaceOnUse" x1="-200.8798" y1="1087.2876" x2="-198.9369" y2="1082.3274" gradientTransform="matrix(1 0 0 -1 219 1099.3518)">
		<stop  offset="0" style="stop-color:#FFFFFF"/>
		<stop  offset="0.2913" style="stop-color:#F3F3F3"/>
		<stop  offset="0.81" style="stop-color:#D6D5D5"/>
		<stop  offset="1" style="stop-color:#C8C8C8"/>
	</linearGradient>
	<path fill="url(#SVGID_00000050657188792584683420000016349518004268360341_)" d="M19.1,14h0.2v1.7h-0.2V14z"/>
	
		<linearGradient id="SVGID_00000155136810809884078710000011093247954796015491_" gradientUnits="userSpaceOnUse" x1="-200.384" y1="1083.4343" x2="-197.978" y2="1082.0963" gradientTransform="matrix(1 0 0 -1 219 1099.3518)">
		<stop  offset="0" style="stop-color:#FFFFFF"/>
		<stop  offset="0.2913" style="stop-color:#F3F3F3"/>
		<stop  offset="0.81" style="stop-color:#D6D5D5"/>
		<stop  offset="1" style="stop-color:#C8C8C8"/>
	</linearGradient>
	<path fill="url(#SVGID_00000155136810809884078710000011093247954796015491_)" d="M19.2,17c-0.2,0-0.3-0.2-0.3-0.3v-0.9
		c0-0.2,0.2-0.3,0.3-0.3c0.2,0,0.3,0.2,0.3,0.3v0.9C19.5,16.9,19.4,17,19.2,17z"/>
	
		<linearGradient id="SVGID_00000166670197352244442150000013960540104582266512_" gradientUnits="userSpaceOnUse" x1="-198.639" y1="1075.7386" x2="-200.5818" y2="1080.699" gradientTransform="matrix(1 0 0 -1 219 1099.3518)">
		<stop  offset="0" style="stop-color:#FFFFFF"/>
		<stop  offset="0.2913" style="stop-color:#F3F3F3"/>
		<stop  offset="0.81" style="stop-color:#D6D5D5"/>
		<stop  offset="1" style="stop-color:#C8C8C8"/>
	</linearGradient>
	<path fill="url(#SVGID_00000166670197352244442150000013960540104582266512_)" d="M19.1,19.8h0.2v1.7h-0.2V19.8z"/>
	
		<linearGradient id="SVGID_00000003077526629080755730000012772018091683697806_" gradientUnits="userSpaceOnUse" x1="-198.9599" y1="1079.7009" x2="-201.3659" y2="1081.0388" gradientTransform="matrix(1 0 0 -1 219 1099.3518)">
		<stop  offset="0" style="stop-color:#FFFFFF"/>
		<stop  offset="0.2913" style="stop-color:#F3F3F3"/>
		<stop  offset="0.81" style="stop-color:#D6D5D5"/>
		<stop  offset="1" style="stop-color:#C8C8C8"/>
	</linearGradient>
	<path fill="url(#SVGID_00000003077526629080755730000012772018091683697806_)" d="M19.2,18.4c0.2,0,0.3,0.2,0.3,0.3v0.9
		c0,0.2-0.2,0.3-0.3,0.3c-0.2,0-0.3-0.2-0.3-0.3v-0.9C18.9,18.5,19,18.4,19.2,18.4z"/>
	
		<linearGradient id="SVGID_00000149352502915388355330000000394412096962101434_" gradientUnits="userSpaceOnUse" x1="-201.5121" y1="1088.079" x2="-201.5095" y2="1083.4336" gradientTransform="matrix(1 0 0 -1 219 1099.3518)">
		<stop  offset="0" style="stop-color:#FFFFFF"/>
		<stop  offset="0.2913" style="stop-color:#F3F3F3"/>
		<stop  offset="0.81" style="stop-color:#D6D5D5"/>
		<stop  offset="1" style="stop-color:#C8C8C8"/>
	</linearGradient>
	<path fill="url(#SVGID_00000149352502915388355330000000394412096962101434_)" d="M13,13.4h9v1.1h-9V13.4z"/>
	
		<linearGradient id="SVGID_00000064332521759666938990000014334429702664341659_" gradientUnits="userSpaceOnUse" x1="-201.5121" y1="1080.5518" x2="-201.5095" y2="1075.9064" gradientTransform="matrix(1 0 0 -1 219 1099.3518)">
		<stop  offset="0" style="stop-color:#FFFFFF"/>
		<stop  offset="0.2913" style="stop-color:#F3F3F3"/>
		<stop  offset="0.81" style="stop-color:#D6D5D5"/>
		<stop  offset="1" style="stop-color:#C8C8C8"/>
	</linearGradient>
	<path fill="url(#SVGID_00000064332521759666938990000014334429702664341659_)" d="M13,20.9h9V22h-9V20.9z"/>
	
		<linearGradient id="SVGID_00000182486642373562963750000009810666275823482274_" gradientUnits="userSpaceOnUse" x1="-186.5535" y1="1089.8335" x2="-182.6713" y2="1076.0184" gradientTransform="matrix(1 0 0 -1 219 1099.3518)">
		<stop  offset="0" style="stop-color:#ADCDEC"/>
		<stop  offset="0.2565" style="stop-color:#A5C9EB"/>
		<stop  offset="0.6752" style="stop-color:#8DBCE5"/>
		<stop  offset="1" style="stop-color:#77B0DF"/>
	</linearGradient>
	<path fill="url(#SVGID_00000182486642373562963750000009810666275823482274_)" d="M28.4,14.6h13.2v8H28.4V14.6z"/>
	
		<linearGradient id="SVGID_00000040543660115007754420000008512851283242231936_" gradientUnits="userSpaceOnUse" x1="-189.7806" y1="1087.6515" x2="-187.0048" y2="1081.8473" gradientTransform="matrix(1 0 0 -1 219 1099.3518)">
		<stop  offset="0" style="stop-color:#FFFFFF"/>
		<stop  offset="0.2913" style="stop-color:#F3F3F3"/>
		<stop  offset="0.81" style="stop-color:#D6D5D5"/>
		<stop  offset="1" style="stop-color:#C8C8C8"/>
	</linearGradient>
	<path fill="url(#SVGID_00000040543660115007754420000008512851283242231936_)" d="M30.6,13.9h0.3V16h-0.3V13.9z"/>
	
		<linearGradient id="SVGID_00000061458932958921574390000011965030858043154320_" gradientUnits="userSpaceOnUse" x1="-188.9473" y1="1082.9415" x2="-186.2722" y2="1081.7538" gradientTransform="matrix(1 0 0 -1 219 1099.3518)">
		<stop  offset="0" style="stop-color:#FFFFFF"/>
		<stop  offset="0.2913" style="stop-color:#F3F3F3"/>
		<stop  offset="0.81" style="stop-color:#D6D5D5"/>
		<stop  offset="1" style="stop-color:#C8C8C8"/>
	</linearGradient>
	<path fill="url(#SVGID_00000061458932958921574390000011965030858043154320_)" d="M30.8,17.7c-0.2,0-0.4-0.2-0.4-0.4v-1.2
		c0-0.2,0.2-0.4,0.4-0.4c0.2,0,0.4,0.2,0.4,0.4v1.2C31.2,17.5,31,17.7,30.8,17.7z"/>
	
		<linearGradient id="SVGID_00000005985151042682374050000009841948777511010725_" gradientUnits="userSpaceOnUse" x1="-186.5768" y1="1073.6814" x2="-189.3527" y2="1079.4854" gradientTransform="matrix(1 0 0 -1 219 1099.3518)">
		<stop  offset="0" style="stop-color:#FFFFFF"/>
		<stop  offset="0.2913" style="stop-color:#F3F3F3"/>
		<stop  offset="0.81" style="stop-color:#D6D5D5"/>
		<stop  offset="1" style="stop-color:#C8C8C8"/>
	</linearGradient>
	<path fill="url(#SVGID_00000005985151042682374050000009841948777511010725_)" d="M30.6,21.1h0.3v2.1h-0.3V21.1z"/>
	
		<linearGradient id="SVGID_00000050636573708178545470000010482017957068681110_" gradientUnits="userSpaceOnUse" x1="-187.3519" y1="1078.5909" x2="-190.028" y2="1079.7781" gradientTransform="matrix(1 0 0 -1 219 1099.3518)">
		<stop  offset="0" style="stop-color:#FFFFFF"/>
		<stop  offset="0.2913" style="stop-color:#F3F3F3"/>
		<stop  offset="0.81" style="stop-color:#D6D5D5"/>
		<stop  offset="1" style="stop-color:#C8C8C8"/>
	</linearGradient>
	<path fill="url(#SVGID_00000050636573708178545470000010482017957068681110_)" d="M30.8,19.4c0.2,0,0.4,0.2,0.4,0.4V21
		c0,0.2-0.2,0.4-0.4,0.4c-0.2,0-0.4-0.2-0.4-0.4v-1.2C30.4,19.6,30.5,19.4,30.8,19.4z"/>
	
		<linearGradient id="SVGID_00000062187698247812496970000004224660901938806455_" gradientUnits="userSpaceOnUse" x1="-185.4995" y1="1087.6527" x2="-182.7237" y2="1081.8486" gradientTransform="matrix(1 0 0 -1 219 1099.3518)">
		<stop  offset="0" style="stop-color:#FFFFFF"/>
		<stop  offset="0.2913" style="stop-color:#F3F3F3"/>
		<stop  offset="0.81" style="stop-color:#D6D5D5"/>
		<stop  offset="1" style="stop-color:#C8C8C8"/>
	</linearGradient>
	<path fill="url(#SVGID_00000062187698247812496970000004224660901938806455_)" d="M34.9,13.9h0.3V16h-0.3V13.9z"/>
	
		<linearGradient id="SVGID_00000103960061192833347770000003850716577061859982_" gradientUnits="userSpaceOnUse" x1="-184.666" y1="1082.9417" x2="-181.9899" y2="1081.7545" gradientTransform="matrix(1 0 0 -1 219 1099.3518)">
		<stop  offset="0" style="stop-color:#FFFFFF"/>
		<stop  offset="0.2913" style="stop-color:#F3F3F3"/>
		<stop  offset="0.81" style="stop-color:#D6D5D5"/>
		<stop  offset="1" style="stop-color:#C8C8C8"/>
	</linearGradient>
	<path fill="url(#SVGID_00000103960061192833347770000003850716577061859982_)" d="M35,17.7c-0.2,0-0.4-0.2-0.4-0.4v-1.2
		c0-0.2,0.2-0.4,0.4-0.4c0.2,0,0.4,0.2,0.4,0.4v1.2C35.4,17.5,35.3,17.7,35,17.7z"/>
	
		<linearGradient id="SVGID_00000065767740628863229010000006940344830105731486_" gradientUnits="userSpaceOnUse" x1="-182.2957" y1="1073.6827" x2="-185.0717" y2="1079.4866" gradientTransform="matrix(1 0 0 -1 219 1099.3518)">
		<stop  offset="0" style="stop-color:#FFFFFF"/>
		<stop  offset="0.2913" style="stop-color:#F3F3F3"/>
		<stop  offset="0.81" style="stop-color:#D6D5D5"/>
		<stop  offset="1" style="stop-color:#C8C8C8"/>
	</linearGradient>
	<path fill="url(#SVGID_00000065767740628863229010000006940344830105731486_)" d="M34.9,21.1h0.3v2.1h-0.3V21.1z"/>
	
		<linearGradient id="SVGID_00000054961508335605214630000005535069690937751476_" gradientUnits="userSpaceOnUse" x1="-183.0708" y1="1078.5914" x2="-185.7469" y2="1079.7786" gradientTransform="matrix(1 0 0 -1 219 1099.3518)">
		<stop  offset="0" style="stop-color:#FFFFFF"/>
		<stop  offset="0.2913" style="stop-color:#F3F3F3"/>
		<stop  offset="0.81" style="stop-color:#D6D5D5"/>
		<stop  offset="1" style="stop-color:#C8C8C8"/>
	</linearGradient>
	<path fill="url(#SVGID_00000054961508335605214630000005535069690937751476_)" d="M35,19.4c0.2,0,0.4,0.2,0.4,0.4V21
		c0,0.2-0.2,0.4-0.4,0.4c-0.2,0-0.4-0.2-0.4-0.4v-1.2C34.6,19.6,34.8,19.4,35,19.4z"/>
	
		<linearGradient id="SVGID_00000026130505193524183580000000066291445488959648_" gradientUnits="userSpaceOnUse" x1="-181.2174" y1="1087.6539" x2="-178.4415" y2="1081.8499" gradientTransform="matrix(1 0 0 -1 219 1099.3518)">
		<stop  offset="0" style="stop-color:#FFFFFF"/>
		<stop  offset="0.2913" style="stop-color:#F3F3F3"/>
		<stop  offset="0.81" style="stop-color:#D6D5D5"/>
		<stop  offset="1" style="stop-color:#C8C8C8"/>
	</linearGradient>
	<path fill="url(#SVGID_00000026130505193524183580000000066291445488959648_)" d="M39.2,13.9h0.3V16h-0.3V13.9z"/>
	
		<linearGradient id="SVGID_00000060031139925513848460000008192352227340107179_" gradientUnits="userSpaceOnUse" x1="-180.3849" y1="1082.9421" x2="-177.7088" y2="1081.755" gradientTransform="matrix(1 0 0 -1 219 1099.3518)">
		<stop  offset="0" style="stop-color:#FFFFFF"/>
		<stop  offset="0.2913" style="stop-color:#F3F3F3"/>
		<stop  offset="0.81" style="stop-color:#D6D5D5"/>
		<stop  offset="1" style="stop-color:#C8C8C8"/>
	</linearGradient>
	<path fill="url(#SVGID_00000060031139925513848460000008192352227340107179_)" d="M39.3,17.7c-0.2,0-0.4-0.2-0.4-0.4v-1.2
		c0-0.2,0.2-0.4,0.4-0.4c0.2,0,0.4,0.2,0.4,0.4v1.2C39.7,17.5,39.6,17.7,39.3,17.7z"/>
	
		<linearGradient id="SVGID_00000142877160117413660090000005869117975767198373_" gradientUnits="userSpaceOnUse" x1="-178.0136" y1="1073.684" x2="-180.7894" y2="1079.4879" gradientTransform="matrix(1 0 0 -1 219 1099.3518)">
		<stop  offset="0" style="stop-color:#FFFFFF"/>
		<stop  offset="0.2913" style="stop-color:#F3F3F3"/>
		<stop  offset="0.81" style="stop-color:#D6D5D5"/>
		<stop  offset="1" style="stop-color:#C8C8C8"/>
	</linearGradient>
	<path fill="url(#SVGID_00000142877160117413660090000005869117975767198373_)" d="M39.2,21.1h0.3v2.1h-0.3V21.1z"/>
	
		<linearGradient id="SVGID_00000102515766190484297200000006402962830578851984_" gradientUnits="userSpaceOnUse" x1="-178.7896" y1="1078.5919" x2="-181.4658" y2="1079.7791" gradientTransform="matrix(1 0 0 -1 219 1099.3518)">
		<stop  offset="0" style="stop-color:#FFFFFF"/>
		<stop  offset="0.2913" style="stop-color:#F3F3F3"/>
		<stop  offset="0.81" style="stop-color:#D6D5D5"/>
		<stop  offset="1" style="stop-color:#C8C8C8"/>
	</linearGradient>
	<path fill="url(#SVGID_00000102515766190484297200000006402962830578851984_)" d="M39.3,19.4c0.2,0,0.4,0.2,0.4,0.4V21
		c0,0.2-0.2,0.4-0.4,0.4c-0.2,0-0.4-0.2-0.4-0.4v-1.2C38.9,19.6,39.1,19.4,39.3,19.4z"/>
	
		<linearGradient id="SVGID_00000118368852112692492150000015835079261898713262_" gradientUnits="userSpaceOnUse" x1="-184.0156" y1="1089.0225" x2="-184.0133" y2="1082.9183" gradientTransform="matrix(1 0 0 -1 219 1099.3518)">
		<stop  offset="0" style="stop-color:#FFFFFF"/>
		<stop  offset="0.2913" style="stop-color:#F3F3F3"/>
		<stop  offset="0.81" style="stop-color:#D6D5D5"/>
		<stop  offset="1" style="stop-color:#C8C8C8"/>
	</linearGradient>
	<path fill="url(#SVGID_00000118368852112692492150000015835079261898713262_)" d="M28,13.1h14v1.4H28V13.1z"/>
	
		<linearGradient id="SVGID_00000183245673111643807960000009905697993970140860_" gradientUnits="userSpaceOnUse" x1="-184.0155" y1="1079.6239" x2="-184.0133" y2="1073.5199" gradientTransform="matrix(1 0 0 -1 219 1099.3518)">
		<stop  offset="0" style="stop-color:#FFFFFF"/>
		<stop  offset="0.2913" style="stop-color:#F3F3F3"/>
		<stop  offset="0.81" style="stop-color:#D6D5D5"/>
		<stop  offset="1" style="stop-color:#C8C8C8"/>
	</linearGradient>
	<path fill="url(#SVGID_00000183245673111643807960000009905697993970140860_)" d="M28,22.5h14V24H28V22.5z"/>
	
		<linearGradient id="SVGID_00000029029943668976723870000008194629267803714690_" gradientUnits="userSpaceOnUse" x1="-207.7866" y1="1049.1117" x2="-192.2718" y2="1060.7063" gradientTransform="matrix(1 0 0 -1 219 1099.3518)">
		<stop  offset="0" style="stop-color:#FFFFFF"/>
		<stop  offset="0.1123" style="stop-color:#F7F8F8"/>
		<stop  offset="1" style="stop-color:#C8C8C8"/>
	</linearGradient>
	<path fill="url(#SVGID_00000029029943668976723870000008194629267803714690_)" d="M19.1,47.3l-1.2-0.8l6.5-9l1.2,0.9L19.1,47.3z"/>
	
		<linearGradient id="SVGID_00000091701217602451668800000010945773170145670301_" gradientUnits="userSpaceOnUse" x1="-201.327" y1="1053.8682" x2="-199.4549" y2="1051.1327" gradientTransform="matrix(1 0 0 -1 219 1099.3518)">
		<stop  offset="0" style="stop-color:#525252"/>
		<stop  offset="0.5632" style="stop-color:#3D3D3D"/>
		<stop  offset="1" style="stop-color:#282828"/>
	</linearGradient>
	<ellipse fill="url(#SVGID_00000091701217602451668800000010945773170145670301_)" cx="18.6" cy="46.8" rx="1.1" ry="1.1"/>
	
		<linearGradient id="SVGID_00000065763307454347227700000018046330786489438866_" gradientUnits="userSpaceOnUse" x1="-176.4291" y1="1047.045" x2="-188.283" y2="1057.9868" gradientTransform="matrix(1 0 0 -1 219 1099.3518)">
		<stop  offset="0" style="stop-color:#FFFFFF"/>
		<stop  offset="0.2913" style="stop-color:#F3F3F3"/>
		<stop  offset="0.81" style="stop-color:#D6D5D5"/>
		<stop  offset="1" style="stop-color:#C8C8C8"/>
	</linearGradient>
	<path fill="url(#SVGID_00000065763307454347227700000018046330786489438866_)" d="M34.5,47.3l1.2-0.8l-6.5-9L28,38.3L34.5,47.3z"/>
	
		<linearGradient id="SVGID_00000134958616250279004370000007194163434967530163_" gradientUnits="userSpaceOnUse" x1="-183.1253" y1="1053.8666" x2="-184.9974" y2="1051.1311" gradientTransform="matrix(1 0 0 -1 219 1099.3518)">
		<stop  offset="0" style="stop-color:#525252"/>
		<stop  offset="0.5632" style="stop-color:#3D3D3D"/>
		<stop  offset="1" style="stop-color:#282828"/>
	</linearGradient>
	<ellipse fill="url(#SVGID_00000134958616250279004370000007194163434967530163_)" cx="35" cy="46.8" rx="1.1" ry="1.1"/>
	
		<linearGradient id="SVGID_00000026871925717792128810000010550661909987793832_" gradientUnits="userSpaceOnUse" x1="-202.8727" y1="1082.045" x2="-180.246" y2="1048.983" gradientTransform="matrix(1 0 0 -1 219 1099.3518)">
		<stop  offset="0" style="stop-color:#B4B4B4"/>
		<stop  offset="0.2058" style="stop-color:#989898"/>
		<stop  offset="0.5521" style="stop-color:#737374"/>
		<stop  offset="0.829" style="stop-color:#5B5B5B"/>
		<stop  offset="1" style="stop-color:#525252"/>
	</linearGradient>
	<ellipse fill="url(#SVGID_00000026871925717792128810000010550661909987793832_)" cx="26.8" cy="32.9" rx="13" ry="12.9"/>
	
		<linearGradient id="SVGID_00000166633604765915790800000017733390074430272932_" gradientUnits="userSpaceOnUse" x1="-197.1711" y1="1076.9554" x2="-188.118" y2="1057.7939" gradientTransform="matrix(1 0 0 -1 219 1099.3518)">
		<stop  offset="0" style="stop-color:#525252"/>
		<stop  offset="0.5632" style="stop-color:#3D3D3D"/>
		<stop  offset="1" style="stop-color:#282828"/>
	</linearGradient>
	<ellipse fill="url(#SVGID_00000166633604765915790800000017733390074430272932_)" cx="26.8" cy="32.9" rx="11.3" ry="11.2"/>
	
		<linearGradient id="SVGID_00000181784494891996100970000007485541682675459505_" gradientUnits="userSpaceOnUse" x1="-195.6867" y1="1097.7053" x2="-169.5151" y2="1066.7794" gradientTransform="matrix(1 0 0 -1 219 1099.3518)">
		<stop  offset="0" style="stop-color:#FFFFFF"/>
		<stop  offset="0.2913" style="stop-color:#F3F3F3"/>
		<stop  offset="0.81" style="stop-color:#D6D5D5"/>
		<stop  offset="1" style="stop-color:#C8C8C8"/>
	</linearGradient>
	<path fill="url(#SVGID_00000181784494891996100970000007485541682675459505_)" d="M52,43.1l-6.3-8.6V4.1h-1.5v30.4l-6.3,8.6
		l1.2,0.9l5.1-7v6.3h1.5V37l5.1,7L52,43.1z"/>
	
		<linearGradient id="SVGID_00000168099954630575509670000005621682933057933745_" gradientUnits="userSpaceOnUse" x1="-181.1461" y1="1057.0798" x2="-179.274" y2="1054.3444" gradientTransform="matrix(1 0 0 -1 219 1099.3518)">
		<stop  offset="0" style="stop-color:#525252"/>
		<stop  offset="0.5632" style="stop-color:#3D3D3D"/>
		<stop  offset="1" style="stop-color:#282828"/>
	</linearGradient>
	<ellipse fill="url(#SVGID_00000168099954630575509670000005621682933057933745_)" cx="38.7" cy="43.6" rx="1.1" ry="1.1"/>
	
		<linearGradient id="SVGID_00000055689444300218288000000012185320002320674237_" gradientUnits="userSpaceOnUse" x1="-166.7862" y1="1057.0824" x2="-168.6583" y2="1054.347" gradientTransform="matrix(1 0 0 -1 219 1099.3518)">
		<stop  offset="0" style="stop-color:#525252"/>
		<stop  offset="0.5632" style="stop-color:#3D3D3D"/>
		<stop  offset="1" style="stop-color:#282828"/>
	</linearGradient>
	<ellipse fill="url(#SVGID_00000055689444300218288000000012185320002320674237_)" cx="51.3" cy="43.6" rx="1.1" ry="1.1"/>
	
		<linearGradient id="SVGID_00000090290362236831360570000011683659483548958088_" gradientUnits="userSpaceOnUse" x1="-173.0817" y1="1057.0774" x2="-174.9537" y2="1054.342" gradientTransform="matrix(1 0 0 -1 219 1099.3518)">
		<stop  offset="0" style="stop-color:#525252"/>
		<stop  offset="0.5632" style="stop-color:#3D3D3D"/>
		<stop  offset="1" style="stop-color:#282828"/>
	</linearGradient>
	<ellipse fill="url(#SVGID_00000090290362236831360570000011683659483548958088_)" cx="45" cy="43.6" rx="1.1" ry="1.1"/>
	
		<linearGradient id="SVGID_00000102513674445461524290000005170963603237480354_" gradientUnits="userSpaceOnUse" x1="-174.437" y1="1102.1414" x2="-174.6567" y2="1090.7897" gradientTransform="matrix(1 0 0 -1 219 1099.3518)">
		<stop  offset="0" style="stop-color:#ADCDEC"/>
		<stop  offset="0.2565" style="stop-color:#A5C9EB"/>
		<stop  offset="0.6752" style="stop-color:#8DBCE5"/>
		<stop  offset="1" style="stop-color:#77B0DF"/>
	</linearGradient>
	<path fill="url(#SVGID_00000102513674445461524290000005170963603237480354_)" d="M50.5,4.2L49,3.1l-7.6-1.9l-1.9,0.3l-6.1,0.9
		l11,2.7l11,2.7L50.5,4.2z"/>
	
		<linearGradient id="SVGID_00000046337499141559179990000000980007243138036383_" gradientUnits="userSpaceOnUse" x1="-173.6625" y1="1102.1241" x2="-173.9044" y2="1095.2424" gradientTransform="matrix(1 0 0 -1 219 1099.3518)">
		<stop  offset="0" style="stop-color:#ADCDEC"/>
		<stop  offset="0.2565" style="stop-color:#A5C9EB"/>
		<stop  offset="0.6752" style="stop-color:#8DBCE5"/>
		<stop  offset="1" style="stop-color:#77B0DF"/>
	</linearGradient>
	<path fill="url(#SVGID_00000046337499141559179990000000980007243138036383_)" d="M48.9,3.1c-0.4-1.3-1.6-2.5-3.3-2.9
		c-1.7-0.4-3.3,0.1-4.3,1.1L48.9,3.1z"/>
	
		<linearGradient id="SVGID_00000007407161494035460550000006667631824949915780_" gradientUnits="userSpaceOnUse" x1="-229.7295" y1="1096.5204" x2="-207.3246" y2="1064.5297" gradientTransform="matrix(1 0 0 -1 219 1099.3518)">
		<stop  offset="0" style="stop-color:#FFFFFF"/>
		<stop  offset="0.2913" style="stop-color:#F3F3F3"/>
		<stop  offset="0.81" style="stop-color:#D6D5D5"/>
		<stop  offset="1" style="stop-color:#C8C8C8"/>
	</linearGradient>
	<path fill="url(#SVGID_00000007407161494035460550000006667631824949915780_)" d="M15.2,43.2L9,34.6V7.8H7.5v26.8l-6.3,8.6l1.2,0.9
		l5.1-7v6.3H9v-6.3l5.1,7L15.2,43.2z"/>
	
		<linearGradient id="SVGID_00000059298808213553987960000006086810899308928160_" gradientUnits="userSpaceOnUse" x1="-217.9272" y1="1057.0267" x2="-216.0551" y2="1054.2913" gradientTransform="matrix(1 0 0 -1 219 1099.3518)">
		<stop  offset="0" style="stop-color:#525252"/>
		<stop  offset="0.5632" style="stop-color:#3D3D3D"/>
		<stop  offset="1" style="stop-color:#282828"/>
	</linearGradient>
	<ellipse fill="url(#SVGID_00000059298808213553987960000006086810899308928160_)" cx="2" cy="43.6" rx="1.1" ry="1.1"/>
	
		<linearGradient id="SVGID_00000177456413731194041610000011820024704494296450_" gradientUnits="userSpaceOnUse" x1="-203.5651" y1="1057.0295" x2="-205.4372" y2="1054.2941" gradientTransform="matrix(1 0 0 -1 219 1099.3518)">
		<stop  offset="0" style="stop-color:#525252"/>
		<stop  offset="0.5632" style="stop-color:#3D3D3D"/>
		<stop  offset="1" style="stop-color:#282828"/>
	</linearGradient>
	<ellipse fill="url(#SVGID_00000177456413731194041610000011820024704494296450_)" cx="14.6" cy="43.6" rx="1.1" ry="1.1"/>
	
		<linearGradient id="SVGID_00000008127295186493815850000000310428630509342645_" gradientUnits="userSpaceOnUse" x1="-209.8605" y1="1057.0244" x2="-211.7326" y2="1054.2891" gradientTransform="matrix(1 0 0 -1 219 1099.3518)">
		<stop  offset="0" style="stop-color:#525252"/>
		<stop  offset="0.5632" style="stop-color:#3D3D3D"/>
		<stop  offset="1" style="stop-color:#282828"/>
	</linearGradient>
	<ellipse fill="url(#SVGID_00000008127295186493815850000000310428630509342645_)" cx="8.3" cy="43.6" rx="1.1" ry="1.1"/>
	
		<linearGradient id="SVGID_00000018954808353802995650000004881352193770513800_" gradientUnits="userSpaceOnUse" x1="-210.7486" y1="1096.585" x2="-210.7466" y2="1090.3407" gradientTransform="matrix(1 0 0 -1 219 1099.3518)">
		<stop  offset="0" style="stop-color:#ADCDEC"/>
		<stop  offset="0.2565" style="stop-color:#A5C9EB"/>
		<stop  offset="0.6752" style="stop-color:#8DBCE5"/>
		<stop  offset="1" style="stop-color:#77B0DF"/>
	</linearGradient>
	<path fill="url(#SVGID_00000018954808353802995650000004881352193770513800_)" d="M12.4,5.9l-1.3-0.4H5.4L4.1,5.9L0,7.1h8.3h8.2
		L12.4,5.9z"/>
	
		<linearGradient id="SVGID_00000022526453116015926090000010796227092914677643_" gradientUnits="userSpaceOnUse" x1="-210.7573" y1="1096.4476" x2="-210.7529" y2="1092.7955" gradientTransform="matrix(1 0 0 -1 219 1099.3518)">
		<stop  offset="0" style="stop-color:#ADCDEC"/>
		<stop  offset="0.2565" style="stop-color:#A5C9EB"/>
		<stop  offset="0.6752" style="stop-color:#8DBCE5"/>
		<stop  offset="1" style="stop-color:#77B0DF"/>
	</linearGradient>
	<path fill="url(#SVGID_00000022526453116015926090000010796227092914677643_)" d="M11.1,5.5c-0.5-0.6-1.6-1-2.8-1
		c-1.2,0-2.3,0.4-2.8,1H11.1z"/>
	
		<linearGradient id="SVGID_00000026852283097756458800000010857793050573757862_" gradientUnits="userSpaceOnUse" x1="-210.7459" y1="1087.4647" x2="-210.7479" y2="1093.709" gradientTransform="matrix(1 0 0 -1 219 1099.3518)">
		<stop  offset="0" style="stop-color:#ADCDEC"/>
		<stop  offset="0.2565" style="stop-color:#A5C9EB"/>
		<stop  offset="0.6752" style="stop-color:#8DBCE5"/>
		<stop  offset="1" style="stop-color:#77B0DF"/>
	</linearGradient>
	<path fill="url(#SVGID_00000026852283097756458800000010857793050573757862_)" d="M4.1,8.8l1.3,0.4h5.7l1.3-0.4l4.1-1.2H8.3H0
		L4.1,8.8z"/>
	
		<linearGradient id="SVGID_00000064313222216033606940000002564494142723969684_" gradientUnits="userSpaceOnUse" x1="-210.7375" y1="1087.6022" x2="-210.7419" y2="1091.2543" gradientTransform="matrix(1 0 0 -1 219 1099.3518)">
		<stop  offset="0" style="stop-color:#ADCDEC"/>
		<stop  offset="0.2565" style="stop-color:#A5C9EB"/>
		<stop  offset="0.6752" style="stop-color:#8DBCE5"/>
		<stop  offset="1" style="stop-color:#77B0DF"/>
	</linearGradient>
	<path fill="url(#SVGID_00000064313222216033606940000002564494142723969684_)" d="M5.4,9.2c0.5,0.6,1.6,1,2.8,1
		c1.2,0,2.3-0.4,2.8-1H5.4z"/>
	
		<linearGradient id="SVGID_00000031916357088819764610000014300701307252299942_" gradientUnits="userSpaceOnUse" x1="-192.5039" y1="1072.2667" x2="-192.5012" y2="1067.6215" gradientTransform="matrix(1 0 0 -1 219 1099.3518)">
		<stop  offset="0" style="stop-color:#FFFFFF"/>
		<stop  offset="0.2913" style="stop-color:#F3F3F3"/>
		<stop  offset="0.81" style="stop-color:#D6D5D5"/>
		<stop  offset="1" style="stop-color:#C8C8C8"/>
	</linearGradient>
	<path fill="url(#SVGID_00000031916357088819764610000014300701307252299942_)" d="M22,29.2h9v1.1h-9V29.2z"/>
	
		<linearGradient id="SVGID_00000105402418486136553830000012226367259688513945_" gradientUnits="userSpaceOnUse" x1="-192.5058" y1="1069.8425" x2="-192.5001" y2="1065.5397" gradientTransform="matrix(1 0 0 -1 219 1099.3518)">
		<stop  offset="0" style="stop-color:#FFFFFF"/>
		<stop  offset="0.2913" style="stop-color:#F3F3F3"/>
		<stop  offset="0.81" style="stop-color:#D6D5D5"/>
		<stop  offset="1" style="stop-color:#C8C8C8"/>
	</linearGradient>
	<path fill="url(#SVGID_00000105402418486136553830000012226367259688513945_)" d="M23.5,31.4h5.9v1.1h-5.9V31.4z"/>
</g>
</svg>
