<?xml version="1.0" encoding="utf-8"?>
<!-- Generator: Adobe Illustrator 28.3.0, SVG Export Plug-In . SVG Version: 6.00 Build 0)  -->
<svg version="1.1" id="Layer_1" xmlns="http://www.w3.org/2000/svg" xmlns:xlink="http://www.w3.org/1999/xlink" x="0px" y="0px"
	 viewBox="0 0 43.8 60.6" enable-background="new 0 0 43.8 60.6" xml:space="preserve">
<g>
	
		<linearGradient id="SVGID_1_" gradientUnits="userSpaceOnUse" x1="-204.3442" y1="1088.2312" x2="-221.3673" y2="1085.573" gradientTransform="matrix(1 0 0 -1 219 1112.3694)">
		<stop  offset="5.340540e-02" style="stop-color:#C3DFF4"/>
		<stop  offset="0.301" style="stop-color:#BDDAF2"/>
		<stop  offset="0.613" style="stop-color:#ADCDEC"/>
		<stop  offset="0.7544" style="stop-color:#9CC4E8"/>
		<stop  offset="0.9932" style="stop-color:#77B0DF"/>
	</linearGradient>
	<path fill="url(#SVGID_1_)" d="M7.9,0c0,0.5-0.4,0.9-0.9,0.9S6.1,0.5,6.1,0C2.7,0.1,0,2.9,0,6.3v43.7h6.3v-4.5h35.5
		c1.1,0,2-0.9,2-2V2c0-1.1-0.9-2-2-2L7.9,0L7.9,0z"/>
	
		<linearGradient id="SVGID_00000137815394145144381540000014631215215902360243_" gradientUnits="userSpaceOnUse" x1="-211.0903" y1="1090.5415" x2="-207.7323" y2="1090.5415" gradientTransform="matrix(1 0 0 -1 219 1112.3694)">
		<stop  offset="4.006410e-05" style="stop-color:#FFFFFF"/>
		<stop  offset="0.1551" style="stop-color:#EDF4FB"/>
		<stop  offset="0.4422" style="stop-color:#CDE4F6"/>
		<stop  offset="0.6039" style="stop-color:#C3DFF4"/>
		<stop  offset="1" style="stop-color:#C3DFF4;stop-opacity:1.000000e-02"/>
	</linearGradient>
	
		<rect x="7.9" opacity="0.4" fill="url(#SVGID_00000137815394145144381540000014631215215902360243_)" enable-background="new    " width="4.1" height="43.7"/>
	
		<linearGradient id="SVGID_00000062895814508481827650000014474985014369162142_" gradientUnits="userSpaceOnUse" x1="-212.9207" y1="1090.0924" x2="-211.1845" y2="1090.0924" gradientTransform="matrix(1 0 0 -1 219 1112.3694)">
		<stop  offset="0" style="stop-color:#C3DFF4"/>
		<stop  offset="0.2179" style="stop-color:#BDDAF2"/>
		<stop  offset="0.4925" style="stop-color:#ADCDEC"/>
		<stop  offset="0.6788" style="stop-color:#9CC4E8"/>
		<stop  offset="0.9932" style="stop-color:#77B0DF"/>
	</linearGradient>
	<path fill="url(#SVGID_00000062895814508481827650000014474985014369162142_)" d="M7,0.9C6.5,0.9,6.1,0.5,6.1,0v43.7
		c0,0.5,0.4,0.9,0.9,0.9s0.9-0.4,0.9-0.9V0.1C7.9,0.5,7.5,0.9,7,0.9z"/>
	
		<linearGradient id="SVGID_00000052104183964136071630000006557901488402383265_" gradientUnits="userSpaceOnUse" x1="-197.2475" y1="1065.2504" x2="-198.3925" y2="1052.7072" gradientTransform="matrix(1 0 0 -1 219 1112.3694)">
		<stop  offset="5.340540e-02" style="stop-color:#C3DFF4"/>
		<stop  offset="0.3352" style="stop-color:#BDDAF2"/>
		<stop  offset="0.6904" style="stop-color:#ADCDEC"/>
		<stop  offset="0.803" style="stop-color:#9CC4E8"/>
		<stop  offset="0.9932" style="stop-color:#77B0DF"/>
	</linearGradient>
	<path fill="url(#SVGID_00000052104183964136071630000006557901488402383265_)" d="M7.9,43.7c0,0.5-0.4,0.9-0.9,0.9
		c-0.5,0-0.9-0.4-0.9-0.9c-3.5,0.1-6.3,3-6.1,6.6c0.2,3.3,3.1,5.9,6.4,5.9h34c1.2,0,2.2-1,2.2-2.2V43.7H7.9z"/>
	
		<linearGradient id="SVGID_00000109727733429679657230000006980348501013599617_" gradientUnits="userSpaceOnUse" x1="-177.8793" y1="1067.0601" x2="-177.8793" y2="1058.4473" gradientTransform="matrix(1 0 0 -1 219 1112.3694)">
		<stop  offset="6.810900e-03" style="stop-color:#77B0DF"/>
		<stop  offset="0.4145" style="stop-color:#9CC4E8"/>
		<stop  offset="0.6559" style="stop-color:#ADCDEC"/>
		<stop  offset="0.818" style="stop-color:#BDDAF2"/>
		<stop  offset="0.9466" style="stop-color:#C3DFF4"/>
	</linearGradient>
	<path fill="url(#SVGID_00000109727733429679657230000006980348501013599617_)" d="M39.6,45.4h3v9h-3V45.4z"/>
	<path fill="#FFFFFF" d="M39.9,46.7l0.6-0.6l-0.6-0.6h-0.2h-1.2H6.3c-2.5,0-4.5,2-4.5,4.5s2,4.5,4.5,4.5h32.4h1.2h0.2l0.6-0.6
		l-0.6-0.6l0.6-0.6l-0.6-0.6l0.6-0.6l-0.6-0.6l0.6-0.6l-0.6-0.6l0.6-0.6L39.9,48l0.6-0.6L39.9,46.7z"/>
	<path fill="#C8C8C8" d="M28.8,53.1c1.8-0.1,3.7-0.1,5.5-0.1c1.8,0,3.7,0,5.5,0.1c-1.8,0.1-3.7,0.1-5.5,0.1
		C32.4,53.3,30.6,53.3,28.8,53.1z"/>
	<path fill="#C8C8C8" d="M28,49c1.1-0.1,2.3-0.1,3.4-0.1c1.1,0,2.3,0,3.4,0.1c-1.1,0.1-2.3,0.1-3.4,0.1C30.3,49.2,29.1,49.1,28,49z"
		/>
	<path fill="#C8C8C8" d="M7.1,53c1.2-0.1,2.4-0.1,3.5-0.1l3.5,0l3.5,0c1.2,0,2.4,0.1,3.5,0.1c-1.2,0.1-2.4,0.1-3.5,0.1l-3.5,0
		l-3.5,0C9.5,53,8.3,53,7.1,53z"/>
	<path fill="#C8C8C8" d="M18.2,51.6c1.5-0.1,3-0.1,4.5-0.1l4.5,0l4.5,0c1.5,0,3,0.1,4.5,0.1c-1.5,0.1-3,0.1-4.5,0.1l-4.5,0l-4.5,0
		C21.1,51.6,19.7,51.6,18.2,51.6z"/>
	<path fill="#DBDADA" d="M1.8,50.6c0,0.1,0,0.2,0.1,0.3c0,0.1,0,0.1,0,0.2c0,0.1,0.1,0.2,0.1,0.3c0,0.1,0,0.1,0.1,0.2
		c0,0.1,0.1,0.2,0.1,0.3c0,0,0,0.1,0.1,0.1c0.1,0.1,0.1,0.2,0.2,0.3c0,0,0,0.1,0.1,0.1c0.1,0.1,0.2,0.3,0.3,0.4
		c0.2,0.3,0.4,0.5,0.7,0.7c-0.2-0.5-0.4-1.2-0.4-1.8c0-2.5,2-4.5,4.5-4.5h32.8l-0.4-0.4l0.6-0.6l-0.6-0.6h-0.2h-1.2H6.3
		c-2.5,0-4.5,2-4.5,4.5c0,0.2,0,0.3,0,0.5C1.8,50.5,1.8,50.5,1.8,50.6z"/>
	
		<linearGradient id="SVGID_00000169549320820158555810000017456567880978920339_" gradientUnits="userSpaceOnUse" x1="-205.8482" y1="1062.5071" x2="-205.8482" y2="1056.933" gradientTransform="matrix(1 0 0 -1 219 1112.3694)">
		<stop  offset="0" style="stop-color:#C8C8C8"/>
		<stop  offset="1" style="stop-color:#C8C8C8;stop-opacity:1.000000e-02"/>
	</linearGradient>
	<path fill="url(#SVGID_00000169549320820158555810000017456567880978920339_)" d="M9,49.9h8.4v6.3H9V49.9z"/>
	<path fill="#F26722" d="M16.1,60.6l-3.6-2.8L9,60.6V49.9h7.1V60.6z"/>
	
		<linearGradient id="SVGID_00000034810285432259181720000009755426479518034619_" gradientUnits="userSpaceOnUse" x1="-207.675" y1="1060.1941" x2="-203.6807" y2="1057.6151" gradientTransform="matrix(1 0 0 -1 219 1112.3694)">
		<stop  offset="0" style="stop-color:#F26722"/>
		<stop  offset="0.3678" style="stop-color:#F26122"/>
		<stop  offset="0.9685" style="stop-color:#DB5026"/>
		<stop  offset="1" style="stop-color:#DB5026"/>
	</linearGradient>
	<path fill="url(#SVGID_00000034810285432259181720000009755426479518034619_)" d="M12.5,57.7l3.6,2.8V49.9h-3.6V57.7z"/>
	<path fill="#ABABAB" d="M5.1,50c1.3-0.1,2.6-0.1,3.9-0.2c1.3,0,2.6,0,3.9-0.1c1.3,0,2.6,0,3.9,0.1c1.3,0,2.6,0.1,3.9,0.2
		c-1.3,0.1-2.6,0.1-3.9,0.2c-1.3,0-2.6,0-3.9,0.1c-1.3,0-2.6,0-3.9-0.1C7.7,50.1,6.4,50,5.1,50z"/>
	
		<linearGradient id="SVGID_00000052067774660064068540000014558448446844005519_" gradientUnits="userSpaceOnUse" x1="-219" y1="1073.4561" x2="-213.6976" y2="1073.4561" gradientTransform="matrix(1 0 0 -1 219 1112.3694)">
		<stop  offset="0" style="stop-color:#525252"/>
		<stop  offset="0.5632" style="stop-color:#3D3D3D"/>
		<stop  offset="1" style="stop-color:#282828"/>
	</linearGradient>
	<path fill="url(#SVGID_00000052067774660064068540000014558448446844005519_)" d="M0,38.3v4.1c1.1-1.8,3.1-2.9,5.3-2.9v-4.1
		C3.1,35.4,1.1,36.6,0,38.3z"/>
	<path fill="#FFFFFF" d="M0,29v2c1.1-1.8,3.1-2.9,5.3-2.9v-2C3.1,26.1,1.1,27.3,0,29z"/>
	<path fill="#FFFFFF" d="M17.3,11.6h16.4v10.7H17.3V11.6z"/>
	<path fill="#DBDADA" d="M19.8,13.9h11.6V16H19.8V13.9z"/>
	<path fill="#DBDADA" d="M19.8,18.1h8.4v2.1h-8.4V18.1z"/>
	
		<linearGradient id="SVGID_00000057126704164278170060000002466395222018860471_" gradientUnits="userSpaceOnUse" x1="-219" y1="1096.9651" x2="-217.1726" y2="1096.9651" gradientTransform="matrix(1 0 0 -1 219 1112.3694)">
		<stop  offset="0" style="stop-color:#525252"/>
		<stop  offset="0.5632" style="stop-color:#3D3D3D"/>
		<stop  offset="1" style="stop-color:#282828"/>
	</linearGradient>
	<path fill="url(#SVGID_00000057126704164278170060000002466395222018860471_)" d="M1.8,15.4c0-1.9-0.8-4.1-1.8-4.1v8.2
		C1.1,19.5,1.8,17.3,1.8,15.4z"/>
</g>
</svg>
