<?xml version="1.0" encoding="utf-8"?>
<!-- Generator: Adobe Illustrator 28.3.0, SVG Export Plug-In . SVG Version: 6.00 Build 0)  -->
<svg version="1.1" id="Layer_1" xmlns="http://www.w3.org/2000/svg" xmlns:xlink="http://www.w3.org/1999/xlink" x="0px" y="0px"
	 viewBox="0 0 46.9 60.8" enable-background="new 0 0 46.9 60.8" xml:space="preserve">
<g>
	
		<linearGradient id="SVGID_1_" gradientUnits="userSpaceOnUse" x1="-214.9733" y1="1111.8995" x2="-179.2338" y2="1051.2328" gradientTransform="matrix(1 0 0 -1 219 1112.6282)">
		<stop  offset="0" style="stop-color:#D7D7D7"/>
		<stop  offset="0.4529" style="stop-color:#CBCBCB"/>
		<stop  offset="0.5583" style="stop-color:#C8C8C8"/>
		<stop  offset="0.637" style="stop-color:#C3C3C3"/>
		<stop  offset="0.7361" style="stop-color:#B4B4B4"/>
		<stop  offset="0.8462" style="stop-color:#9B9A99"/>
		<stop  offset="0.9633" style="stop-color:#787877"/>
		<stop  offset="1" style="stop-color:#6C6B6A"/>
	</linearGradient>
	<path fill="url(#SVGID_1_)" d="M0,52.1V1.8C0,0.8,0.8,0,1.8,0h35.4c1,0,1.8,0.8,1.8,1.8v50.4c0,1-0.8,1.8-1.8,1.8H1.8
		C0.8,53.9,0,53.1,0,52.1z"/>
	
		<linearGradient id="SVGID_00000098918234344308569730000012226363763105919618_" gradientUnits="userSpaceOnUse" x1="-200.7311" y1="1063.6064" x2="-197.7363" y2="1060.6251" gradientTransform="matrix(1 0 0 -1 219 1112.6282)">
		<stop  offset="0" style="stop-color:#525252"/>
		<stop  offset="0.2486" style="stop-color:#717171"/>
		<stop  offset="0.5591" style="stop-color:#908F8F"/>
		<stop  offset="0.8208" style="stop-color:#A3A3A2"/>
		<stop  offset="1" style="stop-color:#ABABAB"/>
	</linearGradient>
	<ellipse fill="url(#SVGID_00000098918234344308569730000012226363763105919618_)" cx="19.5" cy="50.3" rx="2.1" ry="2.1"/>
	
		<linearGradient id="SVGID_00000096058687983553003000000015465901828548330142_" gradientUnits="userSpaceOnUse" x1="-197.8908" y1="1060.7789" x2="-200.9421" y2="1063.8164" gradientTransform="matrix(1 0 0 -1 219 1112.6282)">
		<stop  offset="0" style="stop-color:#D7D7D7"/>
		<stop  offset="0.4529" style="stop-color:#CBCBCB"/>
		<stop  offset="0.5583" style="stop-color:#C8C8C8"/>
		<stop  offset="0.6183" style="stop-color:#B8B7B7"/>
		<stop  offset="0.788" style="stop-color:#8E8E8D"/>
		<stop  offset="0.921" style="stop-color:#767574"/>
		<stop  offset="1" style="stop-color:#6C6B6A"/>
	</linearGradient>
	<path fill-rule="evenodd" clip-rule="evenodd" fill="url(#SVGID_00000096058687983553003000000015465901828548330142_)" d="
		M21.7,50.3c0,1.2-0.9,2.1-2.1,2.1c-1.2,0-2.1-1-2.1-2.1c0-1.2,0.9-2.1,2.1-2.1C20.7,48.2,21.7,49.1,21.7,50.3z M21.4,50.3
		c0-1-0.8-1.9-1.9-1.9c-1,0-1.9,0.8-1.9,1.9c0,1,0.8,1.9,1.9,1.9C20.6,52.2,21.4,51.3,21.4,50.3z"/>
	
		<linearGradient id="SVGID_00000034789697273710616100000010461740650554874542_" gradientUnits="userSpaceOnUse" x1="-197.7429" y1="1060.5962" x2="-199.792" y2="1062.6361" gradientTransform="matrix(1 0 0 -1 219 1112.6282)">
		<stop  offset="0" style="stop-color:#6C6B6A"/>
		<stop  offset="7.901490e-02" style="stop-color:#767574"/>
		<stop  offset="0.212" style="stop-color:#8E8E8D"/>
		<stop  offset="0.3817" style="stop-color:#B8B7B7"/>
		<stop  offset="0.4417" style="stop-color:#C8C8C8"/>
		<stop  offset="0.5471" style="stop-color:#CBCBCB"/>
		<stop  offset="1" style="stop-color:#D7D7D7"/>
	</linearGradient>
	<path fill-rule="evenodd" clip-rule="evenodd" fill="url(#SVGID_00000034789697273710616100000010461740650554874542_)" d="
		M19.2,51.1h0.8c0.2,0,0.4-0.2,0.4-0.4V50c0-0.2-0.2-0.4-0.4-0.4h-0.8c-0.2,0-0.4,0.2-0.4,0.4v0.8C18.8,50.9,19,51.1,19.2,51.1z
		 M19,50c0-0.1,0.1-0.1,0.1-0.1h0.8c0.1,0,0.1,0.1,0.1,0.1v0.8c0,0.1-0.1,0.1-0.1,0.1h-0.8c-0.1,0-0.1-0.1-0.1-0.1V50z"/>
	
		<linearGradient id="SVGID_00000022545562595316392140000011909707935628348341_" gradientUnits="userSpaceOnUse" x1="-199.9146" y1="1109.3616" x2="-199.8984" y2="1105.8214" gradientTransform="matrix(1 0 0 -1 219 1112.6282)">
		<stop  offset="0" style="stop-color:#6C6B6A"/>
		<stop  offset="4.813290e-02" style="stop-color:#787877"/>
		<stop  offset="0.202" style="stop-color:#9B9A99"/>
		<stop  offset="0.3465" style="stop-color:#B4B4B4"/>
		<stop  offset="0.4767" style="stop-color:#C3C3C3"/>
		<stop  offset="0.5801" style="stop-color:#C8C8C8"/>
		<stop  offset="0.6594" style="stop-color:#CBCBCB"/>
		<stop  offset="1" style="stop-color:#D7D7D7"/>
	</linearGradient>
	<path fill="url(#SVGID_00000022545562595316392140000011909707935628348341_)" d="M16.4,4.7c-0.2,0-0.3-0.2-0.3-0.4
		s0.1-0.4,0.3-0.4h5.4c0.2,0,0.4,0.2,0.4,0.4S22,4.7,21.8,4.7H16.4z"/>
	
		<linearGradient id="SVGID_00000166637856923924518880000005388751148292507565_" gradientUnits="userSpaceOnUse" x1="-199.9055" y1="1109.3638" x2="-199.902" y2="1106.8021" gradientTransform="matrix(1 0 0 -1 219 1112.6282)">
		<stop  offset="0" style="stop-color:#525252"/>
		<stop  offset="0.5632" style="stop-color:#3D3D3D"/>
		<stop  offset="1" style="stop-color:#282828"/>
	</linearGradient>
	<path fill="url(#SVGID_00000166637856923924518880000005388751148292507565_)" d="M21.8,4.6h-5.5c-0.1,0-0.2-0.1-0.2-0.2V4.1
		C16.2,4,16.3,4,16.3,4h5.5C21.9,4,22,4,22,4.1v0.2C22,4.5,21.9,4.6,21.8,4.6z"/>
	
		<linearGradient id="SVGID_00000139283946515457286120000015679710215947172241_" gradientUnits="userSpaceOnUse" x1="-203.9522" y1="1108.9154" x2="-203.2691" y2="1107.0654" gradientTransform="matrix(1 0 0 -1 219 1112.6282)">
		<stop  offset="0" style="stop-color:#525252"/>
		<stop  offset="0.5632" style="stop-color:#3D3D3D"/>
		<stop  offset="1" style="stop-color:#282828"/>
	</linearGradient>
	<circle fill="url(#SVGID_00000139283946515457286120000015679710215947172241_)" cx="15.3" cy="4.4" r="0.5"/>
	
		<linearGradient id="SVGID_00000130647230332246298190000014433032757643385274_" gradientUnits="userSpaceOnUse" x1="-200.0773" y1="1110.9978" x2="-199.4642" y2="1109.4432" gradientTransform="matrix(1 0 0 -1 219 1112.6282)">
		<stop  offset="0" style="stop-color:#525252"/>
		<stop  offset="0.5632" style="stop-color:#3D3D3D"/>
		<stop  offset="1" style="stop-color:#282828"/>
	</linearGradient>
	<circle fill="url(#SVGID_00000130647230332246298190000014433032757643385274_)" cx="19.1" cy="2.2" r="0.5"/>
	
		<linearGradient id="SVGID_00000080168438521990783710000010609898034341753263_" gradientUnits="userSpaceOnUse" x1="-216.4024" y1="1106.4756" x2="-181.7649" y2="1064.3145" gradientTransform="matrix(1 0 0 -1 219 1112.6282)">
		<stop  offset="0" style="stop-color:#6C6B6A"/>
		<stop  offset="0.3477" style="stop-color:#ABABAB"/>
		<stop  offset="0.5369" style="stop-color:#C8C8C8"/>
		<stop  offset="0.6244" style="stop-color:#CBCBCB"/>
		<stop  offset="1" style="stop-color:#D7D7D7"/>
	</linearGradient>
	<path fill-rule="evenodd" clip-rule="evenodd" fill="url(#SVGID_00000080168438521990783710000010609898034341753263_)" d="M2,46.9
		V6.3h34.9v40.6H2z M2.3,46.7h24.6V6.6H2.3V46.7z"/>
	
		<linearGradient id="SVGID_00000164508262210981963460000001998055614315949225_" gradientUnits="userSpaceOnUse" x1="-218.9487" y1="1103.4135" x2="-183.4332" y2="1071.4742" gradientTransform="matrix(1 0 0 -1 219 1112.6282)">
		<stop  offset="0" style="stop-color:#525252"/>
		<stop  offset="0.5632" style="stop-color:#3D3D3D"/>
		<stop  offset="1" style="stop-color:#282828"/>
	</linearGradient>
	<path fill="url(#SVGID_00000164508262210981963460000001998055614315949225_)" d="M2.3,6.6h34.3v40.1H2.3V6.6z"/>
	
		<linearGradient id="SVGID_00000077314725000676381600000004375116664846594729_" gradientUnits="userSpaceOnUse" x1="-194.6872" y1="1103.3004" x2="-205.6601" y2="1075.6376" gradientTransform="matrix(1 0 0 -1 219 1112.6282)">
		<stop  offset="5.328530e-03" style="stop-color:#FFFFFF"/>
		<stop  offset="1" style="stop-color:#FFFFFF;stop-opacity:1.000000e-02"/>
	</linearGradient>
	<path opacity="0.15" fill="url(#SVGID_00000077314725000676381600000004375116664846594729_)" enable-background="new    " d="
		M2.3,34.1v9.6L36.6,9.2V6.6h-7L2.3,34.1z"/>
	
		<linearGradient id="SVGID_00000018234010437097052630000003539324928532040631_" gradientUnits="userSpaceOnUse" x1="-204.1957" y1="1106.5986" x2="-213.8737" y2="1078.418" gradientTransform="matrix(1 0 0 -1 219 1112.6282)">
		<stop  offset="5.328530e-03" style="stop-color:#FFFFFF"/>
		<stop  offset="1" style="stop-color:#FFFFFF;stop-opacity:1.000000e-02"/>
	</linearGradient>
	<path opacity="0.15" fill="url(#SVGID_00000018234010437097052630000003539324928532040631_)" enable-background="new    " d="
		M26.9,6.6H2.3v24.8L26.9,6.6z"/>
	
		<linearGradient id="SVGID_00000056422200561805068530000008406292846698312843_" gradientUnits="userSpaceOnUse" x1="-197.8736" y1="1082.823" x2="-167.3047" y2="1058.7072" gradientTransform="matrix(1 0 0 -1 219 1112.6282)">
		<stop  offset="5.340540e-02" style="stop-color:#C3DFF4"/>
		<stop  offset="0.301" style="stop-color:#BDDAF2"/>
		<stop  offset="0.613" style="stop-color:#ADCDEC"/>
		<stop  offset="0.7544" style="stop-color:#9CC4E8"/>
		<stop  offset="0.9932" style="stop-color:#77B0DF"/>
	</linearGradient>
	<path fill="url(#SVGID_00000056422200561805068530000008406292846698312843_)" d="M26.1,59.6V24.2c0-0.7,0.6-1.2,1.3-1.2h18.3
		c0.7,0,1.3,0.6,1.3,1.2v35.4c0,0.7-0.6,1.2-1.3,1.2H27.3C26.6,60.8,26.1,60.3,26.1,59.6z"/>
	
		<linearGradient id="SVGID_00000092424808563946423730000016794397098657818766_" gradientUnits="userSpaceOnUse" x1="-183.2777" y1="1055.4012" x2="-180.9198" y2="1052.0024" gradientTransform="matrix(1 0 0 -1 219 1112.6282)">
		<stop  offset="6.810900e-03" style="stop-color:#5690CC"/>
		<stop  offset="0.1653" style="stop-color:#6FA3D8"/>
		<stop  offset="0.4449" style="stop-color:#9CC3E8"/>
		<stop  offset="0.5848" style="stop-color:#ADCDEC"/>
		<stop  offset="0.8163" style="stop-color:#BDDAF2"/>
		<stop  offset="1" style="stop-color:#C3DFF4"/>
	</linearGradient>
	<ellipse fill="url(#SVGID_00000092424808563946423730000016794397098657818766_)" cx="36.5" cy="58.3" rx="1.5" ry="1.5"/>
	
		<linearGradient id="SVGID_00000064322232259954951800000015611320890734264485_" gradientUnits="userSpaceOnUse" x1="-184.2378" y1="1056.0543" x2="-181.4614" y2="1053.2399" gradientTransform="matrix(1 0 0 -1 219 1112.6282)">
		<stop  offset="6.810900e-03" style="stop-color:#5690CC"/>
		<stop  offset="0.1653" style="stop-color:#6FA3D8"/>
		<stop  offset="0.4449" style="stop-color:#9CC3E8"/>
		<stop  offset="0.5848" style="stop-color:#ADCDEC"/>
		<stop  offset="0.8163" style="stop-color:#BDDAF2"/>
		<stop  offset="1" style="stop-color:#C3DFF4"/>
	</linearGradient>
	<path fill-rule="evenodd" clip-rule="evenodd" fill="url(#SVGID_00000064322232259954951800000015611320890734264485_)" d="
		M38,58.3c0,0.8-0.7,1.5-1.5,1.5c-0.8,0-1.5-0.7-1.5-1.5c0-0.8,0.7-1.5,1.5-1.5C37.3,56.8,38,57.5,38,58.3z M37.8,58.3
		c0-0.7-0.6-1.3-1.3-1.3c-0.7,0-1.3,0.6-1.3,1.3c0,0.7,0.6,1.3,1.3,1.3C37.2,59.6,37.8,59,37.8,58.3z"/>
	
		<linearGradient id="SVGID_00000178897731817187807020000009066075140064897464_" gradientUnits="userSpaceOnUse" x1="-185.0439" y1="1056.8458" x2="-181.2346" y2="1052.9844" gradientTransform="matrix(1 0 0 -1 219 1112.6282)">
		<stop  offset="6.810900e-03" style="stop-color:#5690CC"/>
		<stop  offset="0.1653" style="stop-color:#6FA3D8"/>
		<stop  offset="0.4449" style="stop-color:#9CC3E8"/>
		<stop  offset="0.5848" style="stop-color:#ADCDEC"/>
		<stop  offset="0.8163" style="stop-color:#BDDAF2"/>
		<stop  offset="1" style="stop-color:#C3DFF4"/>
	</linearGradient>
	<path fill-rule="evenodd" clip-rule="evenodd" fill="url(#SVGID_00000178897731817187807020000009066075140064897464_)" d="
		M36.2,58.9h0.5c0.1,0,0.3-0.1,0.3-0.2v-0.5c0-0.1-0.1-0.2-0.3-0.2h-0.5c-0.1,0-0.3,0.1-0.3,0.2v0.5C36,58.8,36.1,58.9,36.2,58.9z
		 M36.1,58.1C36.1,58,36.2,58,36.1,58.1L36.1,58.1l0.6-0.1c0,0,0.1,0,0.1,0.1v0.5c0,0,0,0.1-0.1,0.1h-0.5c0,0-0.1,0-0.1-0.1V58.1z"
		/>
	
		<linearGradient id="SVGID_00000106857245706790145540000016887591232434850737_" gradientUnits="userSpaceOnUse" x1="-182.3738" y1="1086.9009" x2="-182.3738" y2="1085.9274" gradientTransform="matrix(1 0 0 -1 219 1112.6282)">
		<stop  offset="6.810900e-03" style="stop-color:#77B0DF"/>
		<stop  offset="0.2456" style="stop-color:#9CC4E8"/>
		<stop  offset="0.387" style="stop-color:#ADCDEC"/>
		<stop  offset="0.7288" style="stop-color:#BDDAF2"/>
		<stop  offset="1" style="stop-color:#C3DFF4"/>
	</linearGradient>
	<path fill="url(#SVGID_00000106857245706790145540000016887591232434850737_)" d="M34.7,26.3c-0.2,0-0.2-0.1-0.2-0.3
		c0-0.2,0.1-0.3,0.2-0.3h3.9c0.2,0,0.3,0.1,0.3,0.3c0,0.2-0.1,0.3-0.2,0.3H34.7z"/>
	
		<linearGradient id="SVGID_00000034793332311709694450000017424366024770331543_" gradientUnits="userSpaceOnUse" x1="-182.3755" y1="1087.4886" x2="-182.3706" y2="1085.0063" gradientTransform="matrix(1 0 0 -1 219 1112.6282)">
		<stop  offset="0" style="stop-color:#525252"/>
		<stop  offset="0.5632" style="stop-color:#3D3D3D"/>
		<stop  offset="1" style="stop-color:#282828"/>
	</linearGradient>
	<path fill="url(#SVGID_00000034793332311709694450000017424366024770331543_)" d="M38.6,26.2h-3.9c-0.1,0-0.1-0.1-0.1-0.1v-0.2
		c0-0.1,0.1-0.1,0.1-0.1h3.9c0.1,0,0.1,0.1,0.1,0.1v0.2C38.7,26.2,38.7,26.2,38.6,26.2z"/>
	
		<linearGradient id="SVGID_00000008842156045568493420000002200806780253073312_" gradientUnits="userSpaceOnUse" x1="-185.195" y1="1087.072" x2="-184.5141" y2="1085.2281" gradientTransform="matrix(1 0 0 -1 219 1112.6282)">
		<stop  offset="0" style="stop-color:#525252"/>
		<stop  offset="0.5632" style="stop-color:#3D3D3D"/>
		<stop  offset="1" style="stop-color:#282828"/>
	</linearGradient>
	<circle fill="url(#SVGID_00000008842156045568493420000002200806780253073312_)" cx="34.1" cy="26.2" r="0.5"/>
	
		<linearGradient id="SVGID_00000063628921160937359270000012106423776324327553_" gradientUnits="userSpaceOnUse" x1="-182.4246" y1="1088.4913" x2="-181.8069" y2="1086.9248" gradientTransform="matrix(1 0 0 -1 219 1112.6282)">
		<stop  offset="0" style="stop-color:#525252"/>
		<stop  offset="0.5632" style="stop-color:#3D3D3D"/>
		<stop  offset="1" style="stop-color:#282828"/>
	</linearGradient>
	<circle fill="url(#SVGID_00000063628921160937359270000012106423776324327553_)" cx="36.8" cy="24.7" r="0.5"/>
	
		<linearGradient id="SVGID_00000036947948237901125770000010197904663012611484_" gradientUnits="userSpaceOnUse" x1="-200.4464" y1="1082.3358" x2="-169.9813" y2="1062.9436" gradientTransform="matrix(1 0 0 -1 219 1112.6282)">
		<stop  offset="0" style="stop-color:#525252"/>
		<stop  offset="0.5632" style="stop-color:#3D3D3D"/>
		<stop  offset="1" style="stop-color:#282828"/>
	</linearGradient>
	<path fill="url(#SVGID_00000036947948237901125770000010197904663012611484_)" d="M27.7,27.6h17.6v28.1H27.7V27.6z"/>
	
		<linearGradient id="SVGID_00000036241242334239740590000013596405173513087636_" gradientUnits="userSpaceOnUse" x1="-195.4811" y1="1079.2247" x2="-169.7663" y2="1062.7271" gradientTransform="matrix(1 0 0 -1 219 1112.6282)">
		<stop  offset="6.810900e-03" style="stop-color:#77B0DF"/>
		<stop  offset="0.2456" style="stop-color:#9CC4E8"/>
		<stop  offset="0.387" style="stop-color:#ADCDEC"/>
		<stop  offset="0.699" style="stop-color:#BDDAF2"/>
		<stop  offset="0.9466" style="stop-color:#C3DFF4"/>
	</linearGradient>
	<path fill-rule="evenodd" clip-rule="evenodd" fill="url(#SVGID_00000036241242334239740590000013596405173513087636_)" d="
		M27.5,56V27.5h17.9V56H27.5z M27.7,55.8h17.6V27.6H27.7V55.8z"/>
	
		<linearGradient id="SVGID_00000000925517895577227400000010044719013148778655_" gradientUnits="userSpaceOnUse" x1="-176.5995" y1="1082.5555" x2="-188.1185" y2="1069.6393" gradientTransform="matrix(1 0 0 -1 219 1112.6282)">
		<stop  offset="5.328530e-03" style="stop-color:#FFFFFF"/>
		<stop  offset="1" style="stop-color:#FFFFFF;stop-opacity:1.000000e-02"/>
	</linearGradient>
	<path opacity="0.15" fill="url(#SVGID_00000000925517895577227400000010044719013148778655_)" enable-background="new    " d="
		M27.7,41.4v7.9L45.3,32v-4.3h-3.6L27.7,41.4z"/>
	
		<linearGradient id="SVGID_00000150786514778329013080000013803162691954194319_" gradientUnits="userSpaceOnUse" x1="-183.9818" y1="1087.1935" x2="-192.7359" y2="1071.8652" gradientTransform="matrix(1 0 0 -1 219 1112.6282)">
		<stop  offset="5.328530e-03" style="stop-color:#FFFFFF"/>
		<stop  offset="1" style="stop-color:#FFFFFF;stop-opacity:1.000000e-02"/>
	</linearGradient>
	<path opacity="0.15" fill="url(#SVGID_00000150786514778329013080000013803162691954194319_)" enable-background="new    " d="
		M39.8,27.6H27.7v12L39.8,27.6z"/>
</g>
</svg>
