<?xml version="1.0" encoding="utf-8"?>
<!-- Generator: Adobe Illustrator 28.3.0, SVG Export Plug-In . SVG Version: 6.00 Build 0)  -->
<svg version="1.1" id="Layer_1" xmlns="http://www.w3.org/2000/svg" xmlns:xlink="http://www.w3.org/1999/xlink" x="0px" y="0px"
	 viewBox="0 0 60.9 31.9" enable-background="new 0 0 60.9 31.9" xml:space="preserve">
<g>
	<path fill="#C8C8C8" d="M56.8,21.9c0.1,0.3,0.2,0.7,0.2,1.1c0,0.2,0,0.4,0,0.5l0,0.3l0,0.3c-0.1,0.7-0.4,1.4-0.9,2
		c-0.5,0.6-1.1,1.1-1.8,1.4c-0.7,0.3-1.5,0.5-2.3,0.5v0c0.8-0.2,1.5-0.4,2.1-0.8c0.1,0,0.1-0.1,0.2-0.1c0.1,0,0.1-0.1,0.2-0.1
		c0.1-0.1,0.3-0.2,0.4-0.3c0.1-0.1,0.3-0.2,0.4-0.3l0.2-0.2l0.1-0.2c0.4-0.5,0.7-1.1,0.9-1.7l0.1-0.2c0-0.1,0-0.2,0-0.2
		c0-0.2,0.1-0.3,0.1-0.5C56.7,22.7,56.7,22.3,56.8,21.9L56.8,21.9z"/>
	<path fill="#C8C8C8" d="M4.2,22.9C4.1,22.6,4,22.2,4,21.9c0-0.2,0-0.4,0-0.5L4,21l0-0.3c0.1-0.7,0.4-1.4,0.9-2
		c0.5-0.6,1.1-1.1,1.8-1.4c0.7-0.3,1.5-0.5,2.3-0.5v0c-0.8,0.2-1.5,0.4-2.1,0.8c-0.1,0-0.1,0.1-0.2,0.1c-0.1,0-0.1,0.1-0.2,0.1
		c-0.1,0.1-0.3,0.2-0.4,0.3c-0.1,0.1-0.3,0.2-0.4,0.3l-0.2,0.2l-0.1,0.2c-0.4,0.5-0.7,1.1-0.9,1.7L4.4,21c0,0.1,0,0.2,0,0.2
		c0,0.2-0.1,0.3-0.1,0.5C4.3,22.1,4.3,22.5,4.2,22.9L4.2,22.9z"/>
	
		<linearGradient id="SVGID_1_" gradientUnits="userSpaceOnUse" x1="-172.5162" y1="1077.5405" x2="-172.9896" y2="1084.3417" gradientTransform="matrix(1 0 0 -1 219 1083.6968)">
		<stop  offset="0" style="stop-color:#FFFFFF"/>
		<stop  offset="0.3006" style="stop-color:#FDFEFF"/>
		<stop  offset="0.55" style="stop-color:#F2F2F2"/>
		<stop  offset="0.7802" style="stop-color:#E0E1E0"/>
		<stop  offset="0.9989" style="stop-color:#C8C8C8"/>
		<stop  offset="1" style="stop-color:#C8C8C8"/>
	</linearGradient>
	<path fill="url(#SVGID_1_)" d="M47.8,1.5L45.7,0c0,0-1.3,2.1-0.9,4.6C45.2,7.2,47.8,1.5,47.8,1.5z"/>
	
		<linearGradient id="SVGID_00000089573007355268862750000012156385955657296277_" gradientUnits="userSpaceOnUse" x1="-202.7078" y1="1063.3306" x2="-197.8288" y2="1069.3695" gradientTransform="matrix(1 0 0 -1 219 1083.6968)">
		<stop  offset="0" style="stop-color:#C8C8C8"/>
		<stop  offset="0.3385" style="stop-color:#C8C8C8"/>
		<stop  offset="0.4564" style="stop-color:#C3C3C3"/>
		<stop  offset="0.6048" style="stop-color:#B4B4B4"/>
		<stop  offset="0.7696" style="stop-color:#9B9A99"/>
		<stop  offset="0.9451" style="stop-color:#787877"/>
		<stop  offset="1" style="stop-color:#6C6B6A"/>
	</linearGradient>
	<path fill="url(#SVGID_00000089573007355268862750000012156385955657296277_)" d="M14.3,18.8c-0.5,0.3-0.7,0.9-0.4,1.4
		c0.3,0.5,0.9,0.7,1.4,0.4l7.2-3.9l-1.1-1.8L14.3,18.8z"/>
	
		<linearGradient id="SVGID_00000006701278650317711470000008808363183256177307_" gradientUnits="userSpaceOnUse" x1="-211.763" y1="1065.699" x2="-206.7943" y2="1055.4867" gradientTransform="matrix(1 0 0 -1 219 1083.6968)">
		<stop  offset="0" style="stop-color:#C8C8C8"/>
		<stop  offset="0.3385" style="stop-color:#C8C8C8"/>
		<stop  offset="0.484" style="stop-color:#C4C4C4"/>
		<stop  offset="0.6171" style="stop-color:#BBBABA"/>
		<stop  offset="0.7454" style="stop-color:#A8A7A7"/>
		<stop  offset="0.8706" style="stop-color:#8E8D8D"/>
		<stop  offset="0.9927" style="stop-color:#6E6D6C"/>
		<stop  offset="1" style="stop-color:#6C6B6A"/>
	</linearGradient>
	<ellipse fill="url(#SVGID_00000006701278650317711470000008808363183256177307_)" cx="9.4" cy="22.5" rx="4.2" ry="4.2"/>
	<ellipse fill="#6C6B6A" cx="9.4" cy="22.5" rx="2.7" ry="2.7"/>
	
		<linearGradient id="SVGID_00000156578872352522440510000003146699951768501161_" gradientUnits="userSpaceOnUse" x1="-212.7434" y1="1070.7815" x2="-206.5698" y2="1052.1016" gradientTransform="matrix(1 0 0 -1 219 1083.6968)">
		<stop  offset="0" style="stop-color:#525252"/>
		<stop  offset="0.5632" style="stop-color:#3D3D3D"/>
		<stop  offset="1" style="stop-color:#282828"/>
	</linearGradient>
	<path fill-rule="evenodd" clip-rule="evenodd" fill="url(#SVGID_00000156578872352522440510000003146699951768501161_)" d="M0,22.5
		c0,5.2,4.2,9.4,9.4,9.4c5.2,0,9.4-4.2,9.4-9.4S14.6,13,9.4,13C4.2,13,0,17.3,0,22.5z M2.9,22.5c0-3.6,2.9-6.6,6.6-6.6
		c3.6,0,6.6,2.9,6.6,6.6C16,26.1,13,29,9.4,29C5.8,29,2.9,26.1,2.9,22.5z"/>
	
		<linearGradient id="SVGID_00000029005872404500133800000007898840219051680422_" gradientUnits="userSpaceOnUse" x1="-202.3162" y1="1064.2336" x2="-203.1426" y2="1057.3983" gradientTransform="matrix(1 0 0 -1 219 1083.6968)">
		<stop  offset="6.810900e-03" style="stop-color:#5690CC"/>
		<stop  offset="0.1653" style="stop-color:#6FA3D8"/>
		<stop  offset="0.4449" style="stop-color:#9CC3E8"/>
		<stop  offset="0.5848" style="stop-color:#ADCDEC"/>
		<stop  offset="0.8163" style="stop-color:#BDDAF2"/>
		<stop  offset="1" style="stop-color:#C3DFF4"/>
	</linearGradient>
	<path fill="url(#SVGID_00000029005872404500133800000007898840219051680422_)" d="M24.2,22.5c0,0.6-0.4,1.3-1,1.3L9.4,23.5
		c-0.5,0-1-0.4-1-1c0-0.5,0.4-1,1-1L23.2,21C23.8,21,24.2,22,24.2,22.5z"/>
	
		<linearGradient id="SVGID_00000112607249059053229390000013040986414047617936_" gradientUnits="userSpaceOnUse" x1="-177.6383" y1="1080.563" x2="-171.6758" y2="1075.8679" gradientTransform="matrix(1 0 0 -1 219 1083.6968)">
		<stop  offset="0" style="stop-color:#C8C8C8"/>
		<stop  offset="0.3385" style="stop-color:#C8C8C8"/>
		<stop  offset="0.4564" style="stop-color:#C3C3C3"/>
		<stop  offset="0.6048" style="stop-color:#B4B4B4"/>
		<stop  offset="0.7696" style="stop-color:#9B9A99"/>
		<stop  offset="0.9451" style="stop-color:#787877"/>
		<stop  offset="1" style="stop-color:#6C6B6A"/>
	</linearGradient>
	<path fill="url(#SVGID_00000112607249059053229390000013040986414047617936_)" d="M43.1,1.1c-0.3-0.5-0.9-0.7-1.4-0.5
		c-0.5,0.3-0.7,0.9-0.5,1.4l3.6,7.4l1.8-1L43.1,1.1z"/>
	<path fill="#ABABAB" d="M41.1,1.3c0,0.2,0,0.5,0.1,0.7L42,3.7c0.8-0.1,1.5-0.4,2.1-0.5l-0.9-1.8c-0.1,0-0.2,0-0.3,0
		C42.3,1.4,41.6,1.3,41.1,1.3z"/>
	
		<linearGradient id="SVGID_00000178189484393808255800000000254133820727018677_" gradientUnits="userSpaceOnUse" x1="-169.656" y1="1065.6989" x2="-164.6873" y2="1055.4866" gradientTransform="matrix(1 0 0 -1 219 1083.6968)">
		<stop  offset="0" style="stop-color:#C8C8C8"/>
		<stop  offset="0.3385" style="stop-color:#C8C8C8"/>
		<stop  offset="0.484" style="stop-color:#C4C4C4"/>
		<stop  offset="0.6171" style="stop-color:#BBBABA"/>
		<stop  offset="0.7454" style="stop-color:#A8A7A7"/>
		<stop  offset="0.8706" style="stop-color:#8E8D8D"/>
		<stop  offset="0.9927" style="stop-color:#6E6D6C"/>
		<stop  offset="1" style="stop-color:#6C6B6A"/>
	</linearGradient>
	<ellipse fill="url(#SVGID_00000178189484393808255800000000254133820727018677_)" cx="51.5" cy="22.5" rx="4.2" ry="4.2"/>
	<ellipse fill="#6C6B6A" cx="51.5" cy="22.5" rx="2.7" ry="2.7"/>
	
		<linearGradient id="SVGID_00000099664594956258565830000015394118112195664525_" gradientUnits="userSpaceOnUse" x1="-172.0652" y1="1069.7396" x2="-162.8116" y2="1052.5581" gradientTransform="matrix(1 0 0 -1 219 1083.6968)">
		<stop  offset="0" style="stop-color:#525252"/>
		<stop  offset="0.5632" style="stop-color:#3D3D3D"/>
		<stop  offset="1" style="stop-color:#282828"/>
	</linearGradient>
	<path fill-rule="evenodd" clip-rule="evenodd" fill="url(#SVGID_00000099664594956258565830000015394118112195664525_)" d="
		M42.1,22.5c0,5.2,4.2,9.4,9.4,9.4s9.4-4.2,9.4-9.4S56.7,13,51.5,13S42.1,17.3,42.1,22.5z M45,22.5c0-3.6,2.9-6.6,6.6-6.6
		c3.6,0,6.6,2.9,6.6,6.6c0,3.6-2.9,6.6-6.6,6.6C47.9,29,45,26.1,45,22.5z"/>
	
		<linearGradient id="SVGID_00000061467097610661991470000016807104040672393662_" gradientUnits="userSpaceOnUse" x1="-163.2919" y1="1065.2327" x2="-178.1064" y2="1070.4205" gradientTransform="matrix(1 0 0 -1 219 1083.6968)">
		<stop  offset="6.810900e-03" style="stop-color:#5690CC"/>
		<stop  offset="0.1653" style="stop-color:#6FA3D8"/>
		<stop  offset="0.4449" style="stop-color:#9CC3E8"/>
		<stop  offset="0.5848" style="stop-color:#ADCDEC"/>
		<stop  offset="0.8163" style="stop-color:#BDDAF2"/>
		<stop  offset="1" style="stop-color:#C3DFF4"/>
	</linearGradient>
	<path fill="url(#SVGID_00000061467097610661991470000016807104040672393662_)" d="M52,23.3c-0.5,0.2-1.1,0-1.3-0.5l-5.8-12.4
		c-0.2-0.5,0.2-1.3,0.7-1.6c0.5-0.2,1.4,0,1.6,0.5L52.5,22C52.7,22.5,52.5,23.1,52,23.3z"/>
	
		<linearGradient id="SVGID_00000134208867292853717580000003607787417195080627_" gradientUnits="userSpaceOnUse" x1="-204.5716" y1="1069.3114" x2="-203.0375" y2="1058.416" gradientTransform="matrix(1 0 0 -1 219 1083.6968)">
		<stop  offset="0" style="stop-color:#FFFFFF"/>
		<stop  offset="0.4204" style="stop-color:#E6E6E5"/>
		<stop  offset="1" style="stop-color:#C8C8C8"/>
	</linearGradient>
	<path fill="url(#SVGID_00000134208867292853717580000003607787417195080627_)" d="M21.4,26.1l-4.9-1.7L7,18.2l1-4.7l11.4,6.8
		l4.5,4.2L21.4,26.1z"/>
	
		<linearGradient id="SVGID_00000120523883420575207100000010337821148399547792_" gradientUnits="userSpaceOnUse" x1="-200.9489" y1="1069.0439" x2="-200.3275" y2="1058.2816" gradientTransform="matrix(1 0 0 -1 219 1083.6968)">
		<stop  offset="0" style="stop-color:#B4B4B4"/>
		<stop  offset="0.2058" style="stop-color:#989898"/>
		<stop  offset="0.5521" style="stop-color:#737374"/>
		<stop  offset="0.829" style="stop-color:#5B5B5B"/>
		<stop  offset="1" style="stop-color:#525252"/>
	</linearGradient>
	<path fill="url(#SVGID_00000120523883420575207100000010337821148399547792_)" d="M12.9,16.4l2.1,3.8l0.1,3.3l1.4,0.9l4.9,1.7
		l2.5-1.6l-4.5-4.2L12.9,16.4z"/>
	
		<linearGradient id="SVGID_00000019666196261690124810000000678918008034044581_" gradientUnits="userSpaceOnUse" x1="-191.8257" y1="1072.6123" x2="-190.4059" y2="1056.5142" gradientTransform="matrix(1 0 0 -1 219 1083.6968)">
		<stop  offset="0" style="stop-color:#525252"/>
		<stop  offset="0.5632" style="stop-color:#3D3D3D"/>
		<stop  offset="1" style="stop-color:#282828"/>
	</linearGradient>
	<path fill="url(#SVGID_00000019666196261690124810000000678918008034044581_)" d="M13.6,10.6c0,0,5.1,3.7,7,7.1
		c1.8,3.2,2.2,6.8,2.2,6.8l-1.6,1.6c0,0,5.3,1.1,9.1,1.3c4.1,0.3,11.7-0.3,11.7-0.3l-1.4-3.3L25,11.6L13.6,10.6z"/>
	
		<linearGradient id="SVGID_00000108300449096930323710000011529649893082873004_" gradientUnits="userSpaceOnUse" x1="-189.461" y1="1054.3253" x2="-191.6623" y2="1091.9364" gradientTransform="matrix(1 0 0 -1 219 1083.6968)">
		<stop  offset="6.810900e-03" style="stop-color:#5690CC"/>
		<stop  offset="0.1653" style="stop-color:#6FA3D8"/>
		<stop  offset="0.4449" style="stop-color:#9CC3E8"/>
		<stop  offset="0.5848" style="stop-color:#ADCDEC"/>
		<stop  offset="0.8163" style="stop-color:#BDDAF2"/>
		<stop  offset="1" style="stop-color:#C3DFF4"/>
	</linearGradient>
	<path fill="url(#SVGID_00000108300449096930323710000011529649893082873004_)" d="M40.9,22.4c0-5.9,4.7-10.6,10.6-10.6
		c0.9,0,1.2,0,2.1,0.1C53.4,11.1,53,8.2,51.7,6c-1.5-2.4-3.9-4.5-3.9-4.5s-2.2,2-4.2,3.1c-1.9,1-4.2,0.9-4.2,0.9s-2.7-2.1-5.7-2.3
		c-2.5-0.2-6.2,0.7-8,2.2c-1.8,1.5-2.5,2.8-2.5,2.8s-7-0.2-9-1.7C12.2,5,11,4.1,8.3,3.6C5.7,3.1,3,2.5,3,2.5l0.1,1.7
		c0,0,4.1,2.2,6,3.3c3.4,1.9,4.5,3.1,4.5,3.1S18.3,11.4,24,14c5.8,2.6,8,4.5,9.4,6.2c1.6,1.9,3,4.9,3,4.9l4.8,0.2
		C41,24.3,40.9,23.4,40.9,22.4z"/>
	
		<linearGradient id="SVGID_00000155127487458439925180000005384785882682449295_" gradientUnits="userSpaceOnUse" x1="-178.8363" y1="1086.2755" x2="-178.0196" y2="1079.2062" gradientTransform="matrix(1 0 0 -1 219 1083.6968)">
		<stop  offset="0" style="stop-color:#525252"/>
		<stop  offset="0.5632" style="stop-color:#3D3D3D"/>
		<stop  offset="1" style="stop-color:#282828"/>
	</linearGradient>
	<path fill="url(#SVGID_00000155127487458439925180000005384785882682449295_)" d="M43.6,2.2L39,3c-0.6,0.1-1.1-0.3-1.2-0.9
		c-0.1-0.6,0.3-1.1,0.9-1.2l4.1-0.5L43.6,2.2z"/>
	
		<linearGradient id="SVGID_00000041293713448195077770000006266696002970500744_" gradientUnits="userSpaceOnUse" x1="-197.0319" y1="1069.7257" x2="-198.2655" y2="1084.9082" gradientTransform="matrix(1 0 0 -1 219 1083.6968)">
		<stop  offset="6.810900e-03" style="stop-color:#5690CC"/>
		<stop  offset="0.1653" style="stop-color:#6FA3D8"/>
		<stop  offset="0.4449" style="stop-color:#9CC3E8"/>
		<stop  offset="0.5848" style="stop-color:#ADCDEC"/>
		<stop  offset="0.8163" style="stop-color:#BDDAF2"/>
		<stop  offset="1" style="stop-color:#C3DFF4"/>
	</linearGradient>
	<path fill="url(#SVGID_00000041293713448195077770000006266696002970500744_)" d="M33.7,3.2c-2.5-0.2-6.2,0.7-8,2.2
		c-1.8,1.5-2.5,2.8-2.5,2.8s-7-0.2-9-1.7s-3.3-2.3-5.9-2.9C5.7,3.1,3,2.5,3,2.5l0.1,1.7c0,0,4.1,2.2,6,3.3c3.4,1.9,4.5,3.1,4.5,3.1
		S18.2,11.4,24,14c0,0,0.1,0,0.2,0.1c0,0,3-3.6,6.1-5.4c3-1.8,9.1-3.1,9.1-3.1S36.6,3.4,33.7,3.2z"/>
	
		<linearGradient id="SVGID_00000109752085663657064870000009614812937579573120_" gradientUnits="userSpaceOnUse" x1="-200.5409" y1="1077.614" x2="-200.5143" y2="1074.7441" gradientTransform="matrix(1 0 0 -1 219 1083.6968)">
		<stop  offset="0" style="stop-color:#525252"/>
		<stop  offset="0.5632" style="stop-color:#3D3D3D"/>
		<stop  offset="1" style="stop-color:#282828"/>
	</linearGradient>
	<path fill="url(#SVGID_00000109752085663657064870000009614812937579573120_)" d="M23.2,8.1l-0.2,0.6c0,0-2.3,0.4-4.3,0.1
		c-2-0.4-5-2.2-5-2.2l0.2-0.3L23.2,8.1z"/>
	
		<linearGradient id="SVGID_00000123406461947542748750000010691525156585485979_" gradientUnits="userSpaceOnUse" x1="-215.6984" y1="1081.6128" x2="-213.9489" y2="1077.8671" gradientTransform="matrix(1 0 0 -1 219 1083.6968)">
		<stop  offset="0" style="stop-color:#F26722"/>
		<stop  offset="0.3678" style="stop-color:#F26122"/>
		<stop  offset="0.9685" style="stop-color:#DB5026"/>
		<stop  offset="1" style="stop-color:#DB5026"/>
	</linearGradient>
	<path fill="url(#SVGID_00000123406461947542748750000010691525156585485979_)" d="M4.9,2.9C3.7,2.7,3,2.5,3,2.5l0.1,1.7
		c0,0,1.1,0.6,2.4,1.3L4.9,2.9z"/>
	
		<linearGradient id="SVGID_00000116915603139936444920000004432802235526418367_" gradientUnits="userSpaceOnUse" x1="-169.4813" y1="1077.0416" x2="-168.7291" y2="1071.9794" gradientTransform="matrix(1 0 0 -1 219 1083.6968)">
		<stop  offset="0" style="stop-color:#FFFFFF"/>
		<stop  offset="0.4204" style="stop-color:#E6E6E5"/>
		<stop  offset="1" style="stop-color:#C8C8C8"/>
	</linearGradient>
	<path fill="url(#SVGID_00000116915603139936444920000004432802235526418367_)" d="M52.7,8.4c0,0-1.2,0-2.9-0.5
		c-1.7-0.5-3.5-1.4-3.5-1.4S46.6,9,48,9.6c1.7,0.8,5.1,0.1,5.1,0.1C53,9.3,52.9,8.8,52.7,8.4z"/>
</g>
</svg>
