<?xml version="1.0" encoding="utf-8"?>
<!-- Generator: Adobe Illustrator 28.3.0, SVG Export Plug-In . SVG Version: 6.00 Build 0)  -->
<svg version="1.1" id="Layer_1" xmlns="http://www.w3.org/2000/svg" xmlns:xlink="http://www.w3.org/1999/xlink" x="0px" y="0px"
	 viewBox="0 0 57 52.5" enable-background="new 0 0 57 52.5" xml:space="preserve">
<g>
	
		<linearGradient id="SVGID_1_" gradientUnits="userSpaceOnUse" x1="-185.0074" y1="1096.7247" x2="-185.0074" y2="1088.0299" gradientTransform="matrix(1 0 0 -1 219 1104.2882)">
		<stop  offset="0" style="stop-color:#C8C8C8"/>
		<stop  offset="0.379" style="stop-color:#C8C8C8"/>
		<stop  offset="0.4896" style="stop-color:#C3C3C3"/>
		<stop  offset="0.629" style="stop-color:#B4B4B4"/>
		<stop  offset="0.7837" style="stop-color:#9B9A99"/>
		<stop  offset="0.9485" style="stop-color:#787877"/>
		<stop  offset="1" style="stop-color:#6C6B6A"/>
	</linearGradient>
	<rect x="33.4" y="6.2" fill="url(#SVGID_1_)" width="1.2" height="41.8"/>
	
		<linearGradient id="SVGID_00000153670409480377477200000000299638865500895152_" gradientUnits="userSpaceOnUse" x1="-185.1978" y1="1104.0848" x2="-185.0011" y2="1098.2512" gradientTransform="matrix(1 0 0 -1 219 1104.2882)">
		<stop  offset="0" style="stop-color:#F26722"/>
		<stop  offset="0.3678" style="stop-color:#F26122"/>
		<stop  offset="0.9685" style="stop-color:#DB5026"/>
		<stop  offset="1" style="stop-color:#DB5026"/>
	</linearGradient>
	<path fill="url(#SVGID_00000153670409480377477200000000299638865500895152_)" d="M35.1,0h-0.8h-0.6h-0.8l-6.5,5.9h7.3h0.6h7.3
		L35.1,0z"/>
	<path fill="#656565" d="M34.6,47.1h-0.4h-0.3h-0.4l-3.5,1.7h3.9h0.3h3.9L34.6,47.1z"/>
	<path fill="#969696" d="M33.4,5.9h1.2v0.6h-1.2V5.9z"/>
	
		<linearGradient id="SVGID_00000159448035362229539860000008706874142984345003_" gradientUnits="userSpaceOnUse" x1="-190.2534" y1="1081.8182" x2="-190.2534" y2="1066.0052" gradientTransform="matrix(1 0 0 -1 219 1104.2882)">
		<stop  offset="0" style="stop-color:#C8C8C8"/>
		<stop  offset="0.4258" style="stop-color:#C8C8C8"/>
		<stop  offset="0.5265" style="stop-color:#C0BFBF"/>
		<stop  offset="0.6908" style="stop-color:#A8A7A7"/>
		<stop  offset="0.8969" style="stop-color:#82817F"/>
		<stop  offset="1" style="stop-color:#6C6B6A"/>
	</linearGradient>
	<path fill="url(#SVGID_00000159448035362229539860000008706874142984345003_)" d="M53.1,15.7c0,0,0,0.1,0,0.1
		c0-1.3-1.1-2.4-2.4-2.4H30.5c-1.3,0-2.4,1.1-2.4,2.4c0-1.3-1.1-2.4-2.4-2.4H8c-2,0-3.6,1.6-3.6,3.6v28.2c0,2,1.6,3.6,3.6,3.6h45.1
		L53.1,15.7L53.1,15.7z"/>
	
		<linearGradient id="SVGID_00000079446426209261422360000005000517712845325984_" gradientUnits="userSpaceOnUse" x1="-191.1447" y1="1068.9082" x2="-191.1447" y2="1055.4708" gradientTransform="matrix(1 0 0 -1 219 1104.2882)">
		<stop  offset="0.1629" style="stop-color:#4C4C4C"/>
		<stop  offset="0.9677" style="stop-color:#343434"/>
		<stop  offset="1" style="stop-color:#333333"/>
	</linearGradient>
	<path fill="url(#SVGID_00000079446426209261422360000005000517712845325984_)" d="M49.1,48.8H6.7V36.9c0,0,11.1-0.6,21.2-0.6
		c10.6,0,21.2,0.6,21.2,0.6V48.8z"/>
	<ellipse fill="#525252" cx="17.6" cy="25" rx="1" ry="1"/>
	<ellipse fill="#525252" cx="39.4" cy="25" rx="1" ry="1"/>
	<path opacity="0.2" fill="#FFFFFF" enable-background="new    " d="M28.1,15.9c0.2,1.7,0.2,3.3,0.3,5c0,0.8,0,1.7,0.1,2.5l0,2.5
		l0,2.5c0,0.8,0,1.7-0.1,2.5c-0.1,1.7-0.1,3.3-0.3,5c-0.2-1.7-0.2-3.3-0.3-5c0-0.8,0-1.7-0.1-2.5l0-2.5l0-2.5c0-0.8,0-1.7,0.1-2.5
		C27.9,19.2,28,17.5,28.1,15.9z"/>
	
		<linearGradient id="SVGID_00000150812021482110836520000017078678619171085967_" gradientUnits="userSpaceOnUse" x1="-212.314" y1="1055.9984" x2="-212.314" y2="1053.4955" gradientTransform="matrix(1 0 0 -1 219 1104.2882)">
		<stop  offset="0" style="stop-color:#6C6B6A"/>
		<stop  offset="0.1749" style="stop-color:#757473"/>
		<stop  offset="0.4582" style="stop-color:#8B8B8B"/>
		<stop  offset="0.8126" style="stop-color:#B2B2B2"/>
		<stop  offset="1" style="stop-color:#C8C8C8"/>
	</linearGradient>
	<path fill="url(#SVGID_00000150812021482110836520000017078678619171085967_)" d="M4.4,48.8h4.5v1.5H4.4V48.8z"/>
	
		<linearGradient id="SVGID_00000137100669970582822460000012962826143103016368_" gradientUnits="userSpaceOnUse" x1="-168.8345" y1="1055.9984" x2="-168.8345" y2="1053.4955" gradientTransform="matrix(1 0 0 -1 219 1104.2882)">
		<stop  offset="0" style="stop-color:#6C6B6A"/>
		<stop  offset="0.1749" style="stop-color:#757473"/>
		<stop  offset="0.4582" style="stop-color:#8B8B8B"/>
		<stop  offset="0.8126" style="stop-color:#B2B2B2"/>
		<stop  offset="1" style="stop-color:#C8C8C8"/>
	</linearGradient>
	<path fill="url(#SVGID_00000137100669970582822460000012962826143103016368_)" d="M47.9,48.8h4.5v1.5h-4.5V48.8z"/>
	
		<linearGradient id="SVGID_00000057146138514969638270000007966024607433602693_" gradientUnits="userSpaceOnUse" x1="-221.1845" y1="1072.2672" x2="-205.7609" y2="1060.5424" gradientTransform="matrix(1 0 0 -1 219 1104.2882)">
		<stop  offset="0" style="stop-color:#B4B4B4"/>
		<stop  offset="0.2058" style="stop-color:#989898"/>
		<stop  offset="0.5521" style="stop-color:#737374"/>
		<stop  offset="0.829" style="stop-color:#5B5B5B"/>
		<stop  offset="1" style="stop-color:#525252"/>
	</linearGradient>
	<path fill="url(#SVGID_00000057146138514969638270000007966024607433602693_)" d="M7.4,48.8H3.6c-2,0-3.6-1.6-3.6-3.6V30.5
		c0-2,1.6-3.6,3.6-3.6h3.8c2,0,3.6,1.6,3.6,3.6v18.4C10.9,48.8,9.3,48.8,7.4,48.8z"/>
	<path opacity="0.2" fill="#FFFFFF" enable-background="new    " d="M1.3,30.5c-0.2-0.7,0.1-1.5,0.6-2c0.3-0.3,0.6-0.5,1-0.6
		c0.2-0.1,0.4-0.1,0.6-0.1c0.2,0,0.3,0,0.5,0c0.7,0,1.3,0,2,0.1c0.7,0.1,1.3,0.1,2,0.3c-0.7,0.1-1.3,0.2-2,0.3
		c-0.7,0.1-1.3,0.1-2,0.1H3.5c-0.1,0-0.3,0-0.4,0c-0.3,0.1-0.5,0.2-0.8,0.3C1.9,29.3,1.5,29.8,1.3,30.5z"/>
	
		<linearGradient id="SVGID_00000051353498380408923290000015909703770456005037_" gradientUnits="userSpaceOnUse" x1="-172.88" y1="1073.4165" x2="-162.3311" y2="1057.4653" gradientTransform="matrix(1 0 0 -1 219 1104.2882)">
		<stop  offset="0" style="stop-color:#B4B4B4"/>
		<stop  offset="0.2058" style="stop-color:#989898"/>
		<stop  offset="0.5521" style="stop-color:#737374"/>
		<stop  offset="0.829" style="stop-color:#5B5B5B"/>
		<stop  offset="1" style="stop-color:#525252"/>
	</linearGradient>
	<path fill="url(#SVGID_00000051353498380408923290000015909703770456005037_)" d="M53.5,48.8h-3.8c-2,0-3.6,0-3.6,0V30.5
		c0-2,1.6-3.6,3.6-3.6h3.8c2,0,3.6,1.6,3.6,3.6v14.8C57,47.2,55.4,48.8,53.5,48.8z"/>
	<path opacity="0.2" fill="#FFFFFF" enable-background="new    " d="M47.4,30.5c-0.2-0.7,0.1-1.5,0.6-2c0.3-0.3,0.6-0.5,1-0.6
		c0.2-0.1,0.4-0.1,0.6-0.1c0.2,0,0.3,0,0.5,0c0.7,0,1.3,0,2,0.1c0.7,0.1,1.3,0.1,2,0.3c-0.7,0.1-1.3,0.2-2,0.3
		c-0.7,0.1-1.3,0.1-2,0.1h-0.5c-0.1,0-0.3,0-0.4,0c-0.3,0.1-0.5,0.2-0.8,0.3C48,29.3,47.6,29.8,47.4,30.5z"/>
	
		<linearGradient id="SVGID_00000003815606667436463770000003551651097397089430_" gradientUnits="userSpaceOnUse" x1="-201.8018" y1="1059.9176" x2="-196.8767" y2="1059.4974" gradientTransform="matrix(1 0 0 -1 219 1104.2882)">
		<stop  offset="0" style="stop-color:#C8C8C8"/>
		<stop  offset="0.379" style="stop-color:#C8C8C8"/>
		<stop  offset="0.4896" style="stop-color:#C3C3C3"/>
		<stop  offset="0.629" style="stop-color:#B4B4B4"/>
		<stop  offset="0.7837" style="stop-color:#9B9A99"/>
		<stop  offset="0.9485" style="stop-color:#787877"/>
		<stop  offset="1" style="stop-color:#6C6B6A"/>
	</linearGradient>
	<path fill="url(#SVGID_00000003815606667436463770000003551651097397089430_)" d="M18.4,36.6h1.9v15.9h-1.9V36.6z"/>
	<path fill="#969696" d="M18.4,38.8h1.9v0.9h-1.9V38.8z"/>
	
		<linearGradient id="SVGID_00000034057487300477469690000002539956653513368210_" gradientUnits="userSpaceOnUse" x1="-184.6706" y1="1059.9333" x2="-178.6791" y2="1059.4739" gradientTransform="matrix(1 0 0 -1 219 1104.2882)">
		<stop  offset="0" style="stop-color:#C8C8C8"/>
		<stop  offset="0.379" style="stop-color:#C8C8C8"/>
		<stop  offset="0.4896" style="stop-color:#C3C3C3"/>
		<stop  offset="0.629" style="stop-color:#B4B4B4"/>
		<stop  offset="0.7837" style="stop-color:#9B9A99"/>
		<stop  offset="0.9485" style="stop-color:#787877"/>
		<stop  offset="1" style="stop-color:#6C6B6A"/>
	</linearGradient>
	<path fill="url(#SVGID_00000034057487300477469690000002539956653513368210_)" d="M36,36.6h1.9v15.9H36V36.6z"/>
	<path fill="#969696" d="M36,38.8h1.9v0.9H36V38.8z"/>
	
		<linearGradient id="SVGID_00000098908566608808937970000011749760765665199020_" gradientUnits="userSpaceOnUse" x1="-190.8705" y1="1070.1792" x2="-190.845" y2="1064.3479" gradientTransform="matrix(1 0 0 -1 219 1104.2882)">
		<stop  offset="0" style="stop-color:#ADCDEC"/>
		<stop  offset="0.2565" style="stop-color:#A5C9EB"/>
		<stop  offset="0.6752" style="stop-color:#8DBCE5"/>
		<stop  offset="1" style="stop-color:#77B0DF"/>
	</linearGradient>
	<path fill="url(#SVGID_00000098908566608808937970000011749760765665199020_)" d="M18.4,34.4h19.5v4.4H18.4V34.4z"/>
</g>
</svg>
