<?xml version="1.0" encoding="utf-8"?>
<!-- Generator: Adobe Illustrator 28.3.0, SVG Export Plug-In . SVG Version: 6.00 Build 0)  -->
<svg version="1.1" id="Layer_1" xmlns="http://www.w3.org/2000/svg" xmlns:xlink="http://www.w3.org/1999/xlink" x="0px" y="0px"
	 viewBox="0 0 47.8 54.4" enable-background="new 0 0 47.8 54.4" xml:space="preserve">
<g>
	
		<linearGradient id="SVGID_1_" gradientUnits="userSpaceOnUse" x1="-231.8177" y1="1095.8136" x2="-208.4469" y2="1096.4041" gradientTransform="matrix(1 0 0 -1 219 1106.1949)">
		<stop  offset="0" style="stop-color:#B4B4B4"/>
		<stop  offset="0.2058" style="stop-color:#989898"/>
		<stop  offset="0.5521" style="stop-color:#737374"/>
		<stop  offset="0.829" style="stop-color:#5B5B5B"/>
		<stop  offset="1" style="stop-color:#525252"/>
	</linearGradient>
	<path fill="url(#SVGID_1_)" d="M8,1.7c0,0-3.5,0.8-6.1,6.4c-2.5,5.4-1.8,8.7-1.8,8.7L8,18l3.1-1.3V8.1l-0.5-4.2L8,1.7z"/>
	
		<linearGradient id="SVGID_00000012450533880636257020000010575935854634992263_" gradientUnits="userSpaceOnUse" x1="-161.4194" y1="1095.8135" x2="-184.7902" y2="1096.4039" gradientTransform="matrix(1 0 0 -1 219 1106.1949)">
		<stop  offset="0" style="stop-color:#B4B4B4"/>
		<stop  offset="0.2058" style="stop-color:#989898"/>
		<stop  offset="0.5521" style="stop-color:#737374"/>
		<stop  offset="0.829" style="stop-color:#5B5B5B"/>
		<stop  offset="1" style="stop-color:#525252"/>
	</linearGradient>
	<path fill="url(#SVGID_00000012450533880636257020000010575935854634992263_)" d="M36.7,1.7c0,0,3.5,0.8,6.1,6.4
		c2.5,5.4,1.8,8.7,1.8,8.7L36.7,18l-3.1-1.3V8.1l0.5-4.2L36.7,1.7z"/>
	
		<linearGradient id="SVGID_00000039112518654205405560000004182271898798128779_" gradientUnits="userSpaceOnUse" x1="-205.3661" y1="1115.1537" x2="-192.633" y2="1064.4302" gradientTransform="matrix(1 0 0 -1 219 1106.1949)">
		<stop  offset="0" style="stop-color:#B4B4B4"/>
		<stop  offset="0.2058" style="stop-color:#989898"/>
		<stop  offset="0.5521" style="stop-color:#737374"/>
		<stop  offset="0.829" style="stop-color:#5B5B5B"/>
		<stop  offset="1" style="stop-color:#525252"/>
	</linearGradient>
	<path fill="url(#SVGID_00000039112518654205405560000004182271898798128779_)" d="M36.8,1.7L29,0H15.8L8,1.7c0,0,3.2,13,0,16.2
		v32.3c0,0,4.8,1.4,14.4,1.4c9.7,0,14.4-1.4,14.4-1.4V18C33.5,14.8,36.8,1.7,36.8,1.7z"/>
	
		<linearGradient id="SVGID_00000083068400712055774390000014593919443523146626_" gradientUnits="userSpaceOnUse" x1="-196.5901" y1="1115.2843" x2="-196.5901" y2="1097.5935" gradientTransform="matrix(1 0 0 -1 219 1106.1949)">
		<stop  offset="0" style="stop-color:#B4B4B4"/>
		<stop  offset="0.2058" style="stop-color:#989898"/>
		<stop  offset="0.5521" style="stop-color:#737374"/>
		<stop  offset="0.829" style="stop-color:#5B5B5B"/>
		<stop  offset="1" style="stop-color:#525252"/>
	</linearGradient>
	<path fill="url(#SVGID_00000083068400712055774390000014593919443523146626_)" d="M22.4,6.6C26,6.6,29,3.6,29,0H15.8
		C15.9,3.6,18.8,6.6,22.4,6.6z"/>
	<path fill="#F26722" d="M22.4,25.9h-5.1l2.6-4.5l2.6-4.5l2.6,4.5l2.6,4.5H22.4z"/>
	<path fill="#FFFFFF" d="M22.4,13.8h5.1L25,18.3l-2.6,4.5l-2.6-4.5l-2.6-4.5H22.4z"/>
	
		<linearGradient id="SVGID_00000180326390353706633630000002091377641212197260_" gradientUnits="userSpaceOnUse" x1="-198.4242" y1="1077.8248" x2="-197.9376" y2="1069.6193" gradientTransform="matrix(1 0 0 -1 219 1106.1949)">
		<stop  offset="0" style="stop-color:#FFFFFF"/>
		<stop  offset="0.9732" style="stop-color:#CACACA"/>
		<stop  offset="1" style="stop-color:#C8C8C8"/>
	</linearGradient>
	<path fill="url(#SVGID_00000180326390353706633630000002091377641212197260_)" d="M15.3,35.8c0,0-0.4-1.7,0-2.8
		c0.4-1.1,1.5-2.7,2.4-2.8c0.8-0.1,3.1,1.8,4.4,2.9c1.3,1.1,5,5.3,5,5.3L15.3,35.8z"/>
	
		<linearGradient id="SVGID_00000008852933796276164900000010709574716321261204_" gradientUnits="userSpaceOnUse" x1="-195.0993" y1="1041.6821" x2="-195.5904" y2="1088.0735" gradientTransform="matrix(1 0 0 -1 219 1106.1949)">
		<stop  offset="6.810900e-03" style="stop-color:#5690CC"/>
		<stop  offset="0.1653" style="stop-color:#6FA3D8"/>
		<stop  offset="0.4449" style="stop-color:#9CC3E8"/>
		<stop  offset="0.5848" style="stop-color:#ADCDEC"/>
		<stop  offset="0.8163" style="stop-color:#BDDAF2"/>
		<stop  offset="1" style="stop-color:#C3DFF4"/>
	</linearGradient>
	<path fill="url(#SVGID_00000008852933796276164900000010709574716321261204_)" d="M2.5,34.3c0,0-1.9,4.4-2.2,8
		c-0.3,3.6,0.5,5.5,0.5,5.5s15.3,3.9,26.4,3.9c11.1,0,19.8-2.2,19.8-2.2s0.9-2.7-0.2-3.9s-7.6-1.8-9.4-2.6c-1.8-0.7-9-4.3-11.4-5.8
		c-2.4-1.5-5.1-3.7-7.7-3.6c-2.6,0.1-5.1,4.6-7.9,4.5C7.6,38,6.5,33.9,2.5,34.3z"/>
	
		<linearGradient id="SVGID_00000150060530371036763310000011937377331706837171_" gradientUnits="userSpaceOnUse" x1="-189.4593" y1="1057.092" x2="-188.6259" y2="1084.9858" gradientTransform="matrix(1 0 0 -1 219 1106.1949)">
		<stop  offset="6.810900e-03" style="stop-color:#5690CC"/>
		<stop  offset="0.1653" style="stop-color:#6FA3D8"/>
		<stop  offset="0.4449" style="stop-color:#9CC3E8"/>
		<stop  offset="0.5848" style="stop-color:#ADCDEC"/>
		<stop  offset="0.8163" style="stop-color:#BDDAF2"/>
		<stop  offset="1" style="stop-color:#C3DFF4"/>
	</linearGradient>
	<path fill="url(#SVGID_00000150060530371036763310000011937377331706837171_)" d="M37.3,42.9c-1.8-0.7-9-4.3-11.4-5.8
		c-2.4-1.5-5.1-3.7-7.7-3.6c-0.9,0-1.8,0.6-2.7,1.3c1.2,1,3.2,3,3.2,4.4c0,2.1-6.6,3.6-6.6,3.6l18.3,5.9c0,0,4,1.1,8.1,2.2
		c5.1-0.6,8.4-1.5,8.4-1.5s0.9-2.7-0.2-3.9C45.6,44.3,39.1,43.7,37.3,42.9z"/>
	
		<linearGradient id="SVGID_00000092452434353870681490000014004496078133928874_" gradientUnits="userSpaceOnUse" x1="-196.9231" y1="1067.7408" x2="-196.8324" y2="1054.2516" gradientTransform="matrix(1 0 0 -1 219 1106.1949)">
		<stop  offset="0" style="stop-color:#525252"/>
		<stop  offset="0.5632" style="stop-color:#3D3D3D"/>
		<stop  offset="1" style="stop-color:#282828"/>
	</linearGradient>
	<path fill="url(#SVGID_00000092452434353870681490000014004496078133928874_)" d="M0.7,47.7c0,0,15.3,3.9,26.4,3.9
		c7.3,0,13.5-0.9,17-1.6c-0.1-0.9-0.4-1.9-0.8-2.3c-0.8-0.8-1.8-1-3.6-1.2c-1.8-0.2-7.4,0.4-9.3,0.4c-1.9-0.1-6.9-1.6-10.9-2.8
		c-4-1.2-12.1-3.6-13.1-3.6c-0.9,0-2.1,0.9-3.4,1.8c-0.8,0.5-2,1.4-2.9,2C0.2,46.6,0.7,47.7,0.7,47.7z"/>
	
		<linearGradient id="SVGID_00000176031611924338259990000005135088483791318688_" gradientUnits="userSpaceOnUse" x1="-194.9152" y1="1063.2295" x2="-194.8949" y2="1047.8223" gradientTransform="matrix(1 0 0 -1 219 1106.1949)">
		<stop  offset="0" style="stop-color:#FFFFFF"/>
		<stop  offset="0.9732" style="stop-color:#CACACA"/>
		<stop  offset="1" style="stop-color:#C8C8C8"/>
	</linearGradient>
	<path fill="url(#SVGID_00000176031611924338259990000005135088483791318688_)" d="M13,47c-3.3-0.3-7,0.3-7,0.3s-0.7-0.6-1.9-0.6
		c-1.2,0-3.3,1.1-3.3,1.1s0.3,1.8,0.1,2.7c-0.1,0.9-0.4,2.3-0.4,2.3s2,1.7,15.5,1.7c13.5,0,18.2-0.4,22.1-1.1
		c3.9-0.7,5.9-1.5,6.8-2.1c1-0.5,2-1.2,2.4-1.5c0.4-0.3,0.5-2.6,0.5-2.6l-0.5,0c0,0-0.2,1.7-0.6,2c-0.4,0.3-4.7,1.3-8.9,1.5
		c-4.2,0.2-6.7,0.1-9.1-0.4c-2.4-0.4-3.9-0.9-5.2-1C22.1,49,20.2,49,20.2,49S16,47.3,13,47z"/>
	
		<linearGradient id="SVGID_00000151502693372371835060000004059379766457624467_" gradientUnits="userSpaceOnUse" x1="-204.8208" y1="1059.7009" x2="-204.5038" y2="1047.9521" gradientTransform="matrix(1 0 0 -1 219 1106.1949)">
		<stop  offset="0" style="stop-color:#F26722"/>
		<stop  offset="0.2673" style="stop-color:#F26322"/>
		<stop  offset="0.7453" style="stop-color:#E65825"/>
		<stop  offset="1" style="stop-color:#DB5026"/>
	</linearGradient>
	<path fill="url(#SVGID_00000151502693372371835060000004059379766457624467_)" d="M4.7,48.6c0.1,0.9,2.1,1.3,2.1,1.9
		c-0.1,0.5-2.5,1.9-3.5,3.1c2.2,0.4,6.1,0.8,12.6,0.8c3.8,0,6.9,0,9.5-0.1c-0.5-0.8-1.4-2-2.3-2.8c-1.4-1.4-3-2.5-3-2.5
		S16,47.3,13,47c-3.3-0.3-7,0.3-7,0.3S4.7,47.7,4.7,48.6z"/>
	
		<linearGradient id="SVGID_00000180342962373705843550000000970840778607248013_" gradientUnits="userSpaceOnUse" x1="-205.378" y1="1056.1533" x2="-205.3596" y2="1051.9786" gradientTransform="matrix(1 0 0 -1 219 1106.1949)">
		<stop  offset="0" style="stop-color:#FFFFFF"/>
		<stop  offset="0.9732" style="stop-color:#CACACA"/>
		<stop  offset="1" style="stop-color:#C8C8C8"/>
	</linearGradient>
	<path fill="url(#SVGID_00000180342962373705843550000000970840778607248013_)" d="M17.7,50.4H9.5c-0.5,0-1,0.4-1,1c0,0.5,0.4,1,1,1
		h8.2c0.5,0,1-0.4,1-1C18.7,50.9,18.3,50.4,17.7,50.4z"/>
	
		<linearGradient id="SVGID_00000043425015409406150640000003584366563900530611_" gradientUnits="userSpaceOnUse" x1="-218.2582" y1="1071.4139" x2="-215.3088" y2="1063.4491" gradientTransform="matrix(1 0 0 -1 219 1106.1949)">
		<stop  offset="0" style="stop-color:#525252"/>
		<stop  offset="0.5632" style="stop-color:#3D3D3D"/>
		<stop  offset="1" style="stop-color:#282828"/>
	</linearGradient>
	<path fill="url(#SVGID_00000043425015409406150640000003584366563900530611_)" d="M0.2,42.3c0,0.3,0,0.5,0,0.7
		c0.8-0.6,1.9-1.4,2.7-2c1.6-1.2,2.7-2.1,2.7-3s-2.1-2.6-2.7-2.6c-0.3,0-0.7,0.2-1,0.3C1.3,37.4,0.4,40,0.2,42.3z"/>
	
		<linearGradient id="SVGID_00000054954623408091450900000001809243001264960642_" gradientUnits="userSpaceOnUse" x1="-183.703" y1="1067.9335" x2="-184.1049" y2="1059.6393" gradientTransform="matrix(1 0 0 -1 219 1106.1949)">
		<stop  offset="0" style="stop-color:#FFFFFF"/>
		<stop  offset="0.9732" style="stop-color:#CACACA"/>
		<stop  offset="1" style="stop-color:#C8C8C8"/>
	</linearGradient>
	<path fill="url(#SVGID_00000054954623408091450900000001809243001264960642_)" d="M30.5,45.7c1.1,0.4,6.5,0.2,8.8,0
		c1.6-0.1,4-0.7,5.3-1.1c-2.4-0.7-6.1-1.1-7.4-1.6c-1.7-0.7-8.4-4-11.1-5.6c-0.3,0.5-0.6,1.3-0.6,1.9C25.6,40.2,29.4,45.3,30.5,45.7
		z"/>
	
		<linearGradient id="SVGID_00000154427342561765296490000014611889371943766673_" gradientUnits="userSpaceOnUse" x1="-209.1698" y1="1055.8645" x2="-208.2034" y2="1053.0267" gradientTransform="matrix(1 0 0 -1 219 1106.1949)">
		<stop  offset="0" style="stop-color:#C3DFF4"/>
		<stop  offset="0.1837" style="stop-color:#BDDAF2"/>
		<stop  offset="0.4152" style="stop-color:#ADCDEC"/>
		<stop  offset="0.5551" style="stop-color:#9CC3E8"/>
		<stop  offset="0.8347" style="stop-color:#6FA3D8"/>
		<stop  offset="0.9932" style="stop-color:#5690CC"/>
	</linearGradient>
	<ellipse fill="url(#SVGID_00000154427342561765296490000014611889371943766673_)" cx="10.2" cy="51.4" rx="0.6" ry="0.6"/>
	
		<linearGradient id="SVGID_00000004523191349929454190000002379631168568500669_" gradientUnits="userSpaceOnUse" x1="-205.7322" y1="1055.8672" x2="-204.7658" y2="1053.0293" gradientTransform="matrix(1 0 0 -1 219 1106.1949)">
		<stop  offset="0" style="stop-color:#C3DFF4"/>
		<stop  offset="0.1837" style="stop-color:#BDDAF2"/>
		<stop  offset="0.4152" style="stop-color:#ADCDEC"/>
		<stop  offset="0.5551" style="stop-color:#9CC3E8"/>
		<stop  offset="0.8347" style="stop-color:#6FA3D8"/>
		<stop  offset="0.9932" style="stop-color:#5690CC"/>
	</linearGradient>
	<ellipse fill="url(#SVGID_00000004523191349929454190000002379631168568500669_)" cx="13.6" cy="51.4" rx="0.6" ry="0.6"/>
	
		<linearGradient id="SVGID_00000033348699785922004590000011584497398192799900_" gradientUnits="userSpaceOnUse" x1="-202.2933" y1="1055.8676" x2="-201.3269" y2="1053.0297" gradientTransform="matrix(1 0 0 -1 219 1106.1949)">
		<stop  offset="0" style="stop-color:#C3DFF4"/>
		<stop  offset="0.1837" style="stop-color:#BDDAF2"/>
		<stop  offset="0.4152" style="stop-color:#ADCDEC"/>
		<stop  offset="0.5551" style="stop-color:#9CC3E8"/>
		<stop  offset="0.8347" style="stop-color:#6FA3D8"/>
		<stop  offset="0.9932" style="stop-color:#5690CC"/>
	</linearGradient>
	<ellipse fill="url(#SVGID_00000033348699785922004590000011584497398192799900_)" cx="17.1" cy="51.4" rx="0.6" ry="0.6"/>
	
		<linearGradient id="SVGID_00000047034895854364724830000013407712386086160570_" gradientUnits="userSpaceOnUse" x1="-187.9079" y1="1065.2454" x2="-187.6571" y2="1063.3754" gradientTransform="matrix(1 0 0 -1 219 1106.1949)">
		<stop  offset="0" style="stop-color:#525252"/>
		<stop  offset="0.5632" style="stop-color:#3D3D3D"/>
		<stop  offset="1" style="stop-color:#282828"/>
	</linearGradient>
	<ellipse fill="url(#SVGID_00000047034895854364724830000013407712386086160570_)" cx="31.3" cy="42.3" rx="0.8" ry="0.9"/>
	
		<linearGradient id="SVGID_00000034810258341527671050000010411075867274632105_" gradientUnits="userSpaceOnUse" x1="-184.8091" y1="1068.1097" x2="-188.1919" y2="1063.3029" gradientTransform="matrix(1 0 0 -1 219 1106.1949)">
		<stop  offset="0" style="stop-color:#C3DFF4"/>
		<stop  offset="0.1837" style="stop-color:#BDDAF2"/>
		<stop  offset="0.4152" style="stop-color:#ADCDEC"/>
		<stop  offset="0.5551" style="stop-color:#9CC3E8"/>
		<stop  offset="0.8347" style="stop-color:#6FA3D8"/>
		<stop  offset="0.9932" style="stop-color:#5690CC"/>
	</linearGradient>
	<path fill="url(#SVGID_00000034810258341527671050000010411075867274632105_)" d="M32,40.4L30.9,42c-0.1,0.2-0.1,0.5,0.1,0.7
		c0.2,0.1,0.5,0.1,0.7-0.1l1.1-1.6c0.1-0.2,0.1-0.5-0.1-0.7C32.4,40.1,32.1,40.2,32,40.4z"/>
	
		<linearGradient id="SVGID_00000090995888120535503420000010802159327243959187_" gradientUnits="userSpaceOnUse" x1="-191.6816" y1="1067.1705" x2="-191.4309" y2="1065.3005" gradientTransform="matrix(1 0 0 -1 219 1106.1949)">
		<stop  offset="0" style="stop-color:#525252"/>
		<stop  offset="0.5632" style="stop-color:#3D3D3D"/>
		<stop  offset="1" style="stop-color:#282828"/>
	</linearGradient>
	<ellipse fill="url(#SVGID_00000090995888120535503420000010802159327243959187_)" cx="27.5" cy="40.4" rx="0.8" ry="0.9"/>
	
		<linearGradient id="SVGID_00000029725288346117063170000003231579483194410668_" gradientUnits="userSpaceOnUse" x1="-188.5728" y1="1070.0292" x2="-191.9635" y2="1065.2305" gradientTransform="matrix(1 0 0 -1 219 1106.1949)">
		<stop  offset="0" style="stop-color:#C3DFF4"/>
		<stop  offset="0.1837" style="stop-color:#BDDAF2"/>
		<stop  offset="0.4152" style="stop-color:#ADCDEC"/>
		<stop  offset="0.5551" style="stop-color:#9CC3E8"/>
		<stop  offset="0.8347" style="stop-color:#6FA3D8"/>
		<stop  offset="0.9932" style="stop-color:#5690CC"/>
	</linearGradient>
	<path fill="url(#SVGID_00000029725288346117063170000003231579483194410668_)" d="M28.2,38.5l-1.1,1.6c-0.1,0.2-0.1,0.5,0.1,0.7
		c0.2,0.1,0.5,0.1,0.7-0.1L29,39c0.1-0.2,0.1-0.5-0.1-0.7C28.6,38.2,28.3,38.2,28.2,38.5z"/>
	
		<linearGradient id="SVGID_00000155867426366482097790000015246092527236555438_" gradientUnits="userSpaceOnUse" x1="-195.0624" y1="1069.5312" x2="-194.8607" y2="1067.6552" gradientTransform="matrix(1 0 0 -1 219 1106.1949)">
		<stop  offset="0" style="stop-color:#525252"/>
		<stop  offset="0.5632" style="stop-color:#3D3D3D"/>
		<stop  offset="1" style="stop-color:#282828"/>
	</linearGradient>
	<ellipse fill="url(#SVGID_00000155867426366482097790000015246092527236555438_)" cx="24.1" cy="38" rx="0.8" ry="0.9"/>
	
		<linearGradient id="SVGID_00000168088462460303629360000009322973360682938521_" gradientUnits="userSpaceOnUse" x1="-191.9296" y1="1072.3494" x2="-195.3769" y2="1067.5695" gradientTransform="matrix(1 0 0 -1 219 1106.1949)">
		<stop  offset="0" style="stop-color:#C3DFF4"/>
		<stop  offset="0.1837" style="stop-color:#BDDAF2"/>
		<stop  offset="0.4152" style="stop-color:#ADCDEC"/>
		<stop  offset="0.5551" style="stop-color:#9CC3E8"/>
		<stop  offset="0.8347" style="stop-color:#6FA3D8"/>
		<stop  offset="0.9932" style="stop-color:#5690CC"/>
	</linearGradient>
	<path fill="url(#SVGID_00000168088462460303629360000009322973360682938521_)" d="M24.8,36.1l-1.1,1.6c-0.2,0.2-0.1,0.5,0.1,0.7
		c0.2,0.2,0.5,0.1,0.7-0.1l1.1-1.6c0.2-0.2,0.1-0.5-0.1-0.7C25.3,35.9,25,35.9,24.8,36.1z"/>
	
		<linearGradient id="SVGID_00000085222872365205012550000004408435167915922093_" gradientUnits="userSpaceOnUse" x1="-198.6201" y1="1071.7947" x2="-198.4184" y2="1069.9186" gradientTransform="matrix(1 0 0 -1 219 1106.1949)">
		<stop  offset="0" style="stop-color:#525252"/>
		<stop  offset="0.5632" style="stop-color:#3D3D3D"/>
		<stop  offset="1" style="stop-color:#282828"/>
	</linearGradient>
	<ellipse fill="url(#SVGID_00000085222872365205012550000004408435167915922093_)" cx="20.5" cy="35.7" rx="0.8" ry="0.9"/>
	
		<linearGradient id="SVGID_00000078726485210697912780000003114923521445094833_" gradientUnits="userSpaceOnUse" x1="-194.4773" y1="1075.4321" x2="-199.0812" y2="1069.8928" gradientTransform="matrix(1 0 0 -1 219 1106.1949)">
		<stop  offset="0" style="stop-color:#C3DFF4"/>
		<stop  offset="0.1837" style="stop-color:#BDDAF2"/>
		<stop  offset="0.4152" style="stop-color:#ADCDEC"/>
		<stop  offset="0.5551" style="stop-color:#9CC3E8"/>
		<stop  offset="0.8347" style="stop-color:#6FA3D8"/>
		<stop  offset="0.9932" style="stop-color:#5690CC"/>
	</linearGradient>
	<path fill="url(#SVGID_00000078726485210697912780000003114923521445094833_)" d="M21.6,33.4l-1.4,2c-0.2,0.3-0.2,0.6,0,0.8
		c0.2,0.2,0.5,0.1,0.7-0.2l1.4-2c0.2-0.3,0.2-0.6,0-0.8C22.1,33,21.8,33.1,21.6,33.4z"/>
</g>
</svg>
