<?xml version="1.0" encoding="utf-8"?>
<!-- Generator: Adobe Illustrator 28.3.0, SVG Export Plug-In . SVG Version: 6.00 Build 0)  -->
<svg version="1.1" id="Layer_1" xmlns="http://www.w3.org/2000/svg" xmlns:xlink="http://www.w3.org/1999/xlink" x="0px" y="0px"
	 viewBox="0 0 46 62.7" enable-background="new 0 0 46 62.7" xml:space="preserve">
<g>
	
		<linearGradient id="SVGID_1_" gradientUnits="userSpaceOnUse" x1="-207.4098" y1="1099.7399" x2="-186.7704" y2="1037.1154" gradientTransform="matrix(1 0 0 -1 219 1114.4633)">
		<stop  offset="0" style="stop-color:#C3DFF4"/>
		<stop  offset="0.1837" style="stop-color:#BDDAF2"/>
		<stop  offset="0.4152" style="stop-color:#ADCDEC"/>
		<stop  offset="0.5551" style="stop-color:#9CC3E8"/>
		<stop  offset="0.8347" style="stop-color:#6FA3D8"/>
		<stop  offset="0.9932" style="stop-color:#5690CC"/>
	</linearGradient>
	<rect x="2.1" y="22.1" fill="url(#SVGID_1_)" width="35.5" height="35.4"/>
	
		<linearGradient id="SVGID_00000166657012543127558660000001006127592834014885_" gradientUnits="userSpaceOnUse" x1="-199.1552" y1="1099.1173" x2="-199.144" y2="1085.2129" gradientTransform="matrix(1 0 0 -1 219 1114.4633)">
		<stop  offset="0" style="stop-color:#B4B4B4"/>
		<stop  offset="0.2058" style="stop-color:#989898"/>
		<stop  offset="0.5521" style="stop-color:#737374"/>
		<stop  offset="0.829" style="stop-color:#5B5B5B"/>
		<stop  offset="1" style="stop-color:#525252"/>
	</linearGradient>
	<path fill="url(#SVGID_00000166657012543127558660000001006127592834014885_)" d="M38.2,22.1H1.5c-0.8,0-1.5-0.7-1.5-1.5v-0.1
		c0-0.8,0.7-1.5,1.5-1.5h36.8c0.8,0,1.5,0.7,1.5,1.5v0.1C39.7,21.4,39.1,22.1,38.2,22.1z"/>
	
		<linearGradient id="SVGID_00000111883372529240299970000005576741316514822540_" gradientUnits="userSpaceOnUse" x1="-199.1537" y1="1100.6738" x2="-199.1479" y2="1089.0912" gradientTransform="matrix(1 0 0 -1 219 1114.4633)">
		<stop  offset="0" style="stop-color:#B4B4B4"/>
		<stop  offset="0.2058" style="stop-color:#989898"/>
		<stop  offset="0.5521" style="stop-color:#737374"/>
		<stop  offset="0.829" style="stop-color:#5B5B5B"/>
		<stop  offset="1" style="stop-color:#525252"/>
	</linearGradient>
	<path fill="url(#SVGID_00000111883372529240299970000005576741316514822540_)" d="M37.7,19.1H2c0,0,0,0,0,0c0-1.2,1-2.1,2.1-2.1
		h31.4C36.7,16.9,37.7,17.9,37.7,19.1C37.7,19.1,37.7,19.1,37.7,19.1z"/>
	
		<linearGradient id="SVGID_00000098196490182598646610000000005912008309951375_" gradientUnits="userSpaceOnUse" x1="-199.1555" y1="1100.9305" x2="-199.1463" y2="1093.9918" gradientTransform="matrix(1 0 0 -1 219 1114.4633)">
		<stop  offset="0" style="stop-color:#B4B4B4"/>
		<stop  offset="0.2058" style="stop-color:#989898"/>
		<stop  offset="0.5521" style="stop-color:#737374"/>
		<stop  offset="0.829" style="stop-color:#5B5B5B"/>
		<stop  offset="1" style="stop-color:#525252"/>
	</linearGradient>
	<path fill="url(#SVGID_00000098196490182598646610000000005912008309951375_)" d="M28.8,16.9H10.9c0,0,0,0,0,0c0-1,0.5-1.7,1.1-1.7
		h15.7C28.3,15.2,28.8,16,28.8,16.9z"/>
	
		<linearGradient id="SVGID_00000104676581276172683140000001824863467575295119_" gradientUnits="userSpaceOnUse" x1="-199.1519" y1="1069.2478" x2="-199.1409" y2="1048.3025" gradientTransform="matrix(1 0 0 -1 219 1114.4633)">
		<stop  offset="0" style="stop-color:#B4B4B4"/>
		<stop  offset="0.2058" style="stop-color:#989898"/>
		<stop  offset="0.5521" style="stop-color:#737374"/>
		<stop  offset="0.829" style="stop-color:#5B5B5B"/>
		<stop  offset="1" style="stop-color:#525252"/>
	</linearGradient>
	<path fill="url(#SVGID_00000104676581276172683140000001824863467575295119_)" d="M2,60.5h35.6c0,0,0,0,0,0c0,1.2-1,2.1-2.1,2.1
		H4.2C3,62.7,2,61.7,2,60.5C2,60.5,2,60.5,2,60.5z"/>
	
		<linearGradient id="SVGID_00000017503005977652621790000012528358926335910587_" gradientUnits="userSpaceOnUse" x1="-199.1538" y1="1061.9323" x2="-199.1471" y2="1046.3247" gradientTransform="matrix(1 0 0 -1 219 1114.4633)">
		<stop  offset="0" style="stop-color:#B4B4B4"/>
		<stop  offset="0.2058" style="stop-color:#989898"/>
		<stop  offset="0.5521" style="stop-color:#737374"/>
		<stop  offset="0.829" style="stop-color:#5B5B5B"/>
		<stop  offset="1" style="stop-color:#525252"/>
	</linearGradient>
	<path fill="url(#SVGID_00000017503005977652621790000012528358926335910587_)" d="M38.3,60.6H1.4C0.6,60.6,0,60,0,59.2v-0.3
		c0-0.8,0.6-1.4,1.4-1.4h36.9c0.8,0,1.4,0.6,1.4,1.4v0.3C39.7,60,39.1,60.6,38.3,60.6z"/>
	
		<linearGradient id="SVGID_00000054237080691477056710000009562515970655979146_" gradientUnits="userSpaceOnUse" x1="-199.3076" y1="1072.3599" x2="-198.6203" y2="1041.9073" gradientTransform="matrix(1 0 0 -1 219 1114.4633)">
		<stop  offset="9.234780e-03" style="stop-color:#FFFFFF"/>
		<stop  offset="0.138" style="stop-color:#F5FBFE"/>
		<stop  offset="0.3595" style="stop-color:#DAEAF8"/>
		<stop  offset="0.511" style="stop-color:#C3DFF4"/>
		<stop  offset="1" style="stop-color:#ADCDEC"/>
	</linearGradient>
	<rect x="8.8" y="44" fill="url(#SVGID_00000054237080691477056710000009562515970655979146_)" width="22" height="10.6"/>
	
		<linearGradient id="SVGID_00000093857377243885568930000016861375284619211690_" gradientUnits="userSpaceOnUse" x1="-199.9184" y1="1066.9652" x2="-194.4065" y2="1054.0607" gradientTransform="matrix(1 0 0 -1 219 1114.4633)">
		<stop  offset="0" style="stop-color:#F26722"/>
		<stop  offset="0.3678" style="stop-color:#F26122"/>
		<stop  offset="0.9685" style="stop-color:#DB5026"/>
		<stop  offset="1" style="stop-color:#DB5026"/>
	</linearGradient>
	<ellipse fill="url(#SVGID_00000093857377243885568930000016861375284619211690_)" cx="19.8" cy="49.3" rx="2" ry="2"/>
	
		<linearGradient id="SVGID_00000019668256415681442590000004715045162314269627_" gradientUnits="userSpaceOnUse" x1="-238.8921" y1="1074.7448" x2="-203.6653" y2="1074.6227" gradientTransform="matrix(1 0 0 -1 219 1114.4633)">
		<stop  offset="0" style="stop-color:#B4B4B4"/>
		<stop  offset="0.2058" style="stop-color:#989898"/>
		<stop  offset="0.5521" style="stop-color:#737374"/>
		<stop  offset="0.829" style="stop-color:#5B5B5B"/>
		<stop  offset="1" style="stop-color:#525252"/>
	</linearGradient>
	<path fill="url(#SVGID_00000019668256415681442590000004715045162314269627_)" d="M2.1,22.1h2.6v35.4H2.1V22.1z"/>
	
		<linearGradient id="SVGID_00000183935571678304383390000012516066952228856246_" gradientUnits="userSpaceOnUse" x1="-216.7155" y1="1094.1404" x2="-214.0162" y2="1087.7473" gradientTransform="matrix(1 0 0 -1 219 1114.4633)">
		<stop  offset="0" style="stop-color:#B4B4B4"/>
		<stop  offset="0.2058" style="stop-color:#989898"/>
		<stop  offset="0.5521" style="stop-color:#737374"/>
		<stop  offset="0.829" style="stop-color:#5B5B5B"/>
		<stop  offset="1" style="stop-color:#525252"/>
	</linearGradient>
	<path fill="url(#SVGID_00000183935571678304383390000012516066952228856246_)" d="M2.1,25.3h2.5c0.9-1.1,0.8-3.2,0.8-3.2H1.3
		C1.3,22.1,1.2,24.3,2.1,25.3z"/>
	
		<linearGradient id="SVGID_00000161599160133784409860000002645054503770249141_" gradientUnits="userSpaceOnUse" x1="-216.9877" y1="1061.7858" x2="-214.6455" y2="1054.9163" gradientTransform="matrix(1 0 0 -1 219 1114.4633)">
		<stop  offset="0" style="stop-color:#B4B4B4"/>
		<stop  offset="0.2058" style="stop-color:#989898"/>
		<stop  offset="0.5521" style="stop-color:#737374"/>
		<stop  offset="0.829" style="stop-color:#5B5B5B"/>
		<stop  offset="1" style="stop-color:#525252"/>
	</linearGradient>
	<path fill="url(#SVGID_00000161599160133784409860000002645054503770249141_)" d="M4.7,54.3H2.1c-0.9,1.1-0.8,3.2-0.8,3.2h4.2
		C5.5,57.5,5.6,55.3,4.7,54.3z"/>
	
		<linearGradient id="SVGID_00000076564391161545189510000014720592961862618018_" gradientUnits="userSpaceOnUse" x1="-206.0578" y1="1074.7448" x2="-170.8309" y2="1074.6227" gradientTransform="matrix(1 0 0 -1 219 1114.4633)">
		<stop  offset="0" style="stop-color:#B4B4B4"/>
		<stop  offset="0.2058" style="stop-color:#989898"/>
		<stop  offset="0.5521" style="stop-color:#737374"/>
		<stop  offset="0.829" style="stop-color:#5B5B5B"/>
		<stop  offset="1" style="stop-color:#525252"/>
	</linearGradient>
	<path fill="url(#SVGID_00000076564391161545189510000014720592961862618018_)" d="M34.9,22.1h2.6v35.4h-2.6V22.1z"/>
	
		<linearGradient id="SVGID_00000145780538693272339130000017500680756476203185_" gradientUnits="userSpaceOnUse" x1="-183.8827" y1="1094.1398" x2="-181.1833" y2="1087.7467" gradientTransform="matrix(1 0 0 -1 219 1114.4633)">
		<stop  offset="0" style="stop-color:#B4B4B4"/>
		<stop  offset="0.2058" style="stop-color:#989898"/>
		<stop  offset="0.5521" style="stop-color:#737374"/>
		<stop  offset="0.829" style="stop-color:#5B5B5B"/>
		<stop  offset="1" style="stop-color:#525252"/>
	</linearGradient>
	<path fill="url(#SVGID_00000145780538693272339130000017500680756476203185_)" d="M35,25.3h2.5c0.9-1.1,0.8-3.2,0.8-3.2h-4.1
		C34.1,22.1,34,24.3,35,25.3z"/>
	
		<linearGradient id="SVGID_00000164498298934848749200000001590704599764246692_" gradientUnits="userSpaceOnUse" x1="-184.155" y1="1061.7853" x2="-181.8128" y2="1054.9158" gradientTransform="matrix(1 0 0 -1 219 1114.4633)">
		<stop  offset="0" style="stop-color:#B4B4B4"/>
		<stop  offset="0.2058" style="stop-color:#989898"/>
		<stop  offset="0.5521" style="stop-color:#737374"/>
		<stop  offset="0.829" style="stop-color:#5B5B5B"/>
		<stop  offset="1" style="stop-color:#525252"/>
	</linearGradient>
	<path fill="url(#SVGID_00000164498298934848749200000001590704599764246692_)" d="M37.5,54.3h-2.6c-0.9,1.1-0.8,3.2-0.8,3.2h4.2
		C38.4,57.5,38.4,55.3,37.5,54.3z"/>
	
		<linearGradient id="SVGID_00000088133707310223975450000001794292861807505312_" gradientUnits="userSpaceOnUse" x1="-189.2677" y1="1119.8248" x2="-189.1716" y2="1099.498" gradientTransform="matrix(1 0 0 -1 219 1114.4633)">
		<stop  offset="0" style="stop-color:#FFFFFF"/>
		<stop  offset="0.2913" style="stop-color:#F3F3F3"/>
		<stop  offset="0.81" style="stop-color:#D6D5D5"/>
		<stop  offset="1" style="stop-color:#C8C8C8"/>
	</linearGradient>
	<path fill="url(#SVGID_00000088133707310223975450000001794292861807505312_)" d="M43,9.4H39h-1.1h-7.7c-0.6,0-1.1-0.5-1.1-1.1h-9
		c-2,0-3.6,1.6-3.6,3.5h11.6h0.9H39c0-0.7,0.6-1.3,1.3-1.3h1.4C42.4,10.6,43,10.1,43,9.4z"/>
	
		<linearGradient id="SVGID_00000111893962422580055980000007546598183293459384_" gradientUnits="userSpaceOnUse" x1="-199.5559" y1="1091.705" x2="-197.8175" y2="1048.399" gradientTransform="matrix(1 0 0 -1 219 1114.4633)">
		<stop  offset="9.234780e-03" style="stop-color:#FFFFFF"/>
		<stop  offset="0.138" style="stop-color:#F5FBFE"/>
		<stop  offset="0.3595" style="stop-color:#DAEAF8"/>
		<stop  offset="0.511" style="stop-color:#C3DFF4"/>
		<stop  offset="1" style="stop-color:#ADCDEC"/>
	</linearGradient>
	<path fill="url(#SVGID_00000111893962422580055980000007546598183293459384_)" d="M32.4,39.1V26.9c-1,0-1.9-0.8-1.9-1.9H9.2
		c0,1-0.9,1.9-1.9,1.9v12.2c1,0,1.9,0.8,1.9,1.9h21.2C30.5,39.9,31.3,39.1,32.4,39.1z"/>
	
		<linearGradient id="SVGID_00000031905384187707718640000011964538940374608806_" gradientUnits="userSpaceOnUse" x1="-200.9623" y1="1095.6594" x2="-196.8126" y2="1063.2552" gradientTransform="matrix(1 0 0 -1 219 1114.4633)">
		<stop  offset="0" style="stop-color:#C3DFF4"/>
		<stop  offset="0.1837" style="stop-color:#BDDAF2"/>
		<stop  offset="0.4152" style="stop-color:#ADCDEC"/>
		<stop  offset="0.5551" style="stop-color:#9CC3E8"/>
		<stop  offset="0.8347" style="stop-color:#6FA3D8"/>
		<stop  offset="0.9932" style="stop-color:#5690CC"/>
	</linearGradient>
	<path fill="url(#SVGID_00000031905384187707718640000011964538940374608806_)" d="M10.4,39.5c-0.3-0.7-0.9-1.2-1.6-1.5V28
		c0.7-0.3,1.2-0.9,1.6-1.5h18.9c0.3,0.7,0.9,1.2,1.6,1.5v9.9c-0.7,0.3-1.2,0.9-1.6,1.5H10.4z"/>
	
		<linearGradient id="SVGID_00000075866543915710985550000009989479883830350249_" gradientUnits="userSpaceOnUse" x1="-199.3309" y1="1108.6591" x2="-199.0942" y2="1095.5017" gradientTransform="matrix(1 0 0 -1 219 1114.4633)">
		<stop  offset="0" style="stop-color:#C8C8C8"/>
		<stop  offset="0.379" style="stop-color:#C8C8C8"/>
		<stop  offset="0.4896" style="stop-color:#C3C3C3"/>
		<stop  offset="0.629" style="stop-color:#B4B4B4"/>
		<stop  offset="0.7837" style="stop-color:#9B9A99"/>
		<stop  offset="0.9485" style="stop-color:#787877"/>
		<stop  offset="1" style="stop-color:#6C6B6A"/>
	</linearGradient>
	<path fill="url(#SVGID_00000075866543915710985550000009989479883830350249_)" d="M24.3,12.5c-0.4-0.3-0.8-0.4-1.3-0.6h-6.4
		c-0.4,0.1-0.9,0.3-1.3,0.6c-1.8,1.1-2.8,2.7-2.8,2.7h7.2h7.2C27.1,15.2,26.1,13.6,24.3,12.5z"/>
	
		<linearGradient id="SVGID_00000111904606633686261210000003632416672260348312_" gradientUnits="userSpaceOnUse" x1="-176.9056" y1="1115.2855" x2="-176.8229" y2="1113.4198" gradientTransform="matrix(1 0 0 -1 219 1114.4633)">
		<stop  offset="0" style="stop-color:#B4B4B4"/>
		<stop  offset="0.2058" style="stop-color:#989898"/>
		<stop  offset="0.5521" style="stop-color:#737374"/>
		<stop  offset="0.829" style="stop-color:#5B5B5B"/>
		<stop  offset="1" style="stop-color:#525252"/>
	</linearGradient>
	<path fill="url(#SVGID_00000111904606633686261210000003632416672260348312_)" d="M42.4,0h-0.5C41.4,0,41,0.4,41,0.9h2.3
		C43.3,0.4,42.9,0,42.4,0z"/>
	
		<linearGradient id="SVGID_00000143601095896638151540000007111941322737306762_" gradientUnits="userSpaceOnUse" x1="-177.6949" y1="1113.4618" x2="-176.5364" y2="1106.7594" gradientTransform="matrix(1 0 0 -1 219 1114.4633)">
		<stop  offset="0" style="stop-color:#B4B4B4"/>
		<stop  offset="0.2058" style="stop-color:#989898"/>
		<stop  offset="0.5521" style="stop-color:#737374"/>
		<stop  offset="0.829" style="stop-color:#5B5B5B"/>
		<stop  offset="1" style="stop-color:#525252"/>
	</linearGradient>
	<path fill="url(#SVGID_00000143601095896638151540000007111941322737306762_)" d="M44.4,4.4L44.4,4.4l-2.2-0.1h-2.2v0.1
		c0.8,0.2,1.4,0.9,1.4,1.7s-0.6,1.5-1.4,1.7v0h2.2h2.2v0C43.6,7.6,43,6.9,43,6.1S43.6,4.5,44.4,4.4z"/>
	
		<linearGradient id="SVGID_00000015318437436952697590000009822649483714505357_" gradientUnits="userSpaceOnUse" x1="-177.1161" y1="1116.8518" x2="-176.7297" y2="1110.1813" gradientTransform="matrix(1 0 0 -1 219 1114.4633)">
		<stop  offset="0" style="stop-color:#B4B4B4"/>
		<stop  offset="0.2058" style="stop-color:#989898"/>
		<stop  offset="0.5521" style="stop-color:#737374"/>
		<stop  offset="0.829" style="stop-color:#5B5B5B"/>
		<stop  offset="1" style="stop-color:#525252"/>
	</linearGradient>
	<path fill="url(#SVGID_00000015318437436952697590000009822649483714505357_)" d="M44.3,4.4h-4.2c-1,0-1.7-0.8-1.7-1.7
		c0-1,0.8-1.7,1.7-1.7h4.2c1,0,1.7,0.8,1.7,1.7C46,3.6,45.2,4.4,44.3,4.4z"/>
	
		<linearGradient id="SVGID_00000072260846652141548030000009005949366190684046_" gradientUnits="userSpaceOnUse" x1="-176.9001" y1="1108.725" x2="-176.7612" y2="1105.1979" gradientTransform="matrix(1 0 0 -1 219 1114.4633)">
		<stop  offset="0" style="stop-color:#B4B4B4"/>
		<stop  offset="0.2058" style="stop-color:#989898"/>
		<stop  offset="0.5521" style="stop-color:#737374"/>
		<stop  offset="0.829" style="stop-color:#5B5B5B"/>
		<stop  offset="1" style="stop-color:#525252"/>
	</linearGradient>
	<path fill="url(#SVGID_00000072260846652141548030000009005949366190684046_)" d="M42.7,9.5h-1.1c-0.9,0-1.7-0.8-1.7-1.7h4.5
		C44.4,8.7,43.7,9.5,42.7,9.5z"/>
</g>
</svg>
