<?xml version="1.0" encoding="utf-8"?>
<!-- Generator: Adobe Illustrator 28.3.0, SVG Export Plug-In . SVG Version: 6.00 Build 0)  -->
<svg version="1.1" id="Layer_1" xmlns="http://www.w3.org/2000/svg" xmlns:xlink="http://www.w3.org/1999/xlink" x="0px" y="0px"
	 viewBox="0 0 52 47.9" enable-background="new 0 0 52 47.9" xml:space="preserve">
<g>
	
		<linearGradient id="SVGID_1_" gradientUnits="userSpaceOnUse" x1="-193.0519" y1="1063.1833" x2="-193.0519" y2="1056.818" gradientTransform="matrix(1 0 0 -1 219 1099.6388)">
		<stop  offset="0" style="stop-color:#6C6B6A"/>
		<stop  offset="0.3508" style="stop-color:#D7D7D7"/>
		<stop  offset="0.4296" style="stop-color:#D3D3D3"/>
		<stop  offset="0.5245" style="stop-color:#C3C3C3"/>
		<stop  offset="0.6273" style="stop-color:#ACACAC"/>
		<stop  offset="0.6311" style="stop-color:#ABABAB"/>
		<stop  offset="0.7097" style="stop-color:#B0B0B0"/>
		<stop  offset="0.8023" style="stop-color:#BDBDBD"/>
		<stop  offset="0.9015" style="stop-color:#D6D5D5"/>
		<stop  offset="0.92" style="stop-color:#DBDADA"/>
	</linearGradient>
	<path fill="url(#SVGID_1_)" d="M25.9,42.8c0,0,4.9,0,6.6,0s1.8-0.4,1.8-0.7c0-0.3-0.5-0.6-1.1-1.1c-0.6-0.4-1.1-1-1.3-1.3
		c-0.1-0.3-0.2-0.6-0.3-1.4c-0.1-0.8-0.3-2.6-0.3-2.6h-5.4h-5.4c0,0-0.2,1.8-0.3,2.6c-0.1,0.8-0.2,1.1-0.3,1.4
		c-0.1,0.3-0.7,0.9-1.3,1.3c-0.6,0.4-1.1,0.8-1.1,1.1c0,0.3,0.1,0.7,1.8,0.7S25.9,42.8,25.9,42.8z"/>
	
		<linearGradient id="SVGID_00000134947920847708933520000009782279037303345327_" gradientUnits="userSpaceOnUse" x1="-194.7599" y1="1107.2139" x2="-191.2195" y2="1052.9365" gradientTransform="matrix(1 0 0 -1 219 1099.6388)">
		<stop  offset="0" style="stop-color:#D7D7D7"/>
		<stop  offset="0.4529" style="stop-color:#CBCBCB"/>
		<stop  offset="0.5583" style="stop-color:#C8C8C8"/>
		<stop  offset="0.637" style="stop-color:#C3C3C3"/>
		<stop  offset="0.7361" style="stop-color:#B4B4B4"/>
		<stop  offset="0.8462" style="stop-color:#9B9A99"/>
		<stop  offset="0.9633" style="stop-color:#787877"/>
		<stop  offset="1" style="stop-color:#6C6B6A"/>
	</linearGradient>
	<path fill="url(#SVGID_00000134947920847708933520000009782279037303345327_)" d="M50.5,36.8H1.4c-0.8,0-1.4-0.6-1.4-1.4v-34
		C0,0.6,0.6,0,1.4,0h49.1c0.8,0,1.4,0.6,1.4,1.4v34C51.9,36.2,51.2,36.8,50.5,36.8z"/>
	
		<linearGradient id="SVGID_00000013185858001266817010000006962057336975952574_" gradientUnits="userSpaceOnUse" x1="-189.9954" y1="1052.5967" x2="-194.7755" y2="1099.1611" gradientTransform="matrix(1 0 0 -1 219 1099.6388)">
		<stop  offset="0" style="stop-color:#D7D7D7"/>
		<stop  offset="0.4529" style="stop-color:#CBCBCB"/>
		<stop  offset="0.5583" style="stop-color:#C8C8C8"/>
		<stop  offset="0.637" style="stop-color:#C3C3C3"/>
		<stop  offset="0.7361" style="stop-color:#B4B4B4"/>
		<stop  offset="0.8462" style="stop-color:#9B9A99"/>
		<stop  offset="0.9633" style="stop-color:#787877"/>
		<stop  offset="1" style="stop-color:#6C6B6A"/>
	</linearGradient>
	<rect x="2.5" y="2.8" fill="url(#SVGID_00000013185858001266817010000006962057336975952574_)" width="46.9" height="28.5"/>
	
		<linearGradient id="SVGID_00000021834564362594538040000003621145147110270097_" gradientUnits="userSpaceOnUse" x1="-197.6503" y1="1108.229" x2="-188.5172" y2="1057.0303" gradientTransform="matrix(1 0 0 -1 219 1099.6388)">
		<stop  offset="0" style="stop-color:#525252"/>
		<stop  offset="0.5632" style="stop-color:#3D3D3D"/>
		<stop  offset="1" style="stop-color:#282828"/>
	</linearGradient>
	<rect x="2.9" y="3.2" fill="url(#SVGID_00000021834564362594538040000003621145147110270097_)" width="46.1" height="27.7"/>
	
		<linearGradient id="SVGID_00000052792428229261549440000011991621631054390202_" gradientUnits="userSpaceOnUse" x1="-193.8522" y1="1067.0629" x2="-192.274" y2="1063.9645" gradientTransform="matrix(1 0 0 -1 219 1099.6388)">
		<stop  offset="0" style="stop-color:#525252"/>
		<stop  offset="0.5632" style="stop-color:#3D3D3D"/>
		<stop  offset="1" style="stop-color:#282828"/>
	</linearGradient>
	<path fill="url(#SVGID_00000052792428229261549440000011991621631054390202_)" d="M26.5,33.7c0-0.2,0.1-0.4,0.2-0.5
		c-0.2-0.2-0.5-0.3-0.7-0.3c-0.7,0-1.2,0.5-1.2,1.2c0,0.7,0.5,1.2,1.2,1.2c0.5,0,1-0.4,1.1-0.8C26.8,34.3,26.5,34,26.5,33.7z"/>
	
		<linearGradient id="SVGID_00000182492182516970080840000002825436934673819555_" gradientUnits="userSpaceOnUse" x1="-198.6048" y1="1100.8562" x2="-204.1847" y2="1078.0865" gradientTransform="matrix(1 0 0 -1 219 1099.6388)">
		<stop  offset="5.328530e-03" style="stop-color:#FFFFFF"/>
		<stop  offset="1" style="stop-color:#FFFFFF;stop-opacity:1.000000e-02"/>
	</linearGradient>
	<path opacity="0.15" fill="url(#SVGID_00000182492182516970080840000002825436934673819555_)" enable-background="new    " d="
		M2.9,3.2v27.7H8L35.7,3.2H2.9z"/>
	
		<linearGradient id="SVGID_00000070083704274665299960000013193667849617955204_" gradientUnits="userSpaceOnUse" x1="-187.3659" y1="1096.7186" x2="-191.6722" y2="1073.8281" gradientTransform="matrix(1 0 0 -1 219 1099.6388)">
		<stop  offset="5.328530e-03" style="stop-color:#FFFFFF"/>
		<stop  offset="1" style="stop-color:#FFFFFF;stop-opacity:1.000000e-02"/>
	</linearGradient>
	<path opacity="0.15" fill="url(#SVGID_00000070083704274665299960000013193667849617955204_)" enable-background="new    " d="
		M10.2,30.9H20L47.7,3.2H38L10.2,30.9z"/>
	
		<linearGradient id="SVGID_00000183927135113468976140000000943109393441883804_" gradientUnits="userSpaceOnUse" x1="-193.0779" y1="1049.0912" x2="-193.0781" y2="1053.0038" gradientTransform="matrix(1 0 0 -1 219 1099.6388)">
		<stop  offset="0" style="stop-color:#D7D7D7"/>
		<stop  offset="0.3954" style="stop-color:#C8C8C8"/>
		<stop  offset="0.5031" style="stop-color:#C3C3C3"/>
		<stop  offset="0.6388" style="stop-color:#B4B4B4"/>
		<stop  offset="0.7894" style="stop-color:#9B9A99"/>
		<stop  offset="0.9498" style="stop-color:#787877"/>
		<stop  offset="1" style="stop-color:#6C6B6A"/>
	</linearGradient>
	<path fill="url(#SVGID_00000183927135113468976140000000943109393441883804_)" d="M40.8,46.9h-0.5l-2-1.9H25.9H13.6l-2,1.9h-0.5
		v0.7c0,0.2,0.2,0.3,0.4,0.3h14.5h14.5c0.2,0,0.3-0.1,0.4-0.3L40.8,46.9L40.8,46.9z"/>
	
		<linearGradient id="SVGID_00000026145143721247616030000017287057745927803824_" gradientUnits="userSpaceOnUse" x1="-193.0833" y1="1055.8368" x2="-193.0602" y2="1046.7073" gradientTransform="matrix(1 0 0 -1 219 1099.6388)">
		<stop  offset="0" style="stop-color:#D7D7D7"/>
		<stop  offset="0.4529" style="stop-color:#CBCBCB"/>
		<stop  offset="0.5583" style="stop-color:#C8C8C8"/>
		<stop  offset="0.637" style="stop-color:#C3C3C3"/>
		<stop  offset="0.7361" style="stop-color:#B4B4B4"/>
		<stop  offset="0.8462" style="stop-color:#9B9A99"/>
		<stop  offset="0.9633" style="stop-color:#787877"/>
		<stop  offset="1" style="stop-color:#6C6B6A"/>
	</linearGradient>
	<path fill="url(#SVGID_00000026145143721247616030000017287057745927803824_)" d="M38.3,44.4H25.9H13.6l-2.4,2.3
		c-0.2,0.2-0.1,0.6,0.2,0.6h14.5h14.5c0.3,0,0.5-0.4,0.2-0.6L38.3,44.4z"/>
	
		<linearGradient id="SVGID_00000168114199155504419660000009902686221179634847_" gradientUnits="userSpaceOnUse" x1="-172.971" y1="1048.9443" x2="-172.7835" y2="1056.4237" gradientTransform="matrix(1 0 0 -1 219 1099.6388)">
		<stop  offset="0" style="stop-color:#D7D7D7"/>
		<stop  offset="0.4529" style="stop-color:#CBCBCB"/>
		<stop  offset="0.5583" style="stop-color:#C8C8C8"/>
		<stop  offset="0.637" style="stop-color:#C3C3C3"/>
		<stop  offset="0.7361" style="stop-color:#B4B4B4"/>
		<stop  offset="0.8462" style="stop-color:#9B9A99"/>
		<stop  offset="0.9633" style="stop-color:#787877"/>
		<stop  offset="1" style="stop-color:#6C6B6A"/>
	</linearGradient>
	<path fill="url(#SVGID_00000168114199155504419660000009902686221179634847_)" d="M40.8,42.9c0,0,0.3,0.6,3,1.6
		c2.7,1,5.3,1.5,6.3,1.4c0.9-0.1,1.7-0.6,1.7-0.6s-5.1-2.5-7.2-2.7C42.3,42.3,41.1,42.6,40.8,42.9z"/>
	
		<linearGradient id="SVGID_00000049204403680776179750000012698483740549276550_" gradientUnits="userSpaceOnUse" x1="-173.8915" y1="1060.2848" x2="-171.6453" y2="1052.7197" gradientTransform="matrix(1 0 0 -1 219 1099.6388)">
		<stop  offset="0" style="stop-color:#D7D7D7"/>
		<stop  offset="0.4529" style="stop-color:#CBCBCB"/>
		<stop  offset="0.5583" style="stop-color:#C8C8C8"/>
		<stop  offset="0.637" style="stop-color:#C3C3C3"/>
		<stop  offset="0.7361" style="stop-color:#B4B4B4"/>
		<stop  offset="0.8462" style="stop-color:#9B9A99"/>
		<stop  offset="0.9633" style="stop-color:#787877"/>
		<stop  offset="1" style="stop-color:#6C6B6A"/>
	</linearGradient>
	<path fill="url(#SVGID_00000049204403680776179750000012698483740549276550_)" d="M40.8,42.9c0,0,1.2-0.4,2.7,0.1
		c1.5,0.5,2.4,2,4.7,2.4c2.3,0.4,3.7,0.1,3.8-0.8c0.1-0.9-1.1-2.2-3.9-2.8C45.3,41.3,43.3,41.4,40.8,42.9z"/>
</g>
</svg>
