<?xml version="1.0" encoding="utf-8"?>
<!-- Generator: Adobe Illustrator 28.3.0, SVG Export Plug-In . SVG Version: 6.00 Build 0)  -->
<svg version="1.1" id="Layer_1" xmlns="http://www.w3.org/2000/svg" xmlns:xlink="http://www.w3.org/1999/xlink" x="0px" y="0px"
	 viewBox="0 0 54 38.4" enable-background="new 0 0 54 38.4" xml:space="preserve">
<g>
	
		<linearGradient id="SVGID_1_" gradientUnits="userSpaceOnUse" x1="-214.2058" y1="1095.6431" x2="-213.8692" y2="1074.8864" gradientTransform="matrix(1 0 0 -1 219 1089.7413)">
		<stop  offset="0" style="stop-color:#C3DFF4"/>
		<stop  offset="0.1837" style="stop-color:#BDDAF2"/>
		<stop  offset="0.4152" style="stop-color:#ADCDEC"/>
		<stop  offset="0.5551" style="stop-color:#9CC3E8"/>
		<stop  offset="0.8347" style="stop-color:#6FA3D8"/>
		<stop  offset="0.9932" style="stop-color:#5690CC"/>
	</linearGradient>
	<path fill="url(#SVGID_1_)" d="M9.5,14.9l0.7-0.1L10.1,2.9L7.7,1c0,0-3.1,0.7-5.5,5.6C1.6,8,0.8,11.1,0,14.9H9.5z"/>
	
		<linearGradient id="SVGID_00000113346946462471185590000015077349807760801205_" gradientUnits="userSpaceOnUse" x1="-185.9408" y1="1101.4458" x2="-183.1114" y2="1074.8593" gradientTransform="matrix(1 0 0 -1 219 1089.7413)">
		<stop  offset="0" style="stop-color:#C3DFF4"/>
		<stop  offset="0.1837" style="stop-color:#BDDAF2"/>
		<stop  offset="0.4152" style="stop-color:#ADCDEC"/>
		<stop  offset="0.5551" style="stop-color:#9CC3E8"/>
		<stop  offset="0.8347" style="stop-color:#6FA3D8"/>
		<stop  offset="0.9932" style="stop-color:#5690CC"/>
	</linearGradient>
	<path fill="url(#SVGID_00000113346946462471185590000015077349807760801205_)" d="M41,14.9c-0.8-3.8-1.6-6.9-2.3-8.3
		C36.4,1.7,33.3,1,33.3,1l-2.4,1.9l-0.2,11.9l0.8,0.1L41,14.9L41,14.9z"/>
	
		<linearGradient id="SVGID_00000171695112403088192970000009750104319041440178_" gradientUnits="userSpaceOnUse" x1="-198.5971" y1="1094.5063" x2="-198.2771" y2="1067.6315" gradientTransform="matrix(1 0 0 -1 219 1089.7413)">
		<stop  offset="0" style="stop-color:#C3DFF4"/>
		<stop  offset="0.1837" style="stop-color:#BDDAF2"/>
		<stop  offset="0.4152" style="stop-color:#ADCDEC"/>
		<stop  offset="0.5551" style="stop-color:#9CC3E8"/>
		<stop  offset="0.8347" style="stop-color:#6FA3D8"/>
		<stop  offset="0.9932" style="stop-color:#5690CC"/>
	</linearGradient>
	<path fill="url(#SVGID_00000171695112403088192970000009750104319041440178_)" d="M7.8,14.9h25.3C31.9,11.5,33.3,1,33.3,1l-6.9-1.5
		c0,0-3,0.8-5.8,0.8c-2.8,0-5.8-0.8-5.8-0.8L7.7,1C7.7,1,8.8,11.4,7.8,14.9z"/>
	
		<linearGradient id="SVGID_00000161615454747375542390000005383448586670988713_" gradientUnits="userSpaceOnUse" x1="-198.5002" y1="1094.2955" x2="-198.5002" y2="1084.4553" gradientTransform="matrix(1 0 0 -1 219 1089.7413)">
		<stop  offset="0" style="stop-color:#C3DFF4"/>
		<stop  offset="0.1837" style="stop-color:#BDDAF2"/>
		<stop  offset="0.4152" style="stop-color:#ADCDEC"/>
		<stop  offset="0.5551" style="stop-color:#9CC3E8"/>
		<stop  offset="0.8347" style="stop-color:#6FA3D8"/>
		<stop  offset="0.9932" style="stop-color:#5690CC"/>
	</linearGradient>
	<path fill="url(#SVGID_00000161615454747375542390000005383448586670988713_)" d="M20.5,5.3c3.2,0,5.8-2.6,5.8-5.8
		c0,0-2.2,0.6-5.8,0.6c-3.8,0-5.8-0.6-5.8-0.6C14.7,2.7,17.3,5.3,20.5,5.3z"/>
	<path fill="#FFFFFF" d="M14.7-0.5L12.4,0l1.3,8.1c0,0,0.8-0.7,2.4-1.9c1.5-1.1,4.4-1,4.4-1C17.3,5.3,14.7,2.7,14.7-0.5z"/>
	<path fill="#FFFFFF" d="M26.3-0.5L28.6,0l-1.3,8.1c0,0-0.8-0.7-2.4-1.9c-1.5-1.1-4.4-1-4.4-1C23.7,5.3,26.3,2.7,26.3-0.5z"/>
	
		<linearGradient id="SVGID_00000159457097790736383690000005804204989165737133_" gradientUnits="userSpaceOnUse" x1="-198.5002" y1="1090.4938" x2="-198.5002" y2="1085.3197" gradientTransform="matrix(1 0 0 -1 219 1089.7413)">
		<stop  offset="0" style="stop-color:#C3DFF4"/>
		<stop  offset="0.1837" style="stop-color:#BDDAF2"/>
		<stop  offset="0.4152" style="stop-color:#ADCDEC"/>
		<stop  offset="0.5551" style="stop-color:#9CC3E8"/>
		<stop  offset="0.8347" style="stop-color:#6FA3D8"/>
		<stop  offset="0.9932" style="stop-color:#5690CC"/>
	</linearGradient>
	<path fill="url(#SVGID_00000159457097790736383690000005804204989165737133_)" d="M20.5,2c2.8,0,4.7-0.3,5.5-0.5
		c0.2-0.6,0.4-1.3,0.4-1.9c0,0-2.2,0.6-5.8,0.6c-3.8,0-5.8-0.6-5.8-0.6c0,0.7,0.1,1.3,0.4,2C15.8,1.6,17.6,2,20.5,2z"/>
	
		<linearGradient id="SVGID_00000106125886863813591690000009323021785514869919_" gradientUnits="userSpaceOnUse" x1="-203.9495" y1="1077.5396" x2="-193.4609" y2="1068.5864" gradientTransform="matrix(1 0 0 -1 219 1089.7413)">
		<stop  offset="0.2462" style="stop-color:#333333"/>
		<stop  offset="0.5146" style="stop-color:#383938"/>
		<stop  offset="0.8417" style="stop-color:#484848"/>
		<stop  offset="1" style="stop-color:#525252"/>
	</linearGradient>
	<path fill="url(#SVGID_00000106125886863813591690000009323021785514869919_)" d="M20.5,27.4l3.2-2.6l-2.4-18h-0.9h-0.1h-0.9
		l-2.3,18L20.5,27.4L20.5,27.4L20.5,27.4L20.5,27.4L20.5,27.4z"/>
	
		<linearGradient id="SVGID_00000024721236377589863330000012476887278393832876_" gradientUnits="userSpaceOnUse" x1="-198.707" y1="1084.9431" x2="-198.0928" y2="1080.5601" gradientTransform="matrix(1 0 0 -1 219 1089.7413)">
		<stop  offset="0.2462" style="stop-color:#333333"/>
		<stop  offset="0.5146" style="stop-color:#383938"/>
		<stop  offset="0.8417" style="stop-color:#484848"/>
		<stop  offset="1" style="stop-color:#525252"/>
	</linearGradient>
	<path fill="url(#SVGID_00000024721236377589863330000012476887278393832876_)" d="M20.5,5.3h0.8c0.7,0,1.2,0.8,0.8,1.4l-0.4,0.7
		L21.3,8c-0.4,0.6-1.3,0.6-1.6,0l-0.4-0.7l-0.4-0.7C18.5,6,19,5.3,19.7,5.3H20.5z"/>
	
		<linearGradient id="SVGID_00000074400847821864346970000012926117343381865859_" gradientUnits="userSpaceOnUse" x1="-192" y1="1047.4363" x2="-192" y2="1088.5061" gradientTransform="matrix(1 0 0 -1 219 1089.7413)">
		<stop  offset="0" style="stop-color:#C8C8C8"/>
		<stop  offset="0.2648" style="stop-color:#D2D2D2"/>
		<stop  offset="0.6998" style="stop-color:#EAEAEA"/>
		<stop  offset="1" style="stop-color:#FFFFFF"/>
	</linearGradient>
	<path fill="url(#SVGID_00000074400847821864346970000012926117343381865859_)" d="M0,14.5h54v24H0V14.5z"/>
	
		<linearGradient id="SVGID_00000012452330858812921500000002520142694137258373_" gradientUnits="userSpaceOnUse" x1="-178.0065" y1="1077.6344" x2="-178.0065" y2="1083.1038" gradientTransform="matrix(1 0 0 -1 219 1089.7413)">
		<stop  offset="0" style="stop-color:#525252"/>
		<stop  offset="0.171" style="stop-color:#5B5B5B"/>
		<stop  offset="0.4479" style="stop-color:#737374"/>
		<stop  offset="0.7942" style="stop-color:#989898"/>
		<stop  offset="1" style="stop-color:#B4B4B4"/>
	</linearGradient>
	<path fill-rule="evenodd" clip-rule="evenodd" fill="url(#SVGID_00000012452330858812921500000002520142694137258373_)" d="M38,8.6
		h6c0.9,0,1.7,0.8,1.7,1.7v3.6h-9.4v-3.6C36.3,9.3,37.1,8.6,38,8.6z M37.7,12.5h6.6v-2.2c0-0.2-0.1-0.3-0.3-0.3h-6
		c-0.2,0-0.3,0.1-0.3,0.3V12.5z"/>
	
		<linearGradient id="SVGID_00000127733679563710166650000013496101098690968984_" gradientUnits="userSpaceOnUse" x1="-178.0615" y1="1071.5072" x2="-177.2997" y2="1045.6152" gradientTransform="matrix(1 0 0 -1 219 1089.7413)">
		<stop  offset="0" style="stop-color:#525252"/>
		<stop  offset="0.171" style="stop-color:#5B5B5B"/>
		<stop  offset="0.4479" style="stop-color:#737374"/>
		<stop  offset="0.7942" style="stop-color:#989898"/>
		<stop  offset="1" style="stop-color:#B4B4B4"/>
	</linearGradient>
	<path fill="url(#SVGID_00000127733679563710166650000013496101098690968984_)" d="M50.5,31.4h-19c-1.9,0-3.5-1.6-3.5-3.5V12.2h26
		v15.7C54,29.9,52.4,31.4,50.5,31.4z"/>
	
		<linearGradient id="SVGID_00000165955310689900554470000000067025627370053291_" gradientUnits="userSpaceOnUse" x1="-177.9523" y1="1064.4432" x2="-178.0406" y2="1085.6403" gradientTransform="matrix(1 0 0 -1 219 1089.7413)">
		<stop  offset="0" style="stop-color:#B4B4B4"/>
		<stop  offset="0.2058" style="stop-color:#989898"/>
		<stop  offset="0.5521" style="stop-color:#737374"/>
		<stop  offset="0.829" style="stop-color:#5B5B5B"/>
		<stop  offset="1" style="stop-color:#525252"/>
	</linearGradient>
	<path fill="url(#SVGID_00000165955310689900554470000000067025627370053291_)" d="M53.9,19.8c0,0-6.9,2.7-12.9,2.7
		c-5.8,0-12.9-2.7-12.9-2.7c0,0-0.1-7.6-0.1-7.6h26C54,12.2,54,19.8,53.9,19.8z"/>
	
		<linearGradient id="SVGID_00000057149013377187207600000003515472319031146160_" gradientUnits="userSpaceOnUse" x1="-177.9998" y1="1064.2592" x2="-177.9998" y2="1068.4727" gradientTransform="matrix(1 0 0 -1 219 1089.7413)">
		<stop  offset="0" style="stop-color:#C3DFF4"/>
		<stop  offset="0.1837" style="stop-color:#BDDAF2"/>
		<stop  offset="0.4152" style="stop-color:#ADCDEC"/>
		<stop  offset="0.5551" style="stop-color:#9CC3E8"/>
		<stop  offset="0.8347" style="stop-color:#6FA3D8"/>
		<stop  offset="0.9932" style="stop-color:#5690CC"/>
	</linearGradient>
	<path fill="url(#SVGID_00000057149013377187207600000003515472319031146160_)" d="M41,24.8c-0.8,0-1.5-0.7-1.5-1.5v-2.1h3.1v2.1
		C42.5,24.1,41.8,24.8,41,24.8z"/>
	
		<linearGradient id="SVGID_00000118367158829058715900000001491345495101088645_" gradientUnits="userSpaceOnUse" x1="-177.9742" y1="1069.9563" x2="-177.9643" y2="1066.5166" gradientTransform="matrix(1 0 0 -1 219 1089.7413)">
		<stop  offset="0" style="stop-color:#FFFFFF"/>
		<stop  offset="0.2913" style="stop-color:#F3F3F3"/>
		<stop  offset="0.81" style="stop-color:#D6D5D5"/>
		<stop  offset="1" style="stop-color:#C8C8C8"/>
	</linearGradient>
	<path fill="url(#SVGID_00000118367158829058715900000001491345495101088645_)" d="M38.1,22.4c1,0.1,1.9,0.2,2.9,0.2
		c1,0,2-0.1,2.9-0.2c0-0.7-0.5-1.2-1.2-1.2h-3.4C38.7,21.1,38.1,21.7,38.1,22.4z"/>
	<path fill="#77B0DF" d="M8,19.5h13v15H8V19.5z"/>
	<path fill="#FFFFFF" d="M9,18.5h12.9v15H9V18.5z"/>
	<path fill="#B4B4B4" d="M11.1,30.7h8.7v0.6h-8.7V30.7z"/>
	<path fill="#B4B4B4" d="M11.1,28.7h8.7v0.6h-8.7V28.7z"/>
	<path fill="#B4B4B4" d="M11.1,26.7h8.7v0.6h-8.7V26.7z"/>
	<path fill="#B4B4B4" d="M11.1,24.6h8.7v0.6h-8.7V24.6z"/>
	<path fill="#B4B4B4" d="M11.1,22.6h8.7v0.6h-8.7V22.6z"/>
	<path fill="#B4B4B4" d="M13.1,20.6h6.7v0.6h-6.7V20.6z"/>
</g>
</svg>
