<?xml version="1.0" encoding="utf-8"?>
<!-- Generator: Adobe Illustrator 28.3.0, SVG Export Plug-In . SVG Version: 6.00 Build 0)  -->
<svg version="1.1" id="Layer_1" xmlns="http://www.w3.org/2000/svg" xmlns:xlink="http://www.w3.org/1999/xlink" x="0px" y="0px"
	 viewBox="0 0 62.9 38.6" enable-background="new 0 0 62.9 38.6" xml:space="preserve">
<g>
	
		<linearGradient id="SVGID_1_" gradientUnits="userSpaceOnUse" x1="-208.3495" y1="1066.913" x2="-205.0113" y2="1060.0363" gradientTransform="matrix(1 0 0 -1 219 1090.424)">
		<stop  offset="0" style="stop-color:#C8C8C8"/>
		<stop  offset="0.3385" style="stop-color:#C8C8C8"/>
		<stop  offset="0.484" style="stop-color:#C4C4C4"/>
		<stop  offset="0.6171" style="stop-color:#BBBABA"/>
		<stop  offset="0.7454" style="stop-color:#A8A7A7"/>
		<stop  offset="0.8706" style="stop-color:#8E8D8D"/>
		<stop  offset="0.9927" style="stop-color:#6E6D6C"/>
		<stop  offset="1" style="stop-color:#6C6B6A"/>
	</linearGradient>
	<ellipse fill="url(#SVGID_1_)" cx="12.1" cy="26.5" rx="2.8" ry="2.8"/>
	<ellipse fill="#6C6B6A" cx="12.2" cy="26.5" rx="1.8" ry="1.8"/>
	
		<linearGradient id="SVGID_00000165942668577586208740000005408830553064723621_" gradientUnits="userSpaceOnUse" x1="-169.7386" y1="1066.4608" x2="-166.2679" y2="1060.7219" gradientTransform="matrix(1 0 0 -1 219 1090.424)">
		<stop  offset="0" style="stop-color:#C8C8C8"/>
		<stop  offset="0.3385" style="stop-color:#C8C8C8"/>
		<stop  offset="0.484" style="stop-color:#C4C4C4"/>
		<stop  offset="0.6171" style="stop-color:#BBBABA"/>
		<stop  offset="0.7454" style="stop-color:#A8A7A7"/>
		<stop  offset="0.8706" style="stop-color:#8E8D8D"/>
		<stop  offset="0.9927" style="stop-color:#6E6D6C"/>
		<stop  offset="1" style="stop-color:#6C6B6A"/>
	</linearGradient>
	<ellipse fill="url(#SVGID_00000165942668577586208740000005408830553064723621_)" cx="50.8" cy="26.5" rx="2.8" ry="2.8"/>
	<ellipse fill="#6C6B6A" cx="50.8" cy="26.5" rx="1.8" ry="1.8"/>
	
		<linearGradient id="SVGID_00000112599792504926181630000006227299779172023179_" gradientUnits="userSpaceOnUse" x1="-213.6204" y1="1074.2281" x2="-199.9904" y2="1053.3229" gradientTransform="matrix(1 0 0 -1 219 1090.424)">
		<stop  offset="0" style="stop-color:#525252"/>
		<stop  offset="0.5632" style="stop-color:#3D3D3D"/>
		<stop  offset="1" style="stop-color:#282828"/>
	</linearGradient>
	<path fill-rule="evenodd" clip-rule="evenodd" fill="url(#SVGID_00000112599792504926181630000006227299779172023179_)" d="M0,26.5
		c0-6.7,5.4-12.1,12.1-12.1c6.7,0,12.1,5.4,12.1,12.1c0,6.7-5.4,12.1-12.1,12.1C5.4,38.6,0,33.2,0,26.5z M21.2,26.5
		c0-5-4.1-9.1-9.1-9.1c-5,0-9.1,4.1-9.1,9.1s4.1,9.1,9.1,9.1C17.1,35.6,21.2,31.5,21.2,26.5z"/>
	
		<linearGradient id="SVGID_00000168801780515821711230000010199820013895121805_" gradientUnits="userSpaceOnUse" x1="-180.3032" y1="1063.9016" x2="-156.0784" y2="1063.9016" gradientTransform="matrix(1 0 0 -1 219 1090.424)">
		<stop  offset="0" style="stop-color:#525252"/>
		<stop  offset="0.5632" style="stop-color:#3D3D3D"/>
		<stop  offset="1" style="stop-color:#282828"/>
	</linearGradient>
	<path fill-rule="evenodd" clip-rule="evenodd" fill="url(#SVGID_00000168801780515821711230000010199820013895121805_)" d="
		M38.7,26.5c0-6.7,5.4-12.1,12.1-12.1s12.1,5.4,12.1,12.1c0,6.7-5.4,12.1-12.1,12.1S38.7,33.2,38.7,26.5z M59.9,26.5
		c0-5-4.1-9.1-9.1-9.1s-9.1,4.1-9.1,9.1s4.1,9.1,9.1,9.1S59.9,31.5,59.9,26.5z"/>
	
		<linearGradient id="SVGID_00000080910102035272640550000017548549086266531219_" gradientUnits="userSpaceOnUse" x1="-178.9389" y1="1085.1309" x2="-172.7278" y2="1085.1309" gradientTransform="matrix(1 0 0 -1 219 1090.424)">
		<stop  offset="0" style="stop-color:#525252"/>
		<stop  offset="0.593" style="stop-color:#3D3D3D"/>
		<stop  offset="1" style="stop-color:#333333"/>
	</linearGradient>
	<path fill="url(#SVGID_00000080910102035272640550000017548549086266531219_)" d="M43.3,10.2c-0.4,0-0.8-0.3-1-0.7l-2.2-5.7
		c-0.2-0.5,0-1.1,0.5-1.3l4.1-2.1c0.5-0.3,1.1-0.1,1.4,0.5c0.3,0.5,0.1,1.1-0.5,1.4L42.4,4l1.8,4.8c0.2,0.5-0.1,1.1-0.6,1.3
		C43.5,10.2,43.4,10.2,43.3,10.2z"/>
	
		<linearGradient id="SVGID_00000067955125987530478170000014437462195452293786_" gradientUnits="userSpaceOnUse" x1="-189.7581" y1="1081.3177" x2="-187.2546" y2="1061.6434" gradientTransform="matrix(1 0 0 -1 219 1090.424)">
		<stop  offset="0" style="stop-color:#C3DFF4"/>
		<stop  offset="0.2418" style="stop-color:#B4D3EF"/>
		<stop  offset="0.4228" style="stop-color:#ADCDEC"/>
		<stop  offset="1" style="stop-color:#77B0DF"/>
	</linearGradient>
	<path fill-rule="evenodd" clip-rule="evenodd" fill="url(#SVGID_00000067955125987530478170000014437462195452293786_)" d="
		M51.6,25.8c-1.3-1.3-2.7-4.6-3.1-5.8L43.6,7.1c0,0,0,0,0,0c0,0,0,0,0,0l0-0.1c0,0,0-0.1-0.1-0.1c0,0,0,0-0.1-0.1l-0.1-0.1l-0.1-0.1
		c0,0-0.1,0-0.1-0.1c0,0,0,0,0,0h0c0,0-0.1,0-0.1,0c0,0,0,0,0,0c0,0,0,0-0.1,0c-0.1,0-0.3,0-0.4,0c0,0,0,0,0,0c0,0,0,0,0,0
		c0,0,0,0-0.1,0c0,0,0,0-0.1,0l-18.6,5.2l-4.1-7.3c-0.3-0.5-1-0.7-1.5-0.4c-0.5,0.3-0.7,1-0.4,1.5l4.2,7.4L11.3,25.8
		c-0.3,0.3-0.3,0.8-0.1,1.1c0.2,0.4,0.5,0.6,0.9,0.6l18.7,0.8c0.2,0.2,0.5,0.3,0.8,0.3c0.4,0,0.8-0.2,0.9-0.6l10-18.1l4.1,10.7
		c0.1,0.2,1.7,4.6,3.6,6.5c0.4,0.4,1.1,0.4,1.5,0C52,26.9,52,26.2,51.6,25.8z M40.4,9.2l-8.9,16.2l-6.7-11.8L40.4,9.2z M29.4,26.1
		L23,14.8l-8.7,10.7L29.4,26.1z"/>
	<path fill="#C8C8C8" d="M4.7,28.9c-0.2-0.6-0.3-1.2-0.4-1.8c0-0.3,0-0.6,0-0.9l0-0.5l0.1-0.5c0.2-1.2,0.6-2.4,1.4-3.4
		c0.7-1,1.7-1.8,2.8-2.3c1.1-0.6,2.3-0.8,3.5-0.8v0.1c-1.2,0.3-2.3,0.8-3.2,1.4c-0.1,0.1-0.2,0.2-0.3,0.2c-0.1,0.1-0.2,0.2-0.3,0.2
		C8,20.8,7.8,21,7.6,21.2c-0.2,0.2-0.4,0.4-0.6,0.6l-0.3,0.3l-0.2,0.3c-0.7,0.9-1.1,1.9-1.4,3L5,25.8c0,0.1,0,0.3-0.1,0.4
		c-0.1,0.3-0.1,0.6-0.1,0.9C4.7,27.7,4.8,28.3,4.7,28.9L4.7,28.9z"/>
	<path fill="#C8C8C8" d="M48,33.1c0.6,0.2,1.2,0.3,1.8,0.3c0.3,0,0.6,0,0.9,0l0.5,0l0.4-0.1c1.2-0.2,2.3-0.7,3.3-1.4
		c1-0.7,1.8-1.6,2.3-2.7c0.6-1.1,0.8-2.3,0.9-3.5h0.1c0.3,1.2,0.2,2.6-0.3,3.8c-0.1,0.3-0.3,0.6-0.4,0.9c-0.2,0.3-0.4,0.6-0.6,0.8
		c-0.2,0.3-0.4,0.5-0.7,0.7l-0.4,0.3l-0.4,0.3c-0.5,0.4-1.1,0.7-1.8,0.9c-0.6,0.2-1.3,0.4-1.9,0.4l-0.5,0c-0.2,0-0.3,0-0.5,0
		c-0.3,0-0.6-0.1-1-0.1c-0.6-0.1-1.2-0.4-1.8-0.7L48,33.1z"/>
	
		<linearGradient id="SVGID_00000070118489889169533380000007228697226513538450_" gradientUnits="userSpaceOnUse" x1="-200.9556" y1="1084.1265" x2="-194.7022" y2="1079.0336" gradientTransform="matrix(1 0 0 -1 219 1090.424)">
		<stop  offset="0" style="stop-color:#C8C8C8"/>
		<stop  offset="0.3385" style="stop-color:#C8C8C8"/>
		<stop  offset="0.4564" style="stop-color:#C3C3C3"/>
		<stop  offset="0.6048" style="stop-color:#B4B4B4"/>
		<stop  offset="0.7696" style="stop-color:#9B9A99"/>
		<stop  offset="0.9451" style="stop-color:#787877"/>
		<stop  offset="1" style="stop-color:#6C6B6A"/>
	</linearGradient>
	<path fill="url(#SVGID_00000070118489889169533380000007228697226513538450_)" d="M19.6,4.3c-0.3-0.5-1-0.7-1.5-0.4
		c-0.5,0.3-0.7,1-0.4,1.5l4.2,7.4l1.8-1.2L19.6,4.3z"/>
	<path fill="#77B0DF" d="M33.4,21.8l-2,3.5L29.6,22c-0.7,0.3-1.3,0.7-1.8,1.2l1.6,2.9L26.3,26c-0.1,0.4-0.2,0.8-0.2,1.3
		c0,0.3,0,0.6,0.1,0.9l4.6,0.2c0.2,0.2,0.5,0.3,0.8,0.3c0.4,0,0.8-0.2,0.9-0.6l2.9-5.3C34.8,22.4,34.2,22,33.4,21.8z"/>
	
		<linearGradient id="SVGID_00000119833529442954520420000015320843735544175744_" gradientUnits="userSpaceOnUse" x1="-188.2265" y1="1067.2596" x2="-185.8279" y2="1057.9237" gradientTransform="matrix(1 0 0 -1 219 1090.424)">
		<stop  offset="0" style="stop-color:#C8C8C8"/>
		<stop  offset="0.46" style="stop-color:#C8C8C8"/>
		<stop  offset="0.5562" style="stop-color:#C3C3C3"/>
		<stop  offset="0.6774" style="stop-color:#B4B4B4"/>
		<stop  offset="0.8119" style="stop-color:#9B9A99"/>
		<stop  offset="0.9552" style="stop-color:#787877"/>
		<stop  offset="1" style="stop-color:#6C6B6A"/>
	</linearGradient>
	<ellipse fill="url(#SVGID_00000119833529442954520420000015320843735544175744_)" cx="31.8" cy="27.3" rx="4.5" ry="4.5"/>
	<path fill="#ABABAB" d="M17.6,4.7c0,0.2,0,0.5,0.1,0.7l1,1.7c0.8-0.2,1.5-0.4,2.1-0.7l-1-1.7c-0.1,0-0.2,0-0.3,0
		C18.8,4.7,18.2,4.7,17.6,4.7z"/>
	
		<linearGradient id="SVGID_00000036220771134840990020000014952294725475583622_" gradientUnits="userSpaceOnUse" x1="-199.5654" y1="1088.2268" x2="-199.5058" y2="1083.9858" gradientTransform="matrix(1 0 0 -1 219 1090.424)">
		<stop  offset="0" style="stop-color:#525252"/>
		<stop  offset="0.5632" style="stop-color:#3D3D3D"/>
		<stop  offset="1" style="stop-color:#282828"/>
	</linearGradient>
	<path fill="url(#SVGID_00000036220771134840990020000014952294725475583622_)" d="M19.3,3.5c-2.9,0-5.4-0.4-5.4,0.4
		c0,0.8,1.1,2.1,3.3,2.1s3.9-1.2,4.8-1.2c0.9,0,1.5,0.3,2.3,0.3c0.8,0,0.9-0.5,0.9-0.7C25.1,4.2,25.5,3.5,19.3,3.5z"/>
	
		<linearGradient id="SVGID_00000052783777480404003190000014823323302843936692_" gradientUnits="userSpaceOnUse" x1="-188.8877" y1="1065.6542" x2="-185.4803" y2="1060.6409" gradientTransform="matrix(1 0 0 -1 219 1090.424)">
		<stop  offset="0" style="stop-color:#FFFFFF"/>
		<stop  offset="0.4204" style="stop-color:#E6E6E5"/>
		<stop  offset="1" style="stop-color:#C8C8C8"/>
	</linearGradient>
	<ellipse fill="url(#SVGID_00000052783777480404003190000014823323302843936692_)" cx="31.8" cy="27.3" rx="2.8" ry="2.8"/>
	<path fill="#C8C8C8" d="M31.9,26.9h-0.2c-0.3,0-0.5,0.2-0.5,0.5v5.9c0,0.3,0.2,0.5,0.5,0.5h0.2c0.3,0,0.5-0.2,0.5-0.5v-5.9
		C32.4,27.1,32.2,26.9,31.9,26.9z"/>
	<path fill="#919191" d="M31.2,31.8v1.4c0,0.1,0,0.3,0.1,0.4h0.9c0.1-0.1,0.1-0.2,0.1-0.4v-1.4H31.2z"/>
	<path fill="#C8C8C8" d="M33.4,34.4h-3.1c-0.5,0-0.9-0.4-0.9-0.9s0.4-0.9,0.9-0.9h3.1c0.5,0,0.9,0.4,0.9,0.9S33.9,34.4,33.4,34.4z"
		/>
	
		<linearGradient id="SVGID_00000158010627942362757220000015075078952080698017_" gradientUnits="userSpaceOnUse" x1="-175.1791" y1="1089.0073" x2="-172.3368" y2="1089.0073" gradientTransform="matrix(1 0 0 -1 219 1090.424)">
		<stop  offset="0" style="stop-color:#525252"/>
		<stop  offset="0.593" style="stop-color:#3D3D3D"/>
		<stop  offset="1" style="stop-color:#333333"/>
	</linearGradient>
	<ellipse fill="url(#SVGID_00000158010627942362757220000015075078952080698017_)" cx="45.2" cy="1.4" rx="1.4" ry="1.4"/>
</g>
</svg>
