<?xml version="1.0" encoding="utf-8"?>
<!-- Generator: Adobe Illustrator 28.3.0, SVG Export Plug-In . SVG Version: 6.00 Build 0)  -->
<svg version="1.1" id="Layer_1" xmlns="http://www.w3.org/2000/svg" xmlns:xlink="http://www.w3.org/1999/xlink" x="0px" y="0px"
	 viewBox="0 0 54.8 40" enable-background="new 0 0 54.8 40" xml:space="preserve">
<g>
	
		<linearGradient id="SVGID_1_" gradientUnits="userSpaceOnUse" x1="-190.5" y1="1050.9117" x2="-190.5" y2="1054.7684" gradientTransform="matrix(1 0 0 -1 219 1091.7815)">
		<stop  offset="0" style="stop-color:#525252"/>
		<stop  offset="0.5632" style="stop-color:#3D3D3D"/>
		<stop  offset="1" style="stop-color:#282828"/>
	</linearGradient>
	<path fill="url(#SVGID_1_)" d="M12,34v3.1h3.3c1.5,0,2.8,1.3,2.8,2.9H45v-2.9v-0.3V34H12z"/>
	
		<linearGradient id="SVGID_00000014627289822517009400000006125951534622692498_" gradientUnits="userSpaceOnUse" x1="-190.5" y1="1054.1804" x2="-190.5" y2="1057.4818" gradientTransform="matrix(1 0 0 -1 219 1091.7815)">
		<stop  offset="0" style="stop-color:#525252"/>
		<stop  offset="0.5632" style="stop-color:#3D3D3D"/>
		<stop  offset="1" style="stop-color:#282828"/>
	</linearGradient>
	<path fill="url(#SVGID_00000014627289822517009400000006125951534622692498_)" d="M45,34H12v3h3.3H45V34z"/>
	
		<linearGradient id="SVGID_00000174564850987291301890000000084234848764931757_" gradientUnits="userSpaceOnUse" x1="-178.1755" y1="1069.751" x2="-168.2254" y2="1062.6749" gradientTransform="matrix(1 0 0 -1 219 1091.7815)">
		<stop  offset="0" style="stop-color:#525252"/>
		<stop  offset="0.5632" style="stop-color:#3D3D3D"/>
		<stop  offset="1" style="stop-color:#282828"/>
	</linearGradient>
	<path fill="url(#SVGID_00000174564850987291301890000000084234848764931757_)" d="M42,17h6v16h-6V17z"/>
	
		<linearGradient id="SVGID_00000176015788058631625410000015877194335509277374_" gradientUnits="userSpaceOnUse" x1="-215.1283" y1="1073.3269" x2="-208.1165" y2="1064.543" gradientTransform="matrix(1 0 0 -1 219 1091.7815)">
		<stop  offset="0" style="stop-color:#B4B4B4"/>
		<stop  offset="0.2058" style="stop-color:#989898"/>
		<stop  offset="0.5521" style="stop-color:#737374"/>
		<stop  offset="0.829" style="stop-color:#5B5B5B"/>
		<stop  offset="1" style="stop-color:#525252"/>
	</linearGradient>
	<path fill="url(#SVGID_00000176015788058631625410000015877194335509277374_)" d="M5,20h5v6H5V20z"/>
	
		<linearGradient id="SVGID_00000173137027856778243080000018128377343326320011_" gradientUnits="userSpaceOnUse" x1="-210.518" y1="1068.4695" x2="-225.4342" y2="1071.1584" gradientTransform="matrix(1 0 0 -1 219 1091.7815)">
		<stop  offset="6.810900e-03" style="stop-color:#5690CC"/>
		<stop  offset="0.1867" style="stop-color:#6FA3D8"/>
		<stop  offset="0.5038" style="stop-color:#9CC3E8"/>
		<stop  offset="0.6625" style="stop-color:#ADCDEC"/>
		<stop  offset="0.9665" style="stop-color:#C1DDF3"/>
		<stop  offset="1" style="stop-color:#C3DFF4"/>
	</linearGradient>
	<path fill="url(#SVGID_00000173137027856778243080000018128377343326320011_)" d="M5,9.9v25c0,1-1.3,1.4-1.9,0.7l-0.2-0.2
		c-0.9-1-1.4-2.3-1.4-3.7v-4.4c0-0.5,0.1-0.9,0.3-1.3l0.3-0.8c0.2-0.6,0.4-1.2,0.4-1.8v-1.1c0-0.5-0.2-0.9-0.5-1.3l-1.2-1.5
		C0.3,18.9,0,18,0,17.2V14c0-1.5,0.7-2.8,1.9-3.7l1.6-1.1C4.1,8.7,5,9.2,5,9.9z"/>
	
		<linearGradient id="SVGID_00000071530436356830212180000012126870207178954403_" gradientUnits="userSpaceOnUse" x1="-195.3943" y1="1087.2683" x2="-189.2774" y2="1034.2194" gradientTransform="matrix(1 0 0 -1 219 1091.7815)">
		<stop  offset="0" style="stop-color:#B4B4B4"/>
		<stop  offset="0.2058" style="stop-color:#989898"/>
		<stop  offset="0.5521" style="stop-color:#737374"/>
		<stop  offset="0.829" style="stop-color:#5B5B5B"/>
		<stop  offset="1" style="stop-color:#525252"/>
	</linearGradient>
	<path fill="url(#SVGID_00000071530436356830212180000012126870207178954403_)" d="M45,34H7V11h32.2c3.2,0,5.8,2.6,5.8,5.8L45,34
		L45,34z"/>
	
		<linearGradient id="SVGID_00000047754690720299631280000015926070173872359052_" gradientUnits="userSpaceOnUse" x1="-176.0654" y1="1070.2034" x2="-155.3345" y2="1062.1127" gradientTransform="matrix(1 0 0 -1 219 1091.7815)">
		<stop  offset="0" style="stop-color:#B4B4B4"/>
		<stop  offset="0.2058" style="stop-color:#989898"/>
		<stop  offset="0.5521" style="stop-color:#737374"/>
		<stop  offset="0.829" style="stop-color:#5B5B5B"/>
		<stop  offset="1" style="stop-color:#525252"/>
	</linearGradient>
	<path fill="url(#SVGID_00000047754690720299631280000015926070173872359052_)" d="M50,11h-2.2v26H50c1.3,0,2.4-0.9,2.8-2.2l2-6.1
		v-4.6v-4.9l-2-6.1C52.4,11.9,51.3,11,50,11z"/>
	
		<linearGradient id="SVGID_00000114037531448435346090000016059843354607503493_" gradientUnits="userSpaceOnUse" x1="-193" y1="1088.8745" x2="-193" y2="1083.2079" gradientTransform="matrix(1 0 0 -1 219 1091.7815)">
		<stop  offset="0" style="stop-color:#FFFFFF"/>
		<stop  offset="0.2913" style="stop-color:#F3F3F3"/>
		<stop  offset="0.81" style="stop-color:#D6D5D5"/>
		<stop  offset="1" style="stop-color:#C8C8C8"/>
	</linearGradient>
	<path fill="url(#SVGID_00000114037531448435346090000016059843354607503493_)" d="M19,5h14v4H19V5z"/>
	
		<linearGradient id="SVGID_00000096746907540724112300000018405504214358621113_" gradientUnits="userSpaceOnUse" x1="-193.5053" y1="1088.6198" x2="-193.498" y2="1080.5846" gradientTransform="matrix(1 0 0 -1 219 1091.7815)">
		<stop  offset="0" style="stop-color:#FFFFFF"/>
		<stop  offset="0.2913" style="stop-color:#F3F3F3"/>
		<stop  offset="0.81" style="stop-color:#D6D5D5"/>
		<stop  offset="1" style="stop-color:#C8C8C8"/>
	</linearGradient>
	<path fill="url(#SVGID_00000096746907540724112300000018405504214358621113_)" d="M13,7h25v4H13V7z"/>
	
		<linearGradient id="SVGID_00000145016179727737805350000015575179178287088777_" gradientUnits="userSpaceOnUse" x1="-193.4643" y1="1082.4983" x2="-193.5591" y2="1097.0035" gradientTransform="matrix(1 0 0 -1 219 1091.7815)">
		<stop  offset="6.810900e-03" style="stop-color:#5690CC"/>
		<stop  offset="0.1867" style="stop-color:#6FA3D8"/>
		<stop  offset="0.5038" style="stop-color:#9CC3E8"/>
		<stop  offset="0.6625" style="stop-color:#ADCDEC"/>
		<stop  offset="0.9665" style="stop-color:#C1DDF3"/>
		<stop  offset="1" style="stop-color:#C3DFF4"/>
	</linearGradient>
	<path fill="url(#SVGID_00000145016179727737805350000015575179178287088777_)" d="M37,5H14V2.6C14,1.2,15.2,0,16.6,0h17.7
		C35.8,0,37,1.2,37,2.6V5z"/>
	
		<linearGradient id="SVGID_00000095303374854553528320000007078536437707606661_" gradientUnits="userSpaceOnUse" x1="-193.5079" y1="1077.1265" x2="-193.5066" y2="1072.3546" gradientTransform="matrix(1 0 0 -1 219 1091.7815)">
		<stop  offset="0" style="stop-color:#FFFFFF"/>
		<stop  offset="0.2913" style="stop-color:#F3F3F3"/>
		<stop  offset="0.81" style="stop-color:#D6D5D5"/>
		<stop  offset="1" style="stop-color:#C8C8C8"/>
	</linearGradient>
	<path fill="url(#SVGID_00000095303374854553528320000007078536437707606661_)" d="M36.8,19.2H14.1c-0.6,0-1.1-0.5-1.1-1.1
		c0-0.6,0.5-1.1,1.1-1.1h22.7c0.6,0,1.1,0.5,1.1,1.1C37.9,18.7,37.4,19.2,36.8,19.2z"/>
	
		<linearGradient id="SVGID_00000016057958930777155660000004842577544702409116_" gradientUnits="userSpaceOnUse" x1="-193.5079" y1="1072.7581" x2="-193.5066" y2="1067.9861" gradientTransform="matrix(1 0 0 -1 219 1091.7815)">
		<stop  offset="0" style="stop-color:#FFFFFF"/>
		<stop  offset="0.2913" style="stop-color:#F3F3F3"/>
		<stop  offset="0.81" style="stop-color:#D6D5D5"/>
		<stop  offset="1" style="stop-color:#C8C8C8"/>
	</linearGradient>
	<path fill="url(#SVGID_00000016057958930777155660000004842577544702409116_)" d="M36.8,23.5H14.1c-0.6,0-1.1-0.5-1.1-1.1
		s0.5-1.1,1.1-1.1h22.7c0.6,0,1.1,0.5,1.1,1.1S37.4,23.5,36.8,23.5z"/>
	
		<linearGradient id="SVGID_00000018198731457397350500000010119556424978443150_" gradientUnits="userSpaceOnUse" x1="-193.5079" y1="1068.3894" x2="-193.5066" y2="1063.6173" gradientTransform="matrix(1 0 0 -1 219 1091.7815)">
		<stop  offset="0" style="stop-color:#FFFFFF"/>
		<stop  offset="0.2913" style="stop-color:#F3F3F3"/>
		<stop  offset="0.81" style="stop-color:#D6D5D5"/>
		<stop  offset="1" style="stop-color:#C8C8C8"/>
	</linearGradient>
	<path fill="url(#SVGID_00000018198731457397350500000010119556424978443150_)" d="M36.8,27.9H14.1c-0.6,0-1.1-0.5-1.1-1.1
		s0.5-1.1,1.1-1.1h22.7c0.6,0,1.1,0.5,1.1,1.1S37.4,27.9,36.8,27.9z"/>
</g>
</svg>
