<?xml version="1.0" encoding="utf-8"?>
<!-- Generator: Adobe Illustrator 28.3.0, SVG Export Plug-In . SVG Version: 6.00 Build 0)  -->
<svg version="1.1" id="Layer_1" xmlns="http://www.w3.org/2000/svg" xmlns:xlink="http://www.w3.org/1999/xlink" x="0px" y="0px"
	 viewBox="0 0 52 58" enable-background="new 0 0 52 58" xml:space="preserve">
<g>
	
		<linearGradient id="SVGID_1_" gradientUnits="userSpaceOnUse" x1="-169.6778" y1="1039.1125" x2="-199.4119" y2="1079.1624" gradientTransform="matrix(1 0 0 -1 219 1109.7555)">
		<stop  offset="6.810900e-03" style="stop-color:#5690CC"/>
		<stop  offset="0.1653" style="stop-color:#6FA3D8"/>
		<stop  offset="0.4449" style="stop-color:#9CC3E8"/>
		<stop  offset="0.5848" style="stop-color:#ADCDEC"/>
		<stop  offset="0.8163" style="stop-color:#BDDAF2"/>
		<stop  offset="1" style="stop-color:#C3DFF4"/>
	</linearGradient>
	<path fill="url(#SVGID_1_)" d="M37.2,14.7L26,1.9L14.9,14.7L3.8,27.5v23.6h44.4V27.5L37.2,14.7z"/>
	
		<linearGradient id="SVGID_00000070818646921355857370000014671744303548095386_" gradientUnits="userSpaceOnUse" x1="-181.2488" y1="1036.1566" x2="-193.552" y2="1082.6328" gradientTransform="matrix(1 0 0 -1 219 1109.7555)">
		<stop  offset="6.810900e-03" style="stop-color:#5690CC"/>
		<stop  offset="0.1653" style="stop-color:#6FA3D8"/>
		<stop  offset="0.4449" style="stop-color:#9CC3E8"/>
		<stop  offset="0.5848" style="stop-color:#ADCDEC"/>
		<stop  offset="0.8163" style="stop-color:#BDDAF2"/>
		<stop  offset="1" style="stop-color:#C3DFF4"/>
	</linearGradient>
	<path fill="url(#SVGID_00000070818646921355857370000014671744303548095386_)" d="M37.2,14.7L26,1.9L14.9,14.7L3.8,27.5v3.8
		l11.1-12.8L26,5.7l11.1,12.8l11.1,12.8v-3.8L37.2,14.7z"/>
	<path fill="#ADCDEC" d="M48.3,29.4L37.2,16.6L26,3.8L14.9,16.6L3.8,29.4v3.8l11.1-12.8L26,7.6l11.1,12.8l11.1,12.8V29.4z"/>
	
		<linearGradient id="SVGID_00000161634131112775055620000013213822400671432100_" gradientUnits="userSpaceOnUse" x1="-198.2281" y1="1108.8054" x2="-190.6642" y2="1066.8691" gradientTransform="matrix(1 0 0 -1 219 1109.7555)">
		<stop  offset="0" style="stop-color:#F26722"/>
		<stop  offset="0.3678" style="stop-color:#F26122"/>
		<stop  offset="0.9685" style="stop-color:#DB5026"/>
		<stop  offset="1" style="stop-color:#DB5026"/>
	</linearGradient>
	<path fill="url(#SVGID_00000161634131112775055620000013213822400671432100_)" d="M26,0L0,30l2.7,2.6L26,5.7l23.2,26.7l2.8-2.5
		L26,0z"/>
	
		<linearGradient id="SVGID_00000165196399256047555450000018020362404964146578_" gradientUnits="userSpaceOnUse" x1="-192.9998" y1="1079.1254" x2="-192.9998" y2="1056.348" gradientTransform="matrix(1 0 0 -1 219 1109.7555)">
		<stop  offset="0.2462" style="stop-color:#333333"/>
		<stop  offset="0.5146" style="stop-color:#383938"/>
		<stop  offset="0.8417" style="stop-color:#484848"/>
		<stop  offset="1" style="stop-color:#525252"/>
	</linearGradient>
	<path fill="url(#SVGID_00000165196399256047555450000018020362404964146578_)" d="M26,31c-5.5,0-10,4.5-10,10.1v10.1h20V41
		C36,35.5,31.5,31,26,31z"/>
	<path fill="#ADCDEC" d="M32.3,24.6c0.8-0.3,1.3-1.1,1.1-2c-0.1-0.6-0.6-1-1.2-1.2c-0.7-0.2-1.4,0.1-1.8,0.7
		C30.1,22.6,29.6,23,29,23H23c-0.5,0-1.1-0.3-1.3-0.8c-0.3-0.6-1.1-1-1.8-0.8c-0.6,0.1-1,0.6-1.2,1.2c-0.2,0.9,0.3,1.7,1.1,2
		c-0.8,0.3-1.3,1.1-1.1,2c0.1,0.6,0.6,1,1.2,1.2c0.8,0.2,1.6-0.2,1.9-0.9c0.2-0.5,0.7-0.7,1.2-0.7c1.6,0,4.5,0,6.1,0
		c0.5,0,1,0.3,1.2,0.7c0.3,0.7,1.1,1.1,1.9,0.9c0.6-0.1,1.1-0.6,1.2-1.2C33.6,25.6,33.1,24.8,32.3,24.6z"/>
	<path fill="#FFFFFF" d="M32.3,23.4c0.8-0.3,1.3-1.1,1.1-2c-0.1-0.6-0.6-1-1.2-1.2c-0.7-0.2-1.4,0.1-1.8,0.7
		c-0.3,0.5-0.9,0.9-1.5,0.9H23c-0.5,0-1.1-0.3-1.3-0.8c-0.3-0.6-1.1-1-1.8-0.8c-0.6,0.1-1,0.6-1.2,1.2c-0.2,0.9,0.3,1.7,1.1,2
		c-0.8,0.3-1.3,1.1-1.1,2c0.1,0.6,0.6,1,1.2,1.2c0.8,0.2,1.6-0.2,1.9-0.9c0.2-0.5,0.7-0.7,1.2-0.7c1.6,0,4.5,0,6.1,0
		c0.5,0,1,0.3,1.2,0.7c0.3,0.7,1.1,1.1,1.9,0.9c0.6-0.1,1.1-0.6,1.2-1.2C33.6,24.5,33.1,23.7,32.3,23.4z"/>
	
		<radialGradient id="SVGID_00000180359497614930154020000003914612651896203959_" cx="-554.3178" cy="575.0978" r="1" gradientTransform="matrix(6.5269 0 0 -6.5733 3633.4382 3832.7734)" gradientUnits="userSpaceOnUse">
		<stop  offset="0" style="stop-color:#F9A86B"/>
		<stop  offset="0.1143" style="stop-color:#F9A262"/>
		<stop  offset="0.3016" style="stop-color:#F7914B"/>
		<stop  offset="0.5372" style="stop-color:#F47624"/>
		<stop  offset="0.6902" style="stop-color:#F26322"/>
		<stop  offset="0.8923" style="stop-color:#E65825"/>
		<stop  offset="1" style="stop-color:#DB5026"/>
	</radialGradient>
	<ellipse fill="url(#SVGID_00000180359497614930154020000003914612651896203959_)" cx="16.7" cy="53.4" rx="4.5" ry="4.5"/>
	
		<radialGradient id="SVGID_00000118371330325699747150000002111473140572039310_" cx="-536.4243" cy="641.3685" r="1" gradientTransform="matrix(5.0195 0 0 -3.8965 2708.8953 2552.0542)" gradientUnits="userSpaceOnUse">
		<stop  offset="0" style="stop-color:#FFFFFF"/>
		<stop  offset="0.4077" style="stop-color:#FFFFFF"/>
		<stop  offset="0.6197" style="stop-color:#F5F6F6"/>
		<stop  offset="0.7866" style="stop-color:#E8E7E7"/>
		<stop  offset="0.9292" style="stop-color:#D6D5D5"/>
		<stop  offset="1" style="stop-color:#C8C8C8"/>
	</radialGradient>
	<path fill="url(#SVGID_00000118371330325699747150000002111473140572039310_)" d="M21.1,52.3c-0.2-0.6-0.4-1.2-0.8-1.7
		c-0.1-0.1-0.3-0.1-0.4-0.1c-0.6-0.1-1.2,0.1-1.8,0.5c-0.9,0.7-1.1,1.8-1.3,2.8c-0.2,1.2-0.4,1.9-1.2,2.2c-1.4,0.5-2.5-0.1-2.9-0.4
		c0.3,0.5,0.6,1,1.1,1.4c0.2,0.1,0.5,0.1,0.8,0.1c0.4,0,0.8-0.1,1.3-0.2c1.3-0.5,1.5-1.7,1.7-2.8c0.2-0.9,0.3-1.8,0.9-2.2
		c0.4-0.3,0.7-0.4,1.1-0.3C20.3,51.5,20.9,52.1,21.1,52.3z"/>
	
		<linearGradient id="SVGID_00000054954576251310756300000016897452305517368213_" gradientUnits="userSpaceOnUse" x1="-182.0377" y1="1063.4658" x2="-181.6185" y2="1048.3312" gradientTransform="matrix(1 0 0 -1 219 1109.7555)">
		<stop  offset="0" style="stop-color:#F9A86B"/>
		<stop  offset="9.132750e-02" style="stop-color:#F9A262"/>
		<stop  offset="0.2409" style="stop-color:#F7914B"/>
		<stop  offset="0.429" style="stop-color:#F47624"/>
		<stop  offset="0.5512" style="stop-color:#F26322"/>
		<stop  offset="0.844" style="stop-color:#E65825"/>
		<stop  offset="1" style="stop-color:#DB5026"/>
	</linearGradient>
	<path fill="url(#SVGID_00000054954576251310756300000016897452305517368213_)" d="M46.5,52.7c-0.8-0.2-1.4-0.9-1.4-1.8
		c0-0.7,0.4-1.3,0.9-1.6L45.6,47H28.9l-0.4,2.3c0.6,0.3,0.9,0.9,0.9,1.6c0,0.9-0.6,1.7-1.5,1.8l-0.3,2.1h19.2L46.5,52.7z"/>
	
		<linearGradient id="SVGID_00000132082124800907061510000000512775201587018428_" gradientUnits="userSpaceOnUse" x1="-181.8279" y1="1068.0203" x2="-181.7682" y2="1057.0947" gradientTransform="matrix(1 0 0 -1 219 1109.7555)">
		<stop  offset="0" style="stop-color:#F6891F"/>
		<stop  offset="0.1659" style="stop-color:#F57F20"/>
		<stop  offset="0.4368" style="stop-color:#F26722"/>
		<stop  offset="0.4793" style="stop-color:#F26322"/>
		<stop  offset="0.819" style="stop-color:#E65825"/>
		<stop  offset="1" style="stop-color:#DB5026"/>
	</linearGradient>
	<path fill="url(#SVGID_00000132082124800907061510000000512775201587018428_)" d="M28,52.8h18.5v0c-0.8-0.2-1.4-0.9-1.4-1.8
		c0-0.7,0.4-1.3,0.9-1.6L45.6,47H28.9l-0.4,2.3c0.6,0.3,0.9,0.9,0.9,1.6C29.5,51.8,28.8,52.6,28,52.8z"/>
</g>
</svg>
